<?xml version="1.0" encoding="UTF-8" standalone="no"?>
<!-- Created with Inkscape (http://www.inkscape.org/) -->

<svg
   width="210mm"
   height="297mm"
   viewBox="0 0 210 297"
   version="1.1"
   id="svg5"
   inkscape:version="1.2.1 (9c6d41e410, 2022-07-14)"
   sodipodi:docname="apple.svg"
   xml:space="preserve"
   xmlns:inkscape="http://www.inkscape.org/namespaces/inkscape"
   xmlns:sodipodi="http://sodipodi.sourceforge.net/DTD/sodipodi-0.dtd"
   xmlns:xlink="http://www.w3.org/1999/xlink"
   xmlns="http://www.w3.org/2000/svg"
   xmlns:svg="http://www.w3.org/2000/svg"><sodipodi:namedview
     id="namedview7"
     pagecolor="#ffffff"
     bordercolor="#666666"
     borderopacity="1.0"
     inkscape:showpageshadow="2"
     inkscape:pageopacity="0.0"
     inkscape:pagecheckerboard="0"
     inkscape:deskcolor="#d1d1d1"
     inkscape:document-units="mm"
     showgrid="false"
     inkscape:zoom="0.84096522"
     inkscape:cx="453.05084"
     inkscape:cy="567.20538"
     inkscape:window-width="2560"
     inkscape:window-height="1377"
     inkscape:window-x="1272"
     inkscape:window-y="-8"
     inkscape:window-maximized="1"
     inkscape:current-layer="layer1" /><defs
     id="defs2"><linearGradient
       inkscape:collect="always"
       id="linearGradient14485"><stop
         style="stop-color:#ffbbbc;stop-opacity:0.76322418;"
         offset="0"
         id="stop14481" /><stop
         style="stop-color:#db1b36;stop-opacity:0;"
         offset="1"
         id="stop14483" /></linearGradient><linearGradient
       inkscape:collect="always"
       id="linearGradient14473"><stop
         style="stop-color:#ffab98;stop-opacity:0.86901766;"
         offset="0"
         id="stop14469" /><stop
         style="stop-color:#db1b36;stop-opacity:0;"
         offset="1"
         id="stop14471" /></linearGradient><linearGradient
       inkscape:collect="always"
       id="linearGradient14463"><stop
         style="stop-color:#e57d7d;stop-opacity:0.46599498;"
         offset="0"
         id="stop14459" /><stop
         style="stop-color:#cd0010;stop-opacity:0.37279597;"
         offset="1"
         id="stop14461" /></linearGradient><linearGradient
       inkscape:collect="always"
       id="linearGradient14452"><stop
         style="stop-color:#901102;stop-opacity:0.14105794;"
         offset="0"
         id="stop14448" /><stop
         style="stop-color:#a9141c;stop-opacity:0.7581864;"
         offset="1"
         id="stop14450" /></linearGradient><linearGradient
       inkscape:collect="always"
       id="linearGradient14299"><stop
         style="stop-color:#8d0f02;stop-opacity:0.96221662;"
         offset="0"
         id="stop14295" /><stop
         style="stop-color:#ca151c;stop-opacity:0.31234261;"
         offset="1"
         id="stop14297" /></linearGradient><linearGradient
       inkscape:collect="always"
       id="linearGradient2670"><stop
         style="stop-color:#ff696c;stop-opacity:1;"
         offset="0"
         id="stop2666" /><stop
         style="stop-color:#ce0006;stop-opacity:0.96977323;"
         offset="1"
         id="stop2668" /></linearGradient><radialGradient
       inkscape:collect="always"
       xlink:href="#linearGradient2670"
       id="radialGradient2672"
       cx="104.44188"
       cy="62.596436"
       fx="104.44188"
       fy="62.596436"
       r="15.209249"
       gradientTransform="matrix(1.3417431,2.3177107,-2.2040529,1.2759456,74.055438,-266.52985)"
       gradientUnits="userSpaceOnUse" /><linearGradient
       inkscape:collect="always"
       xlink:href="#linearGradient14299"
       id="linearGradient14301"
       x1="121.13435"
       y1="82.313522"
       x2="114.08487"
       y2="71.746246"
       gradientUnits="userSpaceOnUse"
       gradientTransform="matrix(2.1849705,0,0,2.1849705,-151.97869,-84.458411)" /><filter
       inkscape:collect="always"
       style="color-interpolation-filters:sRGB"
       id="filter14306"
       x="-0.043285148"
       y="-0.14222075"
       width="1.0865703"
       height="1.2844415"><feGaussianBlur
         inkscape:collect="always"
         stdDeviation="0.13332829"
         id="feGaussianBlur14308" /></filter><filter
       inkscape:collect="always"
       style="color-interpolation-filters:sRGB"
       id="filter14310"
       x="-0.11375446"
       y="-0.47757551"
       width="1.2275089"
       height="1.955151"><feGaussianBlur
         inkscape:collect="always"
         stdDeviation="0.35035175"
         id="feGaussianBlur14312" /></filter><linearGradient
       inkscape:collect="always"
       xlink:href="#linearGradient14452"
       id="linearGradient14322"
       x1="126.80732"
       y1="70.300209"
       x2="113.12546"
       y2="81.757355"
       gradientUnits="userSpaceOnUse"
       gradientTransform="matrix(2.1849705,0,0,2.1849705,-151.97869,-84.458411)" /><radialGradient
       inkscape:collect="always"
       xlink:href="#linearGradient14463"
       id="radialGradient14465"
       cx="103.85466"
       cy="60.881046"
       fx="103.85466"
       fy="60.881046"
       r="11.850548"
       gradientTransform="matrix(2.6461839,0.60456384,-0.67000287,2.9326115,-160.51795,-184.62009)"
       gradientUnits="userSpaceOnUse" /><radialGradient
       inkscape:collect="always"
       xlink:href="#linearGradient14473"
       id="radialGradient14475"
       cx="118.77457"
       cy="60.631706"
       fx="118.77457"
       fy="60.631706"
       r="3.895907"
       gradientTransform="matrix(2.2030018,-0.88333164,0.52944125,1.3204102,-185.54156,72.156206)"
       gradientUnits="userSpaceOnUse" /><radialGradient
       inkscape:collect="always"
       xlink:href="#linearGradient14485"
       id="radialGradient14479"
       gradientUnits="userSpaceOnUse"
       gradientTransform="matrix(-1.5777221,-1.023108,-0.80754445,1.2453042,311.26018,95.011974)"
       cx="118.31711"
       cy="61.236763"
       fx="118.31711"
       fy="61.236763"
       r="3.895907" /><filter
       inkscape:collect="always"
       style="color-interpolation-filters:sRGB"
       id="filter16096"
       x="-0.031465036"
       y="-0.028303412"
       width="1.0629301"
       height="1.0566068"><feGaussianBlur
         inkscape:collect="always"
         stdDeviation="0.40705013"
         id="feGaussianBlur16098" /></filter></defs><g
     inkscape:label="Layer 1"
     inkscape:groupmode="layer"
     id="layer1"><g
       id="g1890"
       inkscape:export-filename="g1890.png"
       inkscape:export-xdpi="90.176308"
       inkscape:export-ydpi="90.176308"><path
         id="path16087"
         style="fill:#000000;fill-opacity:1;stroke:none;stroke-width:0.264583px;stroke-linecap:butt;stroke-linejoin:miter;stroke-opacity:1;filter:url(#filter16096)"
         d="m 120.99313,49.347375 c -2.12581,-0.02478 -3.86647,1.443764 -5.32215,2.458765 -0.79892,0.46049 -1.25735,0.673816 -1.70326,0.86403 0.005,-0.583241 0.003,-1.177957 -0.008,-1.780253 -0.21899,-0.281562 -0.63307,-0.503633 -1.05162,-0.489376 -0.32553,0.01109 -0.65382,0.164898 -0.89503,0.54467 0.37057,3.261034 0.41156,5.896012 0.34313,7.818127 -2.35176,-1.002478 -6.58821,-1.345599 -9.84953,0.345716 -4.062248,2.568358 -5.283178,6.540262 -5.52576,9.63507 -0.308293,3.933141 1.153969,8.517542 4.16874,11.090279 3.37407,2.87937 7.81007,4.196265 12.03441,4.011642 4.08252,-0.178425 8.99362,-2.343371 11.24737,-4.876705 2.49282,-2.724679 3.83545,-7.905196 3.50831,-10.727511 -0.44944,-3.877416 -2.795,-8.223618 -6.82128,-9.578743 -2.96626,-0.998354 -6.03577,-0.341299 -7.44968,0.07441 0.12534,-1.440931 0.24022,-3.198646 0.28319,-5.114933 1.02017,0.855825 2.92731,2.349584 4.34547,2.828768 1.61594,0.54601 3.47371,-0.512445 5.117,-0.05529 0.93433,0.259923 2.47478,1.529105 2.47478,1.529105 0,0 -1.59374,-3.684655 -3.11454,-4.866369 -0.17657,-0.137203 -0.3626,-0.26106 -0.55655,-0.373104 1.10451,-0.470692 2.20886,-0.780669 3.56826,-0.525549 1.72772,0.811189 -1.63996,-1.741404 -1.88723,-1.836064 -1.04222,-0.689565 -2.00872,-0.966221 -2.90628,-0.976685 z"
         inkscape:label="shadow"
         transform="matrix(2.1849705,0,0,2.1849705,-151.97869,-84.458411)" /><path
         style="fill:#68c632;fill-opacity:1;stroke:none;stroke-width:0.578106px;stroke-linecap:butt;stroke-linejoin:miter;stroke-opacity:1"
         d="m 95.743979,31.169806 c 1.545299,-0.658508 2.521434,-0.995719 5.014621,-2.432768 4.52356,-3.154134 10.30836,-8.313821 17.97903,-3.238688 0.54027,0.20683 7.89882,5.784345 4.1238,4.011919 -3.73672,-0.701275 -6.59129,0.549653 -9.67439,1.998505 -5.37997,1.380527 -12.88458,2.371908 -17.443061,-0.338968 z"
         id="path14626"
         sodipodi:nodetypes="cccccc" /><path
         id="path14628"
         style="fill:#619d3f;fill-opacity:1;stroke:none;stroke-width:0.578106px;stroke-linecap:butt;stroke-linejoin:miter;stroke-opacity:1"
         d="m 112.38773,23.364148 c -4.64483,-0.05414 -8.44812,3.154581 -11.62874,5.372329 -2.493183,1.437046 -3.470237,1.774735 -5.015535,2.433242 0.296697,0.176436 0.606722,0.33727 0.926995,0.483261 1.776622,-0.309412 3.56172,-0.982837 4.72421,-1.455429 1.5807,-0.642602 6.53223,-4.424904 10.26818,-4.496134 4.13886,-0.0789 7.76353,1.278103 11.73271,3.615075 1.27466,0.647813 -2.79296,-2.669125 -4.65768,-3.818316 -2.27722,-1.50668 -4.389,-2.111165 -6.35014,-2.134028 z"
         sodipodi:nodetypes="scccssccs" /><path
         style="fill:#6ed236;fill-opacity:1;stroke:none;stroke-width:0.578106px;stroke-linecap:butt;stroke-linejoin:miter;stroke-opacity:1"
         d="m 95.440181,31.35209 c 0,0 6.629139,6.03772 11.058509,7.534366 3.53078,1.193017 7.58947,-1.12039 11.18001,-0.121529 2.04148,0.567925 5.40774,3.341856 5.40774,3.341856 0,0 -3.48234,-8.051164 -6.80525,-10.633176 -2.44275,-1.898106 -5.72923,-2.639729 -8.81034,-2.916532 -4.03387,-0.362399 -12.030669,2.795015 -12.030669,2.795015 z"
         id="path14681"
         sodipodi:nodetypes="csscssc" /><path
         style="fill:#ae0007;fill-opacity:1;stroke:none;stroke-width:0.578106px;stroke-linecap:butt;stroke-linejoin:miter;stroke-opacity:1"
         d="m 94.627263,44.464661 c -4.812026,-2.577872 -14.958986,-3.75084 -22.631859,0.228301 -8.875903,5.611793 -11.543009,14.290546 -12.073044,21.052617 -0.673613,8.593806 2.521288,18.610633 9.108476,24.231994 7.372265,6.291343 17.064226,9.168158 26.294284,8.764762 8.92021,-0.389853 19.65134,-5.119934 24.57572,-10.655201 5.44674,-5.95335 8.38028,-17.272891 7.66549,-23.43957 -0.98202,-8.472049 -6.10652,-17.968396 -14.90384,-20.929306 -8.7973,-2.960911 -18.035227,0.746403 -18.035227,0.746403 z"
         id="path555"
         sodipodi:nodetypes="ccssacszc" /><path
         style="fill:url(#radialGradient2672);fill-opacity:1;stroke:none;stroke-width:0.564354px;stroke-linecap:butt;stroke-linejoin:miter;stroke-opacity:1"
         d="M 94.609542,45.173686 C 89.895053,42.66617 79.953744,41.525216 72.436353,45.395758 63.740349,50.854391 61.127295,59.29628 60.608002,65.873795 c -0.65996,8.359263 2.470192,18.102706 8.923869,23.570645 7.222857,6.119637 16.718389,8.917935 25.761392,8.525549 8.739427,-0.379212 19.253067,-4.980199 24.077637,-10.364394 5.33635,-5.790869 8.21044,-16.801468 7.51015,-22.799846 -0.96213,-8.240824 -5.98277,-17.477992 -14.6018,-20.358093 -8.61899,-2.8801 -17.669708,0.726032 -17.669708,0.72603 z"
         id="path2664"
         sodipodi:nodetypes="ccssacszc" /><path
         style="fill:#c32c2f;fill-opacity:0.786469;stroke:none;stroke-width:0.264583px;stroke-linecap:butt;stroke-linejoin:miter;stroke-opacity:1;filter:url(#filter14306)"
         d="m 109.29065,59.698888 c -1.65175,0.314616 0.98977,1.801203 3.10686,2.005692 2.34275,0.226285 4.8644,-0.979433 3.26416,-1.533767 -2.46953,-0.855461 -5.15188,-0.786544 -6.37102,-0.471925 z"
         id="path2674"
         sodipodi:nodetypes="cssc"
         transform="matrix(2.1849705,0,0,2.1849705,-151.97869,-84.458411)" /><path
         id="path4194"
         style="fill:#a4121b;fill-opacity:0.676533;stroke:none;stroke-width:0.578106px;stroke-linecap:butt;stroke-linejoin:miter;stroke-opacity:1"
         d="m 85.718045,46.578749 c -0.447438,1.179202 4.10296,3.420327 7.887984,3.785922 4.40879,0.425843 9.107591,-1.469792 8.092371,-2.777621 -2.526268,1.01909 -4.787843,1.378198 -6.888736,1.230734 -3.240246,-0.227437 -5.644391,-0.624536 -9.091619,-2.239035 z" /><path
         id="path15166"
         style="fill:#6ab73f;fill-opacity:1;stroke:none;stroke-width:0.578106px;stroke-linecap:butt;stroke-linejoin:miter;stroke-opacity:1"
         d="m 106.24195,28.51517 c -4.23381,0.04807 -10.741464,2.776291 -10.741464,2.776291 0,0 0.46931,-0.467228 1.311113,0.367165 2.458223,-0.133437 5.901671,-0.269416 7.986221,-0.124194 3.50434,0.244118 6.71835,0.277238 9.84251,1.883364 2.08441,1.071601 5.02536,3.778797 7.05245,5.779939 -1.31986,-2.574175 -3.39309,-6.155612 -5.41187,-7.724275 -2.44273,-1.898103 -5.72936,-2.639702 -8.81048,-2.916503 -0.37817,-0.03398 -0.79048,-0.04676 -1.22848,-0.04178 z"
         sodipodi:nodetypes="sccsscsss" /><path
         id="path7869"
         style="fill:#853200;fill-opacity:1;stroke:none;stroke-width:0.578106px;stroke-linecap:butt;stroke-linejoin:miter;stroke-opacity:1"
         d="m 94.722724,25.665284 c -0.711273,0.02423 -1.428577,0.360298 -1.955614,1.190088 1.361695,11.982922 0.689467,20.099096 0.261956,23.439293 0.19337,0.02751 0.38663,0.05161 0.576963,0.07001 0.696307,0.06725 1.399583,0.07554 2.086603,0.03839 0.49057,-3.843811 1.513945,-13.2467 1.327851,-23.668505 -0.478487,-0.615204 -1.38324,-1.100423 -2.297759,-1.069272 z" /><path
         id="path14202"
         style="fill:#6e2900;fill-opacity:0.786469;stroke:none;stroke-width:0.578106px;stroke-linecap:butt;stroke-linejoin:miter;stroke-opacity:1"
         d="m 97.022733,26.953604 c -1.780336,5.33364 0.26543,13.927162 -3.453958,23.406551 0.01311,0.0012 0.02491,0.0033 0.03736,0.0046 0.695914,0.06721 1.398819,0.07547 2.085489,0.03839 0.48703,-3.817758 1.499152,-13.116472 1.331215,-23.449458 z" /><path
         id="path14271"
         style="fill:#892f2f;fill-opacity:0.524313;stroke:none;stroke-width:0.264583px;stroke-linecap:butt;stroke-linejoin:miter;stroke-opacity:1;filter:url(#filter14310)"
         d="m 108.78716,59.97205 c -0.20478,0.539688 1.87781,1.565388 3.61011,1.732711 2.01778,0.194896 4.16829,-0.672683 3.70365,-1.27124 -1.1562,0.466409 -2.19126,0.630763 -3.15278,0.563273 -1.48297,-0.104092 -2.58328,-0.285833 -4.16098,-1.024744 z"
         transform="matrix(2.1849705,0,0,2.1849705,-151.97869,-84.458411)" /><path
         id="path14293"
         style="fill:url(#linearGradient14301);fill-opacity:1;stroke:none;stroke-width:0.578106px;stroke-linecap:butt;stroke-linejoin:miter;stroke-opacity:1"
         d="m 118.40593,47.981109 c -0.28822,6.081645 -1.24426,18.082093 -4.37307,22.015481 -6.54803,8.231782 -14.743438,11.631867 -21.995159,12.516239 -10.661083,1.300144 -21.414065,-0.691919 -27.464592,-4.738896 -1.011781,-0.676742 -2.047206,-1.357707 -3.087,-2.032407 1.339424,5.309795 4.057278,10.323394 8.046068,13.702938 7.222857,6.11963 16.717756,8.918331 25.760759,8.525945 8.739424,-0.379213 19.253804,-4.981084 24.078374,-10.365273 5.33635,-5.790864 8.21003,-16.800714 7.50974,-22.799088 -0.70504,-6.038845 -3.59237,-12.609644 -8.47512,-16.824939 z" /><path
         id="path14314"
         style="fill:url(#linearGradient14322);fill-opacity:1;stroke:none;stroke-width:0.578106px;stroke-linecap:butt;stroke-linejoin:miter;stroke-opacity:1"
         d="m 126.63603,70.905527 c -7.31128,13.638977 -17.03265,20.253236 -24.26919,22.66585 -9.129175,3.391573 -23.834398,2.845538 -35.760185,-7.166491 0.883405,1.112604 1.858186,2.13526 2.925522,3.039578 7.222857,6.11963 16.717756,8.918331 25.760759,8.525945 8.739424,-0.379213 19.253804,-4.981084 24.078374,-10.365273 3.81859,-4.143825 6.37526,-10.959364 7.26472,-16.699609 z" /><path
         style="fill:url(#radialGradient14465);fill-opacity:1;stroke:none;stroke-width:0.578106px;stroke-linecap:butt;stroke-linejoin:miter;stroke-opacity:1"
         d="m 75.875125,47.271476 c -4.5457,0.201105 -7.615278,1.247184 -8.141987,10.086329 0.771491,8.735226 12.641016,15.233918 20.537215,15.797863 4.296067,0.292282 16.759947,-3.036645 20.537237,-5.103929 4.1972,-2.297097 8.54018,-8.179243 6.80524,-12.638287 -1.43072,-3.677148 -7.50884,-5.334601 -11.18003,-3.888703 -3.38568,1.333448 -7.653713,0.492258 -10.086328,1.215219 -6.537126,0.102366 -12.168254,-3.593782 -18.471347,-5.468492 z"
         id="path14457"
         sodipodi:nodetypes="cccssscc" /><path
         style="fill:url(#radialGradient14475);fill-opacity:1;stroke:none;stroke-width:0.578106px;stroke-linecap:butt;stroke-linejoin:miter;stroke-opacity:1"
         d="m 97.817057,44.950743 8.506983,-0.859286 c 0,0 5.58402,0.100553 7.3899,1.890439 1.03133,1.022188 1.50676,2.35577 0.77337,3.609021 -0.92632,1.582939 -5.81379,1.523625 -7.6477,1.546723 -4.75264,0.05985 -11.90844,4.365507 -3.0075,-3.86681 1.73609,-1.605678 -6.015053,-2.320087 -6.015053,-2.320087 z"
         id="path14467"
         sodipodi:nodetypes="ccssssc" /><path
         style="fill:url(#radialGradient14479);fill-opacity:1;stroke:none;stroke-width:0.578106px;stroke-linecap:butt;stroke-linejoin:miter;stroke-opacity:1"
         d="m 84.852688,44.005525 c -5.106254,-0.579669 -11.357411,1.069213 -15.123514,4.468315 -1.031306,1.022188 -3.059505,3.70326 -2.234154,4.897956 2.043384,2.957803 8.055353,3.73973 11.514489,4.038665 7.065604,0.610598 19.298336,-2.680675 6.186875,-7.733618 -2.206602,-0.850384 -0.343696,-5.671318 -0.343696,-5.671318 z"
         id="path14477"
         sodipodi:nodetypes="ccsssc" /><path
         style="fill:#fea664;fill-opacity:0.524313;stroke:none;stroke-width:0.578106px;stroke-linecap:butt;stroke-linejoin:miter;stroke-opacity:1"
         d="m 93.009729,26.734248 c 0,0 0.87047,1.315508 3.767195,0.182271 0,0 -1.351492,-2.418922 -3.767195,-0.182271 z"
         id="path14532"
         sodipodi:nodetypes="sss" /></g></g></svg>
