<?xml version="1.0" encoding="UTF-8" standalone="no"?>
<!-- Created with Inkscape (http://www.inkscape.org/) -->

<svg
   width="210mm"
   height="297mm"
   viewBox="0 0 210 297"
   version="1.1"
   id="svg5"
   xml:space="preserve"
   inkscape:version="1.2.1 (9c6d41e410, 2022-07-14)"
   sodipodi:docname="banana.svg"
   xmlns:inkscape="http://www.inkscape.org/namespaces/inkscape"
   xmlns:sodipodi="http://sodipodi.sourceforge.net/DTD/sodipodi-0.dtd"
   xmlns:xlink="http://www.w3.org/1999/xlink"
   xmlns="http://www.w3.org/2000/svg"
   xmlns:svg="http://www.w3.org/2000/svg"><sodipodi:namedview
     id="namedview7"
     pagecolor="#ffffff"
     bordercolor="#666666"
     borderopacity="1.0"
     inkscape:showpageshadow="2"
     inkscape:pageopacity="0.0"
     inkscape:pagecheckerboard="0"
     inkscape:deskcolor="#d1d1d1"
     inkscape:document-units="mm"
     showgrid="false"
     inkscape:zoom="1.1893044"
     inkscape:cx="148.82649"
     inkscape:cy="367.44167"
     inkscape:window-width="2544"
     inkscape:window-height="1361"
     inkscape:window-x="1159"
     inkscape:window-y="49"
     inkscape:window-maximized="0"
     inkscape:current-layer="layer1" /><defs
     id="defs2"><linearGradient
       inkscape:collect="always"
       id="linearGradient2773"><stop
         style="stop-color:#ffffff;stop-opacity:1;"
         offset="0"
         id="stop2769" /><stop
         style="stop-color:#ffffff;stop-opacity:0.22151899;"
         offset="1"
         id="stop2771" /></linearGradient><linearGradient
       inkscape:collect="always"
       id="linearGradient2759"><stop
         style="stop-color:#ffffff;stop-opacity:1;"
         offset="0"
         id="stop2755" /><stop
         style="stop-color:#fffffa;stop-opacity:0.73734176;"
         offset="1"
         id="stop2757" /></linearGradient><linearGradient
       inkscape:collect="always"
       id="linearGradient2710"><stop
         style="stop-color:#936600;stop-opacity:0.25316456;"
         offset="0"
         id="stop2706" /><stop
         style="stop-color:#cbab11;stop-opacity:0.20253164;"
         offset="1"
         id="stop2708" /></linearGradient><linearGradient
       inkscape:collect="always"
       id="linearGradient2688"><stop
         style="stop-color:#ffd712;stop-opacity:0.43987343;"
         offset="0"
         id="stop2684" /><stop
         style="stop-color:#bfa927;stop-opacity:1;"
         offset="1"
         id="stop2686" /></linearGradient><linearGradient
       inkscape:collect="always"
       id="linearGradient551"><stop
         style="stop-color:#fffaba;stop-opacity:1;"
         offset="0"
         id="stop547" /><stop
         style="stop-color:#ffd300;stop-opacity:1;"
         offset="1"
         id="stop549" /></linearGradient><linearGradient
       inkscape:collect="always"
       xlink:href="#linearGradient551"
       id="linearGradient553"
       x1="60.170815"
       y1="188.9285"
       x2="47.271446"
       y2="205.21002"
       gradientUnits="userSpaceOnUse"
       gradientTransform="matrix(-1,0,0,1,108.06005,0)" /><linearGradient
       inkscape:collect="always"
       xlink:href="#linearGradient2688"
       id="linearGradient1164"
       x1="46.720867"
       y1="202.14249"
       x2="41.057735"
       y2="209.45737"
       gradientUnits="userSpaceOnUse"
       gradientTransform="matrix(-1,0,0,1,108.06005,0)" /><linearGradient
       inkscape:collect="always"
       xlink:href="#linearGradient2710"
       id="linearGradient2695"
       x1="42.473518"
       y1="206.9404"
       x2="44.597191"
       y2="204.42346"
       gradientUnits="userSpaceOnUse"
       gradientTransform="matrix(-1,0,0,1,108.06005,0)" /><radialGradient
       inkscape:collect="always"
       xlink:href="#linearGradient2759"
       id="radialGradient2761"
       cx="43.653339"
       cy="190.63542"
       fx="43.653339"
       fy="190.63542"
       r="2.9888765"
       gradientTransform="matrix(0.53281633,-0.29474343,0.9544574,1.7254007,-161.55925,-124.88577)"
       gradientUnits="userSpaceOnUse" /><filter
       inkscape:collect="always"
       style="color-interpolation-filters:sRGB"
       id="filter2763"
       x="-0.066306588"
       y="-0.03625398"
       width="1.1326132"
       height="1.072508"><feGaussianBlur
         inkscape:collect="always"
         stdDeviation="0.16515184"
         id="feGaussianBlur2765" /></filter><radialGradient
       inkscape:collect="always"
       xlink:href="#linearGradient2773"
       id="radialGradient2775"
       cx="70.234245"
       cy="208.97701"
       fx="70.234245"
       fy="208.97701"
       r="2.3394286"
       gradientTransform="matrix(0.73984484,0.38687687,-0.26465176,0.50610738,73.577934,76.040197)"
       gradientUnits="userSpaceOnUse" /><filter
       inkscape:collect="always"
       style="color-interpolation-filters:sRGB"
       id="filter2777"
       x="-0.059559614"
       y="-0.11698404"
       width="1.1191192"
       height="1.2339681"><feGaussianBlur
         inkscape:collect="always"
         stdDeviation="0.13664417"
         id="feGaussianBlur2779" /></filter><filter
       inkscape:collect="always"
       style="color-interpolation-filters:sRGB"
       id="filter2803"
       x="-0.038827506"
       y="-0.22992578"
       width="1.077655"
       height="1.4598516"><feGaussianBlur
         inkscape:collect="always"
         stdDeviation="0.051980276"
         id="feGaussianBlur2805" /></filter><filter
       inkscape:collect="always"
       style="color-interpolation-filters:sRGB"
       id="filter5213"
       x="-0.025137375"
       y="-0.025951585"
       width="1.0502747"
       height="1.0519032"><feGaussianBlur
         inkscape:collect="always"
         stdDeviation="0.42406307"
         id="feGaussianBlur5215" /></filter></defs><g
     inkscape:label="Layer 1"
     inkscape:groupmode="layer"
     id="layer1"><g
       id="g5227"
       transform="matrix(1.6173434,0,0,1.6173434,-28.336992,-263.02874)"
       inkscape:export-filename="g5227.png"
       inkscape:export-xdpi="94.546783"
       inkscape:export-ydpi="94.546783"><path
         style="opacity:1;fill:#000000;fill-opacity:1;stroke:none;stroke-width:0.264583px;stroke-linecap:butt;stroke-linejoin:miter;stroke-opacity:1;filter:url(#filter5213)"
         d="m 44.605029,175.02747 c 1.603177,1.1769 -1.377299,3.83553 -2.169072,5.78419 -1.220104,3.49551 1.776998,8.33095 2.784815,10.01506 1.599593,2.67298 6.629018,7.45725 10.108842,9.39536 5.240459,2.9187 13.40494,5.63326 15.415521,6.67407 1.694181,0.87702 4.303383,3.15563 3.309225,4.81088 -1.15968,1.93084 -3.976634,2.80868 -8.203543,2.30812 -4.226912,-0.50055 -12.618408,-2.07527 -18.019988,-5.22802 -6.1342,-3.58036 -10.222367,-8.5602 -12.041132,-11.67962 -1.468754,-2.51909 -2.669629,-5.83981 -1.585092,-8.67629 1.24679,-3.26083 3.058949,-3.72635 3.893206,-5.1724 0.834261,-1.44605 2.098455,-6.53196 2.83648,-7.56395 0.821451,-0.83733 2.512592,-0.84212 3.670738,-0.6674 z"
         id="path5211"
         sodipodi:nodetypes="ccssssssssscc"
         transform="matrix(-1,0,0,1,108.06005,0)" /><path
         style="fill:url(#linearGradient553);fill-opacity:1;stroke:none;stroke-width:0.264583px;stroke-linecap:butt;stroke-linejoin:miter;stroke-opacity:1"
         d="m 63.455016,175.02747 c -1.603177,1.1769 1.377299,3.83553 2.169072,5.78419 1.220104,3.49551 -1.776998,8.33095 -2.784815,10.01506 -1.599593,2.67298 -6.629018,7.45725 -10.108842,9.39536 -5.240459,2.9187 -13.40494,5.63326 -15.415521,6.67407 -1.694181,0.87702 -4.303383,3.15563 -3.309225,4.81088 1.15968,1.93084 3.976634,2.80868 8.203543,2.30812 4.226912,-0.50055 12.618408,-2.07527 18.019988,-5.22802 6.1342,-3.58036 10.222367,-8.5602 12.041132,-11.67962 1.468754,-2.51909 2.669629,-5.83981 1.585092,-8.67629 -1.24679,-3.26083 -3.058949,-3.72635 -3.893206,-5.1724 -0.834261,-1.44605 -2.098455,-6.53196 -2.83648,-7.56395 -0.821451,-0.83733 -2.512592,-0.84212 -3.670738,-0.6674 z"
         id="path377"
         sodipodi:nodetypes="ccssssssssscc" /><path
         id="path934"
         style="fill:url(#linearGradient1164);fill-opacity:1;stroke:none;stroke-width:0.264583px;stroke-linecap:butt;stroke-linejoin:miter;stroke-opacity:1"
         d="m 64.653909,174.93609 c 0.931071,8.6e-4 1.906937,0.18295 2.471684,0.75861 0.738024,1.03199 2.002259,6.11783 2.836519,7.56388 0.834256,1.44605 2.646514,1.91199 3.893302,5.17281 1.084536,2.83648 -0.116163,6.15687 -1.584916,8.67596 -1.818763,3.11942 -5.906931,8.09955 -12.041125,11.67991 -5.401575,3.15274 -13.793181,4.72755 -18.020089,5.2281 -4.226905,0.50056 -7.043955,-0.37755 -8.203634,-2.30839 -0.363863,-0.60582 -0.24409,-1.29532 0.135909,-1.96887 4.245263,2.8472 9.172879,1.65012 16.736447,-0.20205 7.350775,-2.54956 12.474855,-5.70961 17.225305,-13.52838 3.883922,-6.07158 0.21704,-13.09628 -4.771285,-18.92907 -0.419853,-0.83253 -0.536165,-1.56715 0.12299,-2.05104 0.36192,-0.0546 0.775679,-0.0919 1.198893,-0.0915 z"
         sodipodi:nodetypes="scsssssscccccss" /><path
         id="path2693"
         style="fill:url(#linearGradient2695);fill-opacity:1;stroke:none;stroke-width:0.264583px;stroke-linecap:butt;stroke-linejoin:miter;stroke-opacity:1"
         d="m 65.791824,175.04513 c 0.524905,0.10937 1.00103,0.3104 1.333769,0.64957 0.738024,1.03199 2.002259,6.11783 2.836519,7.56388 0.834256,1.44605 2.646514,1.91199 3.893302,5.17281 1.084536,2.83648 -0.116163,6.15687 -1.584916,8.67596 -1.818763,3.11942 -5.906931,8.09955 -12.041125,11.67991 -5.401575,3.15274 -13.793181,4.72755 -18.020089,5.2281 -3.258321,0.38586 -5.677959,-0.0481 -7.147367,-1.15135 1.547244,0.46413 3.344591,0.78507 4.961971,0.60461 9.217498,-1.0284 16.848555,-2.96783 20.764624,-5.82031 9.426188,-6.86609 11.988148,-12.13875 12.349117,-14.55105 0.517324,-3.4572 -2.54735,-6.87379 -4.09019,-9.4387 -1.367292,-2.27308 -2.703793,-5.95728 -3.255615,-8.61343 z" /><path
         style="opacity:0.712941;fill:url(#radialGradient2761);fill-opacity:1;stroke:none;stroke-width:0.264583px;stroke-linecap:butt;stroke-linejoin:miter;stroke-opacity:1;filter:url(#filter2763)"
         d="m 41.608316,184.52384 c 0,0 0.99166,3.73433 1.887712,5.42717 1.06956,2.02064 4.090041,5.50582 4.090041,5.50582 0,0 -3.496071,-2.34793 -4.561969,-4.326 -1.030707,-1.91277 -1.415784,-6.60699 -1.415784,-6.60699 z"
         id="path2720"
         sodipodi:nodetypes="cscsc"
         transform="matrix(-1,0,0,1,108.06005,0)" /><path
         style="opacity:0.745882;fill:url(#radialGradient2775);fill-opacity:1;stroke:none;stroke-width:0.264583px;stroke-linecap:butt;stroke-linejoin:miter;stroke-opacity:1;filter:url(#filter2777)"
         d="m 69.845337,207.96292 c 0.47193,0 2.560328,0.17693 2.595605,1.17982 0.02433,0.69175 -1.207025,1.44747 -2.280983,0.86521 -0.816848,-0.44287 -2.757659,-1.79246 -3.224843,-2.59561 1.2485,0.30509 2.329729,0.55494 2.910221,0.55058 z"
         id="path2767"
         sodipodi:nodetypes="csscc"
         transform="matrix(-1,0,0,1,108.06005,0)" /><path
         id="path2781"
         style="fill:#bc9626;fill-opacity:1;stroke:none;stroke-width:0.264583px;stroke-linecap:butt;stroke-linejoin:miter;stroke-opacity:1"
         d="m 64.653909,174.93609 c 0.93107,8.6e-4 1.906937,0.18295 2.471684,0.75861 0.01151,0.0161 0.02338,0.0362 0.03514,0.0543 -0.628805,0.14233 -1.289624,0.2732 -1.928048,0.28009 -0.622808,0.007 -1.514654,-0.1464 -2.228805,-0.28681 0.04151,-0.27336 0.179914,-0.51558 0.451136,-0.71468 0.361919,-0.0546 0.775679,-0.0919 1.198893,-0.0915 z" /><path
         id="path2786"
         style="opacity:1;fill:#402d1c;fill-opacity:0.477041;stroke:none;stroke-width:0.16388px;stroke-linecap:butt;stroke-linejoin:miter;stroke-opacity:1;filter:url(#filter2803)"
         d="m 43.308864,175.21138 c -0.719661,4.3e-4 -1.473948,0.0908 -1.910463,0.37653 -0.0089,0.008 -0.01807,0.018 -0.02716,0.0269 0.486028,0.0707 0.996802,0.13561 1.490265,0.13903 0.481393,0.003 1.170736,-0.0727 1.722732,-0.14236 -0.03209,-0.13568 -0.139063,-0.25591 -0.348701,-0.35473 -0.279742,-0.0271 -0.599553,-0.0456 -0.926672,-0.0454 z"
         transform="matrix(-1,0,0,1,108.06005,0)" /><path
         id="path2792"
         style="fill:#8e643f;fill-opacity:1;stroke:none;stroke-width:0.264583px;stroke-linecap:butt;stroke-linejoin:miter;stroke-opacity:1"
         d="m 33.990148,210.03783 c 0.232191,0.24968 0.444978,0.54563 0.544152,0.86299 0.203191,0.65022 0.346452,1.00373 0.10542,1.60249 -0.247785,-0.2412 -0.460069,-0.50663 -0.63407,-0.79634 -0.310019,-0.51617 -0.269281,-1.09314 -0.0155,-1.66914 z" /><path
         id="path2797"
         style="fill:#202020;fill-opacity:0.52551;stroke:none;stroke-width:0.212958px;stroke-linecap:butt;stroke-linejoin:miter;stroke-opacity:1"
         d="m 33.883397,210.37963 c 0.197742,0.19209 0.384078,0.42419 0.484599,0.68213 0.205952,0.52849 0.343161,0.8135 0.203288,1.33026 -0.209098,-0.18392 -0.392719,-0.39056 -0.548725,-0.62017 -0.277958,-0.40909 -0.29058,-0.89358 -0.139157,-1.39222 z" /></g></g></svg>
