<?xml version="1.0" encoding="UTF-8" standalone="no"?>
<!-- Created with Inkscape (http://www.inkscape.org/) -->

<svg
   width="210mm"
   height="297mm"
   viewBox="0 0 210 297"
   version="1.1"
   id="svg5"
   inkscape:version="1.2.1 (9c6d41e410, 2022-07-14)"
   sodipodi:docname="cherry.svg"
   xml:space="preserve"
   xmlns:inkscape="http://www.inkscape.org/namespaces/inkscape"
   xmlns:sodipodi="http://sodipodi.sourceforge.net/DTD/sodipodi-0.dtd"
   xmlns:xlink="http://www.w3.org/1999/xlink"
   xmlns="http://www.w3.org/2000/svg"
   xmlns:svg="http://www.w3.org/2000/svg"><sodipodi:namedview
     id="namedview7"
     pagecolor="#ffffff"
     bordercolor="#666666"
     borderopacity="1.0"
     inkscape:showpageshadow="2"
     inkscape:pageopacity="0.0"
     inkscape:pagecheckerboard="0"
     inkscape:deskcolor="#d1d1d1"
     inkscape:document-units="mm"
     showgrid="false"
     inkscape:zoom="0.84096521"
     inkscape:cx="126.04564"
     inkscape:cy="267.54971"
     inkscape:window-width="1280"
     inkscape:window-height="939"
     inkscape:window-x="1797"
     inkscape:window-y="171"
     inkscape:window-maximized="0"
     inkscape:current-layer="layer1" /><defs
     id="defs2"><linearGradient
       inkscape:collect="always"
       id="linearGradient5021"><stop
         style="stop-color:#460002;stop-opacity:1;"
         offset="0"
         id="stop5017" /><stop
         style="stop-color:#830f0f;stop-opacity:0.17037037;"
         offset="1"
         id="stop5019" /></linearGradient><linearGradient
       inkscape:collect="always"
       id="linearGradient5005"><stop
         style="stop-color:#6f0007;stop-opacity:1;"
         offset="0"
         id="stop5001" /><stop
         style="stop-color:#921f26;stop-opacity:0.15308642;"
         offset="1"
         id="stop5003" /></linearGradient><linearGradient
       inkscape:collect="always"
       id="linearGradient3675"><stop
         style="stop-color:#fc5757;stop-opacity:1;"
         offset="0"
         id="stop3671" /><stop
         style="stop-color:#5f030e;stop-opacity:1;"
         offset="1"
         id="stop3673" /></linearGradient><inkscape:path-effect
       effect="bend_path"
       id="path-effect3563"
       is_visible="true"
       lpeversion="1"
       bendpath="m 98.986888,55.962791 c 1.787652,-0.05281 2.453872,-0.01024 3.500132,0"
       prop_scale="1"
       scale_y_rel="false"
       vertical="false"
       hide_knot="false"
       bendpath-nodetypes="cc" /><linearGradient
       inkscape:collect="always"
       id="linearGradient3555"><stop
         style="stop-color:#800006;stop-opacity:1;"
         offset="0"
         id="stop3551" /><stop
         style="stop-color:#c61717;stop-opacity:1;"
         offset="1"
         id="stop3553" /></linearGradient><linearGradient
       inkscape:collect="always"
       id="linearGradient2754"><stop
         style="stop-color:#fe8380;stop-opacity:1;"
         offset="0"
         id="stop2750" /><stop
         style="stop-color:#ff5050;stop-opacity:0;"
         offset="1"
         id="stop2752" /></linearGradient><linearGradient
       inkscape:collect="always"
       id="linearGradient2707"><stop
         style="stop-color:#fea1a1;stop-opacity:1;"
         offset="0"
         id="stop2703" /><stop
         style="stop-color:#ff2d2d;stop-opacity:0;"
         offset="1"
         id="stop2705" /></linearGradient><linearGradient
       inkscape:collect="always"
       id="linearGradient1224"><stop
         style="stop-color:#5d0c0c;stop-opacity:0;"
         offset="0"
         id="stop1220" /><stop
         style="stop-color:#2c0202;stop-opacity:0.98271596;"
         offset="1"
         id="stop1222" /></linearGradient><linearGradient
       inkscape:collect="always"
       id="linearGradient1216"><stop
         style="stop-color:#380b0b;stop-opacity:0.96790123;"
         offset="0"
         id="stop1212" /><stop
         style="stop-color:#730202;stop-opacity:0;"
         offset="1"
         id="stop1214" /></linearGradient><linearGradient
       inkscape:collect="always"
       id="linearGradient1101"><stop
         style="stop-color:#fc5757;stop-opacity:1;"
         offset="0"
         id="stop1097" /><stop
         style="stop-color:#670008;stop-opacity:1;"
         offset="1"
         id="stop1099" /></linearGradient><radialGradient
       inkscape:collect="always"
       xlink:href="#linearGradient1101"
       id="radialGradient1192"
       cx="97.639908"
       cy="57.587543"
       fx="97.639908"
       fy="57.587543"
       r="7.5353065"
       gradientTransform="matrix(1.0261924,1.0361454,-0.96422532,0.95496324,52.971465,-97.855645)"
       gradientUnits="userSpaceOnUse" /><linearGradient
       inkscape:collect="always"
       xlink:href="#linearGradient1216"
       id="linearGradient1207"
       x1="105.55456"
       y1="67.053108"
       x2="103.43088"
       y2="62.53046"
       gradientUnits="userSpaceOnUse" /><linearGradient
       inkscape:collect="always"
       xlink:href="#linearGradient1224"
       id="linearGradient1226"
       x1="103.58383"
       y1="64.833366"
       x2="104.68935"
       y2="66.799744"
       gradientUnits="userSpaceOnUse" /><radialGradient
       inkscape:collect="always"
       xlink:href="#linearGradient2707"
       id="radialGradient2709"
       cx="97.526436"
       cy="58.971497"
       fx="97.526436"
       fy="58.971497"
       r="3.6510978"
       gradientTransform="matrix(0.99701898,0.69304607,-0.47381698,0.68163508,27.772299,-49.376883)"
       gradientUnits="userSpaceOnUse" /><radialGradient
       inkscape:collect="always"
       xlink:href="#linearGradient2754"
       id="radialGradient2748"
       gradientUnits="userSpaceOnUse"
       gradientTransform="matrix(0.79723402,0.54928838,-0.47113476,0.6954391,47.098441,-36.170751)"
       cx="97.526436"
       cy="58.971497"
       fx="97.526436"
       fy="58.971497"
       r="3.6510978" /><filter
       inkscape:collect="always"
       style="color-interpolation-filters:sRGB"
       id="filter2767"
       x="-0.042221719"
       y="-0.053652869"
       width="1.0844434"
       height="1.1073057"><feGaussianBlur
         inkscape:collect="always"
         stdDeviation="0.12869565"
         id="feGaussianBlur2769" /></filter><radialGradient
       inkscape:collect="always"
       xlink:href="#linearGradient3555"
       id="radialGradient3557"
       cx="100.73695"
       cy="55.962791"
       fx="100.73695"
       fy="55.962791"
       r="1.7500662"
       gradientTransform="matrix(1,0,0,0.42696615,0,32.068574)"
       gradientUnits="userSpaceOnUse" /><filter
       inkscape:collect="always"
       style="color-interpolation-filters:sRGB"
       id="filter3559"
       x="-0.038664531"
       y="-0.21239781"
       width="1.0773291"
       height="1.4247956"><feGaussianBlur
         inkscape:collect="always"
         stdDeviation="0.056387901"
         id="feGaussianBlur3561" /></filter><radialGradient
       inkscape:collect="always"
       xlink:href="#linearGradient3675"
       id="radialGradient3615"
       cx="76.383774"
       cy="56.256405"
       fx="76.383774"
       fy="56.256405"
       r="8.4002075"
       gradientTransform="matrix(0.91895977,1.2067482,-1.0356244,0.78864606,64.664633,-80.095174)"
       gradientUnits="userSpaceOnUse" /><radialGradient
       inkscape:collect="always"
       xlink:href="#linearGradient2707"
       id="radialGradient3619"
       gradientUnits="userSpaceOnUse"
       gradientTransform="matrix(0.99701898,0.69304607,-0.47381698,0.68163508,6.3596599,-51.545956)"
       cx="97.526436"
       cy="58.971497"
       fx="97.526436"
       fy="58.971497"
       r="3.6510978" /><filter
       inkscape:collect="always"
       style="color-interpolation-filters:sRGB"
       id="filter3667"
       x="-0.17634481"
       y="-0.20712312"
       width="1.3526896"
       height="1.4142462"><feGaussianBlur
         inkscape:collect="always"
         stdDeviation="0.53748303"
         id="feGaussianBlur3669" /></filter><linearGradient
       inkscape:collect="always"
       xlink:href="#linearGradient5005"
       id="linearGradient3685"
       x1="84.937454"
       y1="67.463142"
       x2="82.980667"
       y2="64.395615"
       gradientUnits="userSpaceOnUse" /><linearGradient
       inkscape:collect="always"
       xlink:href="#linearGradient5021"
       id="linearGradient5015"
       x1="85.855934"
       y1="66.331451"
       x2="84.239136"
       y2="64.404411"
       gradientUnits="userSpaceOnUse" /><radialGradient
       inkscape:collect="always"
       xlink:href="#linearGradient3555"
       id="radialGradient5028"
       gradientUnits="userSpaceOnUse"
       gradientTransform="matrix(1,0,0,0.42696615,0,32.068574)"
       cx="100.73695"
       cy="55.962791"
       fx="100.73695"
       fy="55.962791"
       r="1.7500662" /><filter
       inkscape:collect="always"
       style="color-interpolation-filters:sRGB"
       id="filter16227"
       x="-0.044408801"
       y="-0.04286294"
       width="1.0888176"
       height="1.0857259"><feGaussianBlur
         inkscape:collect="always"
         stdDeviation="0.74900445"
         id="feGaussianBlur16229" /></filter></defs><g
     inkscape:label="Layer 1"
     inkscape:groupmode="layer"
     id="layer1"><g
       id="g16251"
       transform="matrix(1.6123024,0,0,1.6123024,-71.288227,-16.741563)"
       inkscape:export-filename="g16251.png"
       inkscape:export-xdpi="91.505142"
       inkscape:export-ydpi="91.505142"><path
         id="path16216"
         style="fill:#000000;fill-opacity:1;stroke:none;stroke-width:0.264583px;stroke-linecap:butt;stroke-linejoin:miter;stroke-opacity:1;filter:url(#filter16227)"
         d="m 92.463607,25.028963 c -0.06169,0.978457 -0.268111,3.799061 -0.695048,5.11545 -0.150787,0.464926 -0.310446,0.948662 -0.491443,1.451074 -0.159609,0.159013 -0.238618,0.5309 -0.269751,0.716236 -0.606946,1.543081 -1.468285,3.267218 -2.965194,5.230172 -2.436635,3.195252 -4.484434,6.31098 -5.228104,8.78706 -0.814417,2.711638 -1.234764,5.435263 -1.439189,7.113778 -0.125772,0.02473 -0.203088,0.04237 -0.203088,0.04237 0,0 -3.459149,-1.835543 -5.876128,-0.406693 -2.776853,1.641597 -4.211575,5.064431 -2.710945,9.289872 1.401468,3.946226 7.404113,4.789711 9.609232,4.331002 2.536029,-0.527546 5.823365,-2.330323 6.518982,-6.643522 0.373081,-2.313294 -0.833632,-5.041593 -3.067513,-6.325196 -1.141151,-0.655713 -2.90914,-0.504943 -3.843693,-0.361735 0.34108,-2.170234 1.025815,-6.473048 2.069125,-8.54108 1.242794,-2.463453 2.669523,-4.67211 5.172294,-7.95352 0.584752,-0.766676 1.32673,-1.936689 2.005562,-3.338298 0.597407,0.87799 3.841413,5.649636 4.168221,6.230628 0.500555,0.889875 3.868685,6.357459 4.616256,8.78706 0.582357,1.89264 0.807017,4.760903 0.892967,6.517949 -0.031,0.01658 -0.0481,0.02584 -0.0481,0.02584 0,0 -2.046807,-1.10509 -4.404897,0.03927 -2.674257,1.297801 -3.780684,5.152901 -2.241723,8.258928 0.82728,1.669669 3.71957,3.866009 6.60735,3.539318 2.95289,-0.334056 5.19004,-1.444123 6.72465,-3.382222 1.56387,-1.975041 1.28069,-5.648592 -0.31471,-7.668783 -1.90629,-2.41387 -4.77714,-1.503767 -5.89783,-1.015958 -0.0364,-2.094568 -0.49507,-5.846614 -1.651577,-8.427393 -1.438356,-3.20975 -4.660445,-8.178604 -6.7014,-11.210685 0.508477,0.716471 1.052046,1.412046 1.529106,1.866553 1.612158,1.53594 3.546161,2.797451 5.617228,3.615283 3.172493,1.252769 7.122133,0.113796 10.066573,1.835547 1.10241,0.644627 2.44739,2.947623 2.44739,2.947623 0,0 -0.96248,-6.00801 -2.72541,-8.342643 -2.07019,-2.741545 -4.66335,-4.121554 -8.50956,-4.226615 -2.809912,-0.07675 -6.867778,0.550919 -9.403045,-1.177706 0.765461,-2.01589 1.278177,-4.304201 1.060401,-6.497795 -0.141954,-0.09196 -0.280952,-0.164269 -0.417029,-0.221175 z m -1.148767,7.9375 c 0.174472,0.285603 0.411242,0.664865 0.682129,1.081588 -0.294821,-0.431127 -0.534257,-0.777827 -0.706934,-1.026294 0.0083,-0.01834 0.01651,-0.03688 0.02481,-0.05529 z" /><path
         style="fill:#a4c22f;fill-opacity:1;stroke:none;stroke-width:0.264583px;stroke-linecap:butt;stroke-linejoin:miter;stroke-opacity:1"
         d="m 91.6016,31.590594 c 2.515302,1.923655 6.729734,1.255816 9.62178,1.334813 3.84622,0.105061 6.43925,1.485363 8.50944,4.226911 1.76293,2.334635 2.72525,8.342587 2.72525,8.342587 0,0 -1.34475,-2.303087 -2.44716,-2.947715 -2.94444,-1.721752 -6.89423,-0.582597 -10.066724,-1.835367 -2.071069,-0.817833 -4.00518,-2.079179 -5.61734,-3.615121 -1.385583,-1.320077 -3.337036,-4.671848 -3.337036,-4.671848 0,0 0.140323,-1.194829 0.61179,-0.83426 z"
         id="path7161"
         sodipodi:nodetypes="ssscssscs" /><path
         id="path8129"
         style="fill:#86a040;fill-opacity:1;stroke:none;stroke-width:0.264583px;stroke-linecap:butt;stroke-linejoin:miter;stroke-opacity:1"
         d="m 91.439897,31.52314 c -0.164017,-0.0062 -0.273397,0.200197 -0.343649,0.417029 0.0014,0.01329 0.0022,0.0268 0.0047,0.03979 0.172522,0.900891 2.166518,2.1242 4.282426,2.16886 2.778763,0.05865 5.806136,-0.106608 8.398456,1.001489 2.38567,1.019761 4.52206,2.821975 6.00687,4.949569 0.86947,1.245879 1.84371,3.545826 2.4107,4.975924 0.16116,0.252432 0.2589,0.419095 0.2589,0.419095 0,0 -0.96248,-6.00801 -2.72541,-8.342643 -2.07019,-2.741545 -4.66335,-4.121554 -8.50956,-4.226615 -2.892045,-0.079 -7.106338,0.588851 -9.621637,-1.334802 -0.05893,-0.04507 -0.11279,-0.06586 -0.161747,-0.0677 z" /><path
         style="fill:#ffffff;fill-opacity:1;stroke:none;stroke-width:0.264583px;stroke-linecap:butt;stroke-linejoin:miter;stroke-opacity:1"
         d="m 93.603822,34.816393 c 0,0 4.225307,4.178298 9.065608,5.28364 3.35848,0.766949 -6.507217,1.00111 -9.065608,-5.28364 z"
         id="path16069"
         sodipodi:nodetypes="csc" /><path
         style="fill:url(#radialGradient3615);fill-opacity:1;stroke:none;stroke-width:0.264583px;stroke-linecap:butt;stroke-linejoin:miter;stroke-opacity:1"
         d="m 81.17161,53.485168 c 0,0 -3.459081,-1.835619 -5.876062,-0.406768 -2.776856,1.641599 -4.211423,5.064528 -2.710792,9.289973 1.40147,3.94623 7.404243,4.78949 9.609365,4.33078 2.536031,-0.527546 5.823175,-2.330321 6.518793,-6.643525 0.373081,-2.313296 -0.833648,-5.041348 -3.067531,-6.324952 -1.609322,-0.924728 -4.473773,-0.245512 -4.473773,-0.245512 z"
         id="path369"
         sodipodi:nodetypes="cssssscc" /><path
         style="fill:url(#radialGradient1192);fill-opacity:1;stroke:none;stroke-width:0.264583px;stroke-linecap:butt;stroke-linejoin:miter;stroke-opacity:1"
         d="m 100.67797,55.097589 c 0,0 -2.046573,-1.105035 -4.404665,0.03933 -2.67426,1.297802 -3.780621,5.152709 -2.241659,8.258739 0.827281,1.669671 3.719203,3.866153 6.606984,3.539462 2.95289,-0.334057 5.19037,-1.444051 6.72498,-3.382152 1.56387,-1.975043 1.28078,-5.648635 -0.31462,-7.668828 -2.4119,-3.054107 -6.37102,-0.786548 -6.37102,-0.786548 z"
         id="path473"
         sodipodi:nodetypes="cssssscc" /><path
         id="path1205"
         style="fill:url(#linearGradient1207);fill-opacity:1;stroke:none;stroke-width:0.264583px;stroke-linecap:butt;stroke-linejoin:miter;stroke-opacity:1"
         d="m 106.26948,55.109298 c 0.94599,4.197062 0.0504,6.497488 -4.17562,8.325781 -3.04505,1.317364 -6.717779,-0.633188 -8.483036,-1.114335 0.107816,0.364605 0.247082,0.724572 0.420646,1.07487 0.82728,1.669669 3.71957,3.866009 6.60735,3.539318 2.95289,-0.334056 5.19004,-1.444123 6.72465,-3.382222 1.56387,-1.975041 1.28069,-5.648592 -0.31471,-7.668783 -0.24569,-0.311118 -0.50729,-0.565937 -0.77928,-0.774629 z"
         sodipodi:nodetypes="cscssssc" /><path
         id="path1218"
         style="fill:url(#linearGradient1226);fill-opacity:1;stroke:none;stroke-width:0.264583px;stroke-linecap:butt;stroke-linejoin:miter;stroke-opacity:1"
         d="m 108.22595,58.50599 c -0.32182,4.025222 -1.52411,4.800182 -2.51406,5.597591 -1.72372,1.388478 -3.84995,1.787287 -4.71905,1.966395 -0.59662,0.12295 -2.693218,0.171912 -4.441111,-0.162888 1.189427,0.720742 2.63875,1.191693 4.087091,1.027844 2.95289,-0.334056 5.19004,-1.444123 6.72465,-3.382222 1.00968,-1.275139 1.24867,-3.257629 0.86248,-5.04672 z"
         sodipodi:nodetypes="csscssc" /><path
         id="path2701"
         style="mix-blend-mode:normal;fill:url(#radialGradient2709);fill-opacity:1;stroke:none;stroke-width:0.264583px;stroke-linecap:butt;stroke-linejoin:miter;stroke-opacity:1;filter:url(#filter2767)"
         d="m 97.441597,55.515474 c -0.226342,0.0019 -0.528406,0.05356 -0.932242,0.172083 -0.838982,0.406378 -1.678302,1.363322 -2.045354,2.320272 0.498463,2.702721 1.873795,2.62777 2.949691,3.2644 1.437815,0.0019 2.781078,-0.514721 4.248838,-1.308964 0.0547,-0.532329 0.11979,-1.419402 0.11679,-1.955436 -0.0788,-0.957721 -0.28606,-1.703239 -1.49862,-1.289844 -0.573023,0.127119 -1.459944,0.298872 -1.922879,0.385506 -0.492576,-0.445902 0.174334,-1.597096 -0.916224,-1.588017 z" /><path
         style="opacity:0.776265;mix-blend-mode:normal;fill:url(#radialGradient2748);fill-opacity:1;stroke:none;stroke-width:0.264583px;stroke-linecap:butt;stroke-linejoin:miter;stroke-opacity:1;filter:url(#filter3667)"
         d="m 94.464247,58.007811 c 0.190822,1.994872 1.812125,2.75624 2.888022,3.392871 1.437816,0.0019 2.842451,-0.643312 4.310211,-1.437556 0.0547,-0.53233 0.11965,-1.419278 0.11665,-1.955313 -0.0788,-0.957722 -1.59171,-0.629311 -2.574403,-0.45554 -4.078535,-0.225006 -1.517152,-2.30686 -2.756987,-2.37957 -0.838982,0.406378 -1.493385,1.170305 -1.983493,2.835108 z"
         id="path2746"
         sodipodi:nodetypes="ccccccc"
         transform="matrix(0.11209758,0.6090027,0.76305798,-0.15398197,47.501579,5.5980661)" /><path
         id="path3549"
         style="fill:url(#radialGradient3557);stroke-width:0;stroke-linecap:round;stroke-linejoin:round;paint-order:markers stroke fill;filter:url(#filter3559)"
         class="UnoptimicedTransforms"
         transform="matrix(0.48347283,0.02399171,-0.05575813,0.75739981,55.04205,10.779413)"
         d="m 102.48702,55.962791 c 0,0.195479 -0.80541,0.283212 -1.77194,0.283212 -0.966534,0 -1.728192,-0.08773 -1.728192,-0.283212 0,-0.195479 0.783529,-0.353946 1.750062,-0.353946 0.96654,0 1.75007,0.158467 1.75007,0.353946 z"
         sodipodi:nodetypes="sssss" /><path
         id="path3617"
         style="mix-blend-mode:normal;fill:url(#radialGradient3619);fill-opacity:1;stroke:none;stroke-width:0.264583px;stroke-linecap:butt;stroke-linejoin:miter;stroke-opacity:1;filter:url(#filter2767)"
         d="m 76.028958,53.346401 c -0.226342,0.0019 -0.528406,0.05356 -0.932242,0.172083 -0.838982,0.406378 -1.678302,1.363322 -2.045354,2.320272 0.498463,2.702721 1.873795,2.62777 2.949691,3.2644 1.437815,0.0019 2.781078,-0.514721 4.248838,-1.308964 0.0547,-0.532329 0.11979,-1.419402 0.11679,-1.955436 -0.0788,-0.957721 -0.28606,-1.703239 -1.49862,-1.289844 -0.573023,0.127119 -1.459944,0.298872 -1.922879,0.385506 -0.492576,-0.445902 0.174334,-1.597096 -0.916224,-1.588017 z" /><path
         id="path3677"
         style="fill:url(#linearGradient3685);fill-opacity:1;stroke:none;stroke-width:0.264583px;stroke-linecap:butt;stroke-linejoin:miter;stroke-opacity:1"
         d="m 88.050439,56.291138 c -0.56024,1.746141 -1.111567,3.779396 -2.631439,5.373939 -2.678937,2.810551 -6.764553,3.225264 -10.068044,2.281407 -0.94966,-0.271332 -1.902362,-0.92651 -2.803963,-1.687752 0.01257,0.03651 0.02472,0.07293 0.03772,0.109554 1.401468,3.946226 7.404113,4.789711 9.609232,4.331002 2.536029,-0.527546 5.823365,-2.330323 6.518982,-6.643522 0.198485,-1.230711 -0.04989,-2.579095 -0.662492,-3.764628 z"
         sodipodi:nodetypes="cssccssc" /><path
         id="path5007"
         style="fill:url(#linearGradient5015);fill-opacity:1;stroke:none;stroke-width:0.264583px;stroke-linecap:butt;stroke-linejoin:miter;stroke-opacity:1"
         d="m 88.7212,58.385583 c -0.349191,1.584207 -0.8548,3.395992 -1.492933,4.380612 -1.18249,1.824551 -4.410337,3.785259 -6.371187,3.618383 -1.552428,-0.132117 -4.045849,-0.625039 -5.946924,-1.222147 2.38189,1.545132 5.750636,1.855785 7.283793,1.536857 2.536029,-0.527546 5.823365,-2.330323 6.518982,-6.643522 0.08739,-0.541842 0.08713,-1.106723 0.0083,-1.670183 z" /><path
         id="path5026"
         style="fill:url(#radialGradient5028);stroke-width:0;stroke-linecap:round;stroke-linejoin:round;paint-order:markers stroke fill;filter:url(#filter3559)"
         class="UnoptimicedTransforms"
         transform="matrix(0.63216855,0.08874384,-0.14739904,0.74858917,25.724023,3.4278428)"
         d="m 102.48702,55.962791 c 0,0.195479 -0.80501,0.305746 -1.77154,0.305746 -0.966539,0 -1.728592,-0.110268 -1.728592,-0.305746 0,-0.195479 0.783529,-0.353946 1.750062,-0.353946 0.96654,0 1.75007,0.158467 1.75007,0.353946 z"
         sodipodi:nodetypes="sssss" /><path
         style="fill:#a0b93d;fill-opacity:1;stroke:none;stroke-width:0.264583px;stroke-linecap:butt;stroke-linejoin:miter;stroke-opacity:1"
         d="m 90.155552,25.917635 c 0.05562,1.00111 1.400024,4.64031 -1.056727,8.565055 -2.623602,4.314066 -4.428025,6.254088 -6.006664,9.621783 -1.678868,3.581511 -2.486484,9.830759 -2.486484,9.830759 -0.09832,0.58991 0.490933,0.647573 1.033688,0.438769 0.2478,-1.408287 0.988641,-7.083044 2.231439,-9.546501 1.242798,-2.463457 2.669627,-4.67185 5.172402,-7.953266 1.574825,-2.064771 4.291553,-7.051394 3.837592,-11.624005 -1.404357,-0.90973 -2.558394,3e-6 -2.725246,0.667406 z"
         id="path5817"
         sodipodi:nodetypes="ccscczscc" /><path
         style="fill:#a0b93d;fill-opacity:1;stroke:none;stroke-width:0.264583px;stroke-linecap:butt;stroke-linejoin:miter;stroke-opacity:1"
         d="m 100.13885,55.311348 c 0,0 -0.426524,-5.61832 -1.529477,-8.203544 -1.560167,-3.656895 -5.839809,-9.677398 -8.398205,-13.29252 -0.321284,-0.453988 0.778642,-1.223579 0.778642,-1.223579 0,0 6.323514,8.97071 8.50944,13.848692 1.33225,2.972961 1.73964,7.503983 1.64071,9.260272 0,0 -0.9776,0.288752 -1.00111,-0.389321 z"
         id="path6607"
         sodipodi:nodetypes="ssscscs" /><path
         id="path16136"
         style="fill:#6b8425;fill-opacity:1;stroke:none;stroke-width:0.264583px;stroke-linecap:butt;stroke-linejoin:miter;stroke-opacity:1"
         d="m 92.463607,25.028963 c -0.06169,0.978458 -0.26811,3.799059 -0.695048,5.11545 -0.667408,2.057838 -1.487825,4.461968 -3.726388,7.397482 -2.436638,3.195256 -4.484433,6.310977 -5.228104,8.78706 -1.010167,3.363397 -1.420414,6.774879 -1.554944,8.143689 0.123014,-0.01622 0.252957,-0.0497 0.380338,-0.0987 0.2478,-1.408286 0.988592,-7.082733 2.231389,-9.546187 1.242796,-2.463455 2.669521,-4.672107 5.172294,-7.95352 1.574823,-2.064769 4.291452,-7.05149 3.837492,-11.624097 -0.141954,-0.09196 -0.280952,-0.164269 -0.417029,-0.221175 z" /><path
         id="path16141"
         style="fill:#6b8425;fill-opacity:1;stroke:none;stroke-width:0.264583px;stroke-linecap:butt;stroke-linejoin:miter;stroke-opacity:1"
         d="m 90.989795,32.591809 c 0,0 -0.05416,0.0394 -0.127124,0.09663 l -0.03979,0.515214 c 0,0 4.035406,5.925323 4.394047,6.562907 0.500555,0.889876 3.868684,6.357456 4.616256,8.78706 0.666816,2.167139 0.864866,5.614598 0.922426,7.206796 0.20607,-0.0076 0.38447,-0.05994 0.38447,-0.05994 0.0989,-1.756287 -0.30848,-6.286942 -1.640726,-9.2599 C 97.31343,41.562599 90.989796,32.591809 90.989795,32.591809 Z" /><path
         style="fill:#ffffff;fill-opacity:1;stroke:none;stroke-width:0.264583px;stroke-linecap:butt;stroke-linejoin:miter;stroke-opacity:1"
         d="m 90.711725,26.251339 c 0.509857,2.21494 0.306579,3.733704 -0.278087,6.284748 0,0 1.191342,-2.691301 1.22358,-4.727465 0.02323,-1.467108 -0.945493,-1.557283 -0.945493,-1.557283 z"
         id="path16146"
         sodipodi:nodetypes="ccsc" /></g></g></svg>
