<?xml version="1.0" encoding="UTF-8" standalone="no"?>
<!-- Created with Inkscape (http://www.inkscape.org/) -->

<svg
   width="210mm"
   height="297mm"
   viewBox="0 0 210 297"
   version="1.1"
   id="svg5"
   xml:space="preserve"
   inkscape:version="1.2.1 (9c6d41e410, 2022-07-14)"
   sodipodi:docname="fruit-crate.svg"
   xmlns:inkscape="http://www.inkscape.org/namespaces/inkscape"
   xmlns:sodipodi="http://sodipodi.sourceforge.net/DTD/sodipodi-0.dtd"
   xmlns:xlink="http://www.w3.org/1999/xlink"
   xmlns="http://www.w3.org/2000/svg"
   xmlns:svg="http://www.w3.org/2000/svg"><sodipodi:namedview
     id="namedview7"
     pagecolor="#ffffff"
     bordercolor="#666666"
     borderopacity="1.0"
     inkscape:showpageshadow="2"
     inkscape:pageopacity="0.0"
     inkscape:pagecheckerboard="0"
     inkscape:deskcolor="#d1d1d1"
     inkscape:document-units="mm"
     showgrid="false"
     inkscape:zoom="2"
     inkscape:cx="134"
     inkscape:cy="122.5"
     inkscape:window-width="2560"
     inkscape:window-height="1377"
     inkscape:window-x="1272"
     inkscape:window-y="-8"
     inkscape:window-maximized="1"
     inkscape:current-layer="layer1" /><defs
     id="defs2"><linearGradient
       inkscape:collect="always"
       id="linearGradient18357"><stop
         style="stop-color:#9c6c54;stop-opacity:0.14802632;"
         offset="0"
         id="stop18353" /><stop
         style="stop-color:#50372a;stop-opacity:1;"
         offset="1"
         id="stop18355" /></linearGradient><linearGradient
       inkscape:collect="always"
       id="linearGradient16868"><stop
         style="stop-color:#000000;stop-opacity:0.85197371;"
         offset="0"
         id="stop16864" /><stop
         style="stop-color:#875f3b;stop-opacity:0.07236842;"
         offset="1"
         id="stop16866" /></linearGradient><linearGradient
       inkscape:collect="always"
       id="linearGradient15809"><stop
         style="stop-color:#ffffff;stop-opacity:0.91118413;"
         offset="0"
         id="stop15805" /><stop
         style="stop-color:#c48950;stop-opacity:0.77960527;"
         offset="1"
         id="stop15807" /></linearGradient><filter
       inkscape:collect="always"
       style="color-interpolation-filters:sRGB"
       id="filter15721"
       x="-0.0039709744"
       y="-0.022731801"
       width="1.0079419"
       height="1.0454636"><feGaussianBlur
         inkscape:collect="always"
         stdDeviation="0.061397572"
         id="feGaussianBlur15723" /></filter><linearGradient
       inkscape:collect="always"
       xlink:href="#linearGradient15809"
       id="linearGradient15811"
       x1="100.79402"
       y1="47.398754"
       x2="100.79402"
       y2="47.969696"
       gradientUnits="userSpaceOnUse"
       gradientTransform="translate(0,-1.5643796e-5)" /><filter
       inkscape:collect="always"
       style="color-interpolation-filters:sRGB"
       id="filter16834"
       x="-0.0025905345"
       y="-0.25377998"
       width="1.0051811"
       height="1.50756"><feGaussianBlur
         inkscape:collect="always"
         stdDeviation="0.040053777"
         id="feGaussianBlur16836" /></filter><linearGradient
       inkscape:collect="always"
       xlink:href="#linearGradient16868"
       id="linearGradient16862"
       gradientUnits="userSpaceOnUse"
       gradientTransform="matrix(1.0012604,0,0,-1.1852172,-0.11088589,110.24108)"
       x1="100.79402"
       y1="47.164894"
       x2="100.79402"
       y2="48.156784" /><filter
       inkscape:collect="always"
       style="color-interpolation-filters:sRGB"
       id="filter16878"
       x="-0.0081650051"
       y="-0.67573088"
       width="1.01633"
       height="2.3514618"><feGaussianBlur
         inkscape:collect="always"
         stdDeviation="0.12640306"
         id="feGaussianBlur16880" /></filter><clipPath
       clipPathUnits="userSpaceOnUse"
       id="clipPath16913"><rect
         style="fill:#8fc568;fill-opacity:1;stroke-width:0;stroke-linecap:round;stroke-linejoin:round;stroke-dashoffset:5.21575"
         id="rect16915"
         width="37.107811"
         height="9.1608"
         x="87.973961"
         y="44.767784" /></clipPath><clipPath
       clipPathUnits="userSpaceOnUse"
       id="clipPath16917"><rect
         style="fill:#8fc568;fill-opacity:1;stroke-width:0;stroke-linecap:round;stroke-linejoin:round;stroke-dashoffset:5.21575"
         id="rect16919"
         width="37.107811"
         height="6.4822917"
         x="87.973961"
         y="47.49271" /></clipPath><clipPath
       clipPathUnits="userSpaceOnUse"
       id="clipPath16921"><rect
         style="fill:#8fc568;fill-opacity:1;stroke-width:0;stroke-linecap:round;stroke-linejoin:round;stroke-dashoffset:5.21575"
         id="rect16923"
         width="37.107811"
         height="6.4822917"
         x="87.973961"
         y="47.49271" /></clipPath><clipPath
       clipPathUnits="userSpaceOnUse"
       id="clipPath16925"><rect
         style="fill:#8fc568;fill-opacity:1;stroke-width:0;stroke-linecap:round;stroke-linejoin:round;stroke-dashoffset:5.21575"
         id="rect16927"
         width="37.107811"
         height="6.4822917"
         x="87.973961"
         y="47.49271" /></clipPath><filter
       inkscape:collect="always"
       style="color-interpolation-filters:sRGB"
       id="filter17811"
       x="-0.0042312984"
       y="-0.024222023"
       width="1.0084626"
       height="1.048444"><feGaussianBlur
         inkscape:collect="always"
         stdDeviation="0.065422595"
         id="feGaussianBlur17813" /></filter><linearGradient
       inkscape:collect="always"
       xlink:href="#linearGradient16868"
       id="linearGradient17820"
       gradientUnits="userSpaceOnUse"
       gradientTransform="matrix(1.0012604,0,0,-1.1852172,-0.11088589,110.24108)"
       x1="100.79402"
       y1="47.164894"
       x2="100.79402"
       y2="48.156784" /><linearGradient
       inkscape:collect="always"
       xlink:href="#linearGradient15809"
       id="linearGradient17827"
       gradientUnits="userSpaceOnUse"
       gradientTransform="translate(0,8.4501146)"
       x1="100.79402"
       y1="47.398754"
       x2="100.79402"
       y2="47.969696" /><clipPath
       clipPathUnits="userSpaceOnUse"
       id="clipPath17831"><rect
         style="fill:#9bc568;fill-opacity:1;stroke-width:0;stroke-linecap:round;stroke-linejoin:round;stroke-dashoffset:5.21575"
         id="rect17833"
         width="37.107811"
         height="6.4822917"
         x="87.973961"
         y="55.959377" /></clipPath><clipPath
       clipPathUnits="userSpaceOnUse"
       id="clipPath17835"><rect
         style="fill:#9bc568;fill-opacity:1;stroke-width:0;stroke-linecap:round;stroke-linejoin:round;stroke-dashoffset:5.21575"
         id="rect17837"
         width="37.107811"
         height="9.1608"
         x="87.973961"
         y="44.802116" /></clipPath><clipPath
       clipPathUnits="userSpaceOnUse"
       id="clipPath17839"><rect
         style="fill:#9bc568;fill-opacity:1;stroke-width:0;stroke-linecap:round;stroke-linejoin:round;stroke-dashoffset:5.21575"
         id="rect17841"
         width="37.107811"
         height="6.4822917"
         x="87.973961"
         y="55.959377" /></clipPath><clipPath
       clipPathUnits="userSpaceOnUse"
       id="clipPath17843"><rect
         style="fill:#9bc568;fill-opacity:1;stroke-width:0;stroke-linecap:round;stroke-linejoin:round;stroke-dashoffset:5.21575"
         id="rect17845"
         width="37.107811"
         height="6.4822917"
         x="87.973961"
         y="55.959377" /></clipPath><filter
       inkscape:collect="always"
       style="color-interpolation-filters:sRGB"
       id="filter18060"
       x="-0.005061856"
       y="-0.028976537"
       width="1.0101237"
       height="1.0579531"><feGaussianBlur
         inkscape:collect="always"
         stdDeviation="0.078264333"
         id="feGaussianBlur18062" /></filter><linearGradient
       inkscape:collect="always"
       xlink:href="#linearGradient15809"
       id="linearGradient18069"
       gradientUnits="userSpaceOnUse"
       gradientTransform="translate(0,16.904184)"
       x1="100.79402"
       y1="47.398754"
       x2="100.79402"
       y2="47.969696" /><linearGradient
       inkscape:collect="always"
       xlink:href="#linearGradient16868"
       id="linearGradient18080"
       gradientUnits="userSpaceOnUse"
       gradientTransform="matrix(1.0012604,0,0,-1.1852172,-0.11088589,110.24108)"
       x1="100.79402"
       y1="47.164894"
       x2="100.79402"
       y2="48.156784" /><clipPath
       clipPathUnits="userSpaceOnUse"
       id="clipPath18087"><rect
         style="fill:#81c568;fill-opacity:1;stroke-width:0;stroke-linecap:round;stroke-linejoin:round;stroke-dashoffset:5.21575"
         id="rect18089"
         width="37.107811"
         height="9.1608"
         x="87.973961"
         y="44.778744" /></clipPath><clipPath
       clipPathUnits="userSpaceOnUse"
       id="clipPath18091"><rect
         style="fill:#81c568;fill-opacity:1;stroke-width:0;stroke-linecap:round;stroke-linejoin:round;stroke-dashoffset:5.21575"
         id="rect18093"
         width="37.107811"
         height="6.4822917"
         x="87.973961"
         y="64.426041" /></clipPath><clipPath
       clipPathUnits="userSpaceOnUse"
       id="clipPath18095"><rect
         style="fill:#81c568;fill-opacity:1;stroke-width:0;stroke-linecap:round;stroke-linejoin:round;stroke-dashoffset:5.21575"
         id="rect18097"
         width="37.107811"
         height="6.4822917"
         x="87.973961"
         y="64.426041" /></clipPath><clipPath
       clipPathUnits="userSpaceOnUse"
       id="clipPath18099"><rect
         style="fill:#81c568;fill-opacity:1;stroke-width:0;stroke-linecap:round;stroke-linejoin:round;stroke-dashoffset:5.21575"
         id="rect18101"
         width="37.107811"
         height="6.4822917"
         x="87.973961"
         y="64.426041" /></clipPath><linearGradient
       inkscape:collect="always"
       xlink:href="#linearGradient18357"
       id="linearGradient18359"
       x1="89.313652"
       y1="59.527271"
       x2="89.891212"
       y2="59.527271"
       gradientUnits="userSpaceOnUse"
       gradientTransform="matrix(1.5968602,0,0,1,-53.567757,0)" /><linearGradient
       inkscape:collect="always"
       xlink:href="#linearGradient18357"
       id="linearGradient19056"
       gradientUnits="userSpaceOnUse"
       gradientTransform="matrix(-1.5968602,0,0,1,266.62349,0)"
       x1="89.313652"
       y1="59.527271"
       x2="89.891212"
       y2="59.527271" /><filter
       inkscape:collect="always"
       style="color-interpolation-filters:sRGB"
       id="filter19168"
       x="-0.019996437"
       y="-0.028987084"
       width="1.0399929"
       height="1.0579742"><feGaussianBlur
         inkscape:collect="always"
         stdDeviation="0.30917667"
         id="feGaussianBlur19170" /></filter></defs><g
     inkscape:label="Layer 1"
     inkscape:groupmode="layer"
     id="layer1"
     style="display:inline"><g
       id="g19195"
       transform="matrix(1.1987686,0,0,0.66527211,-94.794701,-23.563977)"
       inkscape:export-filename="g19195.png"
       inkscape:export-xdpi="140.33"
       inkscape:export-ydpi="140.33"><path
         id="rect19143"
         clip-path="none"
         style="display:inline;fill:#000000;fill-opacity:1;stroke-width:0;stroke-linecap:round;stroke-linejoin:round;stroke-dashoffset:5.21575;filter:url(#filter19168)"
         d="m 88.10625,46.83125 v 0.661458 H 87.973958 V 53.975 h 0.132292 v 1.984375 h -0.132292 v 6.482292 h 0.132292 v 1.984375 h -0.132292 v 6.482291 h 0.132292 v 0.79375 h -0.132292 v 0.727604 h 37.107812 v -0.727604 h -0.13229 v -0.79375 h 0.13229 v -6.482291 h -0.13229 v -1.984375 h 0.13229 v -6.482292 h -0.13229 V 53.975 h 0.13229 v -6.482292 h -0.13229 V 46.83125 h -1.85208 v 0.661458 H 89.958333 V 46.83125 Z M 89.958333,53.975 H 123.0974 v 1.984375 H 89.958333 Z m 0,8.466667 H 123.0974 v 1.984375 H 89.958333 Z m 0,8.466666 H 123.0974 v 0.79375 H 89.958333 Z" /><g
         id="g19064"><rect
           style="display:inline;fill:#9c6c54;fill-opacity:1;stroke-width:0;stroke-linecap:round;stroke-linejoin:round;stroke-dashoffset:5.21575"
           id="rect2214"
           width="1.8520832"
           height="24.870832"
           x="88.106255"
           y="46.831249" /><path
           id="rect18230"
           style="fill:url(#linearGradient18359);fill-opacity:1;stroke:none;stroke-width:0.480195;stroke-linecap:round;stroke-linejoin:miter;stroke-dasharray:none;stroke-dashoffset:5.21575;stroke-opacity:1"
           d="m 88.937724,46.83125 v 24.870833 h 1.020609 V 46.83125 Z" /></g><g
         id="g19060"><rect
           style="display:inline;fill:#9c6c54;fill-opacity:1;stroke-width:0;stroke-linecap:round;stroke-linejoin:round;stroke-dashoffset:5.21575"
           id="rect3674"
           width="1.8520832"
           height="24.870832"
           x="123.0974"
           y="46.831249" /><path
           id="path19054"
           style="fill:url(#linearGradient19056);fill-opacity:1;stroke:none;stroke-width:0.480195;stroke-linecap:round;stroke-linejoin:miter;stroke-dasharray:none;stroke-dashoffset:5.21575;stroke-opacity:1"
           d="M 124.11801,46.83125 V 71.702083 H 123.0974 V 46.83125 Z" /></g><rect
         style="display:inline;fill:#c59068;fill-opacity:1;stroke-width:0;stroke-linecap:round;stroke-linejoin:round;stroke-dashoffset:5.21575"
         id="rect3676"
         width="37.107811"
         height="0.72760421"
         x="87.973961"
         y="71.702087" /><g
         id="g16938"
         style="display:inline"><rect
           style="fill:#c59068;fill-opacity:1;stroke-width:0;stroke-linecap:round;stroke-linejoin:round;stroke-dashoffset:5.21575"
           id="rect359"
           width="37.107811"
           height="6.4822917"
           x="87.973961"
           y="47.49271"
           clip-path="url(#clipPath16925)" /><path
           id="path5215"
           style="color:#000000;fill:#ae7951;-inkscape-stroke:none;filter:url(#filter15721)"
           d="m 90.267875,47.492708 c -0.761462,0.200026 -1.522947,0.404325 -2.293917,0.530201 v 0.461987 c 1.004622,0.05159 2.199067,-0.709755 3.204973,-0.697632 0.344096,-0.110579 0.697467,-0.213754 1.053682,-0.294556 z m 4.375444,0 c 0.295238,0.09523 0.582347,0.236134 0.856795,0.434082 2.605928,0.982325 5.423426,0.265571 8.107516,0.760677 1.47886,0.224195 2.98398,0.15038 4.43022,-0.206705 2.003,-0.179167 3.99718,0.212649 5.94692,0.628902 2.0812,-0.243881 4.14018,-1.143205 6.25802,-0.610816 1.5963,0.237413 3.22315,0.559004 4.83898,0.403593 v -0.09715 c -2.14102,-0.06888 -4.22485,-0.765288 -6.36395,-0.789616 -2.02495,0.124157 -4.04357,1.107739 -6.06837,0.430981 -2.21584,-0.46779 -4.53624,-0.57124 -6.73395,0.03721 -2.28629,0.231146 -4.50494,-0.72788 -6.795969,-0.478007 -1.208378,0.0078 -2.455556,-0.10189 -3.597196,-0.513147 z m 18.359081,0 c 0.65084,0.365888 1.36538,0.5976 2.05569,0.502295 0.2648,-0.141956 0.62437,-0.310471 0.97979,-0.502295 h -0.49248 c -0.66777,0.380066 -1.28808,0.274554 -1.87999,0 z m 7.94164,0 c 1.25295,0.669499 2.76342,0.785008 4.13773,0.40566 v -0.40566 h -0.56586 c -0.23571,0.161403 -0.4777,0.314618 -0.73535,0.438733 -0.52648,0.136137 -1.16097,-0.127729 -1.76527,-0.438733 z m -29.060243,1.046448 c -1.262901,0.09419 -2.794756,-0.01293 -3.909839,0.641821 v 0.571542 c 0.387865,-0.347826 0.833384,-0.721303 1.174606,-0.619601 1.636399,-0.418146 3.378963,-0.473409 4.898925,0.364836 1.730383,0.51752 3.559661,-0.648283 5.292184,0.22841 1.980507,0.83777 4.162467,0.123312 6.218227,0.0057 1.58783,-0.210971 3.20036,-0.460104 4.7966,-0.08527 2.0797,0.409857 4.22334,0.736053 6.31693,0.21084 1.69108,-0.162194 3.41294,-1.099642 5.07721,-0.293522 0.90506,0.372524 2.63759,0.63487 3.33313,0.0863 v -0.214457 c -1.54294,0.34277 -3.12852,0.01601 -4.57853,-0.606681 -2.28122,-0.344009 -4.31936,1.36502 -6.61613,0.939477 -2.53682,-0.253474 -5.11632,-1.037529 -7.6507,-0.353983 -2.16835,0.02297 -4.43174,0.774756 -6.539653,0.02119 -0.429426,-0.09255 -1.541214,-0.321605 -1.809192,-0.253214 -1.604631,-0.08295 -3.263371,0.231046 -4.79609,-0.405144 -0.394616,-0.112979 -0.796493,-0.212965 -1.207678,-0.238228 z m 7.81296,0.896586 c 0.2098,0.04522 0.302177,0.06652 -0.03411,-0.01188 0.01136,0.0042 0.02273,0.0078 0.03411,0.01188 z m -9.890869,0.287321 c -0.05048,0.0018 -0.101609,0.006 -0.152962,0.0124 -0.476645,-0.03803 -1.110665,0.159095 -1.678968,0.459404 v 0.442867 c 0.614022,-0.425803 1.303892,-0.689419 2.131653,-0.470256 1.572363,0.671179 3.137608,1.413731 4.925281,1.068669 1.822227,-0.164878 3.640934,-0.607014 5.474598,-0.245463 1.91221,0.265261 4.00929,0.840763 5.86786,0.154513 0.54458,-1.122753 5.31047,0.600278 8.08375,0.328145 2.31056,-0.171413 4.61418,-1.590335 6.94169,-0.768429 0.88901,0.524389 2.52034,0.656995 3.68298,0.441317 v -0.465088 c -0.97165,0.192461 -1.9466,0.429418 -2.9254,0.01395 -1.1893,-0.594769 -2.51527,-0.848837 -3.78065,-0.408761 -2.25795,0.587134 -4.63857,1.174863 -6.94635,0.530717 -1.91981,-0.432018 -3.97232,-0.524794 -5.87509,0.26355 -2.98617,0.734099 -6.0403,-1.12573 -9.030973,-0.382922 -1.535704,0.156615 -3.20264,0.416646 -4.666898,-0.169499 -0.632602,-0.365207 -1.293363,-0.832264 -2.050521,-0.805119 z m 0.335897,1.677934 c -0.461214,0.0022 -0.921429,0.03467 -1.378728,0.104903 l -0.305924,0.107487 c -0.18201,-0.02117 -0.344403,0.04282 -0.483175,0.152446 v 0.872814 c 0.03404,-0.04715 0.06983,-0.09819 0.107487,-0.155546 1.340496,-0.973915 3.026881,-0.606976 4.541842,-0.49661 1.638086,0.370618 3.309187,0.803014 4.997628,0.47749 1.687815,-0.264746 3.433365,-0.439688 5.089615,0.09767 1.82135,0.0065 3.85733,0.926428 5.44979,-0.174667 2.22841,-1.040318 4.5422,0.636819 6.83886,0.136943 1.8093,0.0081 3.86419,-1.10658 5.49217,0.0186 1.46466,0.678572 3.06227,0.251625 4.59042,0.0031 v -0.359151 c -0.39463,0.07597 -0.79835,0.178288 -0.95446,0.235127 -1.70915,0.65072 -3.16405,-0.310912 -4.69481,-0.893485 -1.40997,-0.211464 -2.75811,0.491929 -4.14651,0.670243 -1.96288,0.547149 -3.83057,-0.560081 -5.7795,-0.536918 -1.47782,0.491001 -2.86571,1.392123 -4.50825,0.646989 -1.85394,-0.05222 -3.69566,-0.478467 -5.555214,-0.217558 -1.733144,0.05258 -3.490112,0.4567 -5.188831,-0.09043 -1.337215,-0.339227 -2.728769,-0.60596 -4.11241,-0.599447 z m 1.139982,1.349272 c -0.907905,0.06087 -1.999488,0.718542 -2.870109,1.224731 h 0.417545 c 1.24988,-0.532415 2.513842,-1.090948 3.830774,-0.482658 0.276649,0.180646 0.565704,0.340123 0.86248,0.482658 h 1.065568 c -0.68776,-0.224726 -1.348958,-0.538962 -1.964738,-0.917773 -0.422535,-0.183291 -0.877011,-0.316005 -1.34152,-0.306958 z m 21.413683,0.183968 c -1.02671,-0.0084 -2.05113,0.09776 -3.04426,0.337447 -0.60145,0.214492 -1.23648,0.524656 -1.88361,0.703316 h 1.91668 c 1.05419,-0.624491 2.19849,-0.839942 3.46129,-0.755509 1.36526,0.06225 2.76871,0.191273 4.02146,0.755509 h 0.65009 c -0.41676,-0.118446 -0.82426,-0.274633 -1.21595,-0.479557 -1.26252,-0.349609 -2.58566,-0.550375 -3.9057,-0.561206 z m -10.11205,0.01033 c -0.25757,-0.0021 -0.52043,0.02622 -0.79065,0.09457 -0.6835,0.5698 -1.52822,0.782384 -2.391065,0.93586 h 1.179775 c 0.98598,-0.495817 1.89825,-1.143507 3.00033,-0.561723 0.40802,0.200422 0.83752,0.393294 1.27951,0.561723 h 1.15238 c -0.0749,-0.02743 -0.14956,-0.05848 -0.22427,-0.09509 -1.07404,-0.347765 -2.08984,-0.926209 -3.20601,-0.935343 z m 22.49837,0.378271 c -0.84522,0.158077 -1.68694,0.457696 -2.51923,0.600997 -0.0736,0.01801 -0.14803,0.03439 -0.2222,0.05116 h 1.53014 c 0.13626,-0.04191 0.2717,-0.08511 0.40617,-0.129708 0.18269,-0.06752 0.48092,-0.09093 0.80512,-0.104903 z"
           clip-path="url(#clipPath16921)" /><path
           id="rect15777"
           style="fill:url(#linearGradient15811);fill-opacity:1;stroke:none;stroke-width:0.480093;stroke-linecap:round;stroke-linejoin:miter;stroke-dasharray:none;stroke-dashoffset:5.21575;stroke-opacity:1;filter:url(#filter16834)"
           d="m 87.973958,47.492708 v 0.378789 h 37.107812 v -0.378789 z"
           clip-path="url(#clipPath16917)" /><path
           id="path16860"
           style="mix-blend-mode:normal;fill:url(#linearGradient16862);fill-opacity:1;stroke:none;stroke-width:0;stroke-linecap:round;stroke-linejoin:miter;stroke-dasharray:none;stroke-dashoffset:5.21575;stroke-opacity:1;filter:url(#filter16878)"
           d="m 87.973958,53.951883 v -0.448947 h 37.154582 v 0.448947 z"
           transform="matrix(1,0,0,0.70761198,0,15.814488)"
           clip-path="url(#clipPath16913)" /></g><g
         id="g17851"
         style="display:inline"><rect
           style="fill:#c59068;fill-opacity:1;stroke-width:0;stroke-linecap:round;stroke-linejoin:round;stroke-dashoffset:5.21575"
           id="rect2158"
           width="37.107811"
           height="6.4822917"
           x="87.973961"
           y="55.959377"
           clip-path="url(#clipPath17843)" /><path
           id="path16978"
           style="color:#000000;fill:#ae7951;filter:url(#filter17811)"
           d="m 89.909757,55.959375 c 0.495225,0.09768 1.015104,0.246847 1.571998,0.522449 2.358697,0.67773 4.611089,-0.146664 6.917924,-0.522449 h -2.487704 c -1.233453,0.268982 -2.175888,0.534417 -2.445845,0.58136 -0.990324,0.0024 -1.931715,-0.273531 -2.866492,-0.58136 z m 12.697413,0 c 0.96645,0.179961 1.9252,0.45893 2.69338,0.738456 1.35662,0.261107 2.41947,-0.203131 3.5109,-0.738456 h -0.87902 c -0.16808,0.07735 -0.33609,0.15502 -0.49248,0.22841 -1.33517,0.459181 -2.56305,0.230067 -3.81682,-0.22841 z m 17.67593,0 c 0.98415,0.230622 1.96555,0.458727 2.94555,0.641821 0.41216,0.05417 1.17056,0.165761 1.85312,0.188103 v -0.434083 c -1.09325,-0.0093 -2.16964,-0.1703 -3.23959,-0.395841 z m -5.86838,0.648539 c -3.39912,0.03323 -5.49438,2.390157 -10.04641,1.292945 -3.64607,-0.815674 -6.573645,-0.417529 -9.788553,0.08785 -2.19511,-0.360932 -4.41626,-1.281217 -6.605799,-1.191658 v 0.467672 c 1.048079,0.053 2.110134,-0.207323 3.126941,0.406176 1.823282,0.494101 4.236888,0.930026 6.074565,0.414962 2.909916,-0.346126 5.027276,-0.326489 8.714716,0.496611 3.58055,0.05099 6.90024,-2.221725 10.51977,-1.46296 2.01153,0.113904 3.83969,1.883471 5.90196,1.080554 0.75062,-0.155614 1.72998,-0.219872 2.76986,-0.295072 V 57.44869 c -0.57842,0.07199 -1.15349,0.118784 -1.71411,0.05633 -2.17578,1.022329 -3.83001,0.131101 -5.73401,-0.489892 -1.05547,-0.244416 -2.13607,-0.378513 -3.21893,-0.407211 z m -26.440762,1.528589 v 0.448035 c 1.497862,-0.19254 2.738982,0.892906 4.410067,0.657841 2.639849,-0.0082 5.829089,-0.243178 8.454265,0.159163 2.31532,0.176379 4.20724,0.39394 5.79086,1.035079 2.21965,0.585464 7.26317,-1.533804 7.93492,-1.822111 0.52581,-0.253525 7.17025,1.48901 9.40562,0.576709 0.17026,-0.07536 0.63153,-0.150305 1.11208,-0.244946 v -0.413928 c -2.2048,0.439355 -4.47091,0.782533 -6.65127,0.06046 -1.21561,-0.278347 -2.46514,-0.419568 -3.72071,-0.411861 -1.72531,0.545703 -4.6686,2.264321 -6.53138,1.954402 -0.60325,-0.09431 -1.37188,-0.246449 -2.20813,-0.579809 -3.91151,0.114848 -8.823225,-1.150032 -12.728426,-0.607715 -1.796153,0.05704 -3.495227,-0.750098 -5.267896,-0.811319 z m 10.065536,2.32544 c -0.656021,-0.0088 -1.274391,0.02521 -1.826245,0.0801 -2.25237,0.406891 -5.541502,-0.03136 -8.239291,0.576192 v 0.309542 c 0.79235,-0.305407 1.656684,-0.678279 3.359485,-0.08527 1.158199,-0.705894 2.666187,-0.158005 5.196065,-0.572058 1.830361,-0.08168 3.545952,-0.50024 6.973732,1.671216 h 1.14515 c -0.14352,-0.03778 -0.28725,-0.08526 -0.4315,-0.146761 -1.89859,-1.394659 -4.20933,-1.806709 -6.177396,-1.832963 z m 18.295006,0.450618 c -2.20545,8.67e-4 -4.40515,0.392711 -6.60683,0.465605 -1.10487,0.233455 -2.21478,0.823199 -3.3414,1.063501 h 0.76533 c 1.386,-0.39042 2.77913,-0.928956 4.09432,-0.732772 2.70623,-0.359377 5.46164,-0.602835 8.17366,-0.179834 1.85071,0.05223 3.82573,0.172637 5.66219,-0.207223 v -0.401526 c -2.32696,0.533079 -4.86792,0.233757 -7.2192,0.06305 -0.50968,-0.05017 -1.01912,-0.071 -1.52807,-0.0708 z M 93.813395,61.75592 c -0.05122,8.76e-4 -0.09818,0.004 -0.14056,0.0098 -1.274633,0.181154 -2.560671,0.358377 -3.795634,0.675928 h 0.608232 c 0.509691,-0.183102 1.040039,-0.29409 1.616956,-0.227377 1.362903,-0.166282 2.693155,-0.03708 4.006473,0.227377 h 0.863513 c -1.408239,-0.387123 -2.571628,-0.69579 -3.15898,-0.685747 z m 21.680335,0.232028 c -0.89707,-0.0017 -1.79062,0.0527 -2.67013,0.218591 -0.21526,0.07576 -0.43134,0.154963 -0.6475,0.235128 h 1.32188 c 0.41026,-0.07737 0.82978,-0.106171 1.26401,-0.05168 0.94948,-0.0097 1.90366,0.0028 2.85615,0.05168 h 3.58842 c -0.73941,-0.179188 -1.48576,-0.315924 -2.25723,-0.282154 -1.14335,-0.07375 -2.30224,-0.169351 -3.4556,-0.171565 z"
           clip-path="url(#clipPath17839)" /><path
           id="path17815"
           style="mix-blend-mode:normal;fill:url(#linearGradient17820);fill-opacity:1;stroke:none;stroke-width:0;stroke-linecap:round;stroke-linejoin:miter;stroke-dasharray:none;stroke-dashoffset:5.21575;stroke-opacity:1;filter:url(#filter16878)"
           d="m 87.973958,53.951883 v -0.448947 h 37.154582 v 0.448947 z"
           transform="matrix(1,0,0,0.70761199,0,24.256864)"
           clip-path="url(#clipPath17835)" /><path
           id="path17822"
           style="fill:url(#linearGradient17827);fill-opacity:1;stroke:none;stroke-width:0.480093;stroke-linecap:round;stroke-linejoin:miter;stroke-dasharray:none;stroke-dashoffset:5.21575;stroke-opacity:1;filter:url(#filter16834)"
           d="m 87.973958,55.942838 v 0.378789 h 37.107812 v -0.378789 z"
           clip-path="url(#clipPath17831)" /></g><g
         id="g18107"
         style="display:inline"><rect
           style="fill:#c59068;fill-opacity:1;stroke-width:0;stroke-linecap:round;stroke-linejoin:round;stroke-dashoffset:5.21575"
           id="rect2160"
           width="37.107811"
           height="6.4822917"
           x="87.973961"
           y="64.426041"
           clip-path="url(#clipPath18099)" /><path
           id="path17960"
           style="color:#000000;fill:#ae7951;-inkscape-stroke:none;filter:url(#filter18060)"
           d="m 92.79847,64.426042 c -0.01527,0.01268 -0.03081,0.0233 -0.04599,0.03669 -1.126606,0.963831 -2.884883,0.830878 -4.203878,0.320911 -0.197343,-0.08105 -0.388954,-0.176124 -0.574642,-0.281637 v 0.520898 c 0.907365,0.437159 2.1462,0.485936 3.047876,0.547771 1.392261,-0.134722 2.568188,-1.590974 3.892786,-0.91674 1.759168,2.022639 3.111826,2.275215 4.440556,0.731221 0.292494,-0.409753 0.644358,-0.725545 1.034562,-0.959114 h -0.636137 c -0.891331,0.710092 -1.634743,1.720639 -2.579687,1.522387 -0.332164,-0.08177 -1.157624,-0.990083 -2.109432,-1.522387 z m 11.84269,0 c 0.42411,0.198276 0.82375,0.447643 1.17925,0.740006 1.59609,1.23582 3.70469,0.562696 5.29425,-0.30334 0.34043,-0.183445 0.69258,-0.326768 1.05162,-0.436666 h -0.60978 c -1.42937,0.603451 -2.85921,1.291562 -4.45606,0.962732 -0.54965,-0.320994 -1.12617,-0.664123 -1.72341,-0.962732 z m 11.22257,0 c 0.1271,0.0353 0.25376,0.07281 0.3793,0.114721 1.97663,0.656502 5.15328,1.307147 8.83874,0.96945 v -0.482141 c -1.04836,0.09437 -2.11657,0.303104 -3.20962,0.04599 -1.581,-0.106869 -3.13275,-0.351821 -4.68292,-0.648022 z m -2.44843,0.662492 c -1.80646,0.03272 -3.49055,1.062921 -5.25808,1.346171 -2.10013,-0.03012 -4.15544,-1.581867 -6.24768,-0.657841 -2.024817,1.811308 -4.696433,2.068312 -6.895701,0.782898 -1.379814,-0.991164 -3.367283,-1.199586 -4.915463,-0.500745 -0.753749,0.246519 -1.4305,0.555426 -2.124418,0.797884 v 0.54467 c 1.385873,-0.361288 2.751091,-1.312109 3.207556,-1.387513 1.43896,-0.356816 3.457537,1.074971 5.222421,1.470712 2.003918,0.390911 3.670255,0.04611 5.708695,-1.392163 2.51059,-0.914002 4.96843,1.531836 7.46104,0.405143 1.73328,-0.616339 3.60651,-1.488821 5.45755,-0.765328 1.89053,0.776247 4.64432,1.072854 5.71386,1.374593 0.60419,-0.108036 2.4075,-0.250478 4.33669,-0.350366 v -0.227893 c -3.77488,0.494816 -5.96125,-0.339316 -8.26926,-0.536402 -0.36164,-0.129638 -1.56241,-0.711852 -2.41019,-0.81442 -0.27386,-0.05634 -0.54425,-0.08447 -0.81184,-0.0894 -0.0585,-0.0011 -0.11691,-0.0011 -0.17518,0 z m -10.3849,1.088305 c -3.31097,1.086817 -1.70938,2.17522 0.38344,2.325956 1.7691,-0.186269 4.3554,-0.292498 1.33119,-2.202966 -0.27182,-0.05356 -1.43787,-0.121899 -1.71463,-0.12299 z m 11.25616,0.659908 c -1.99546,0.07872 -3.38753,1.680936 -5.39088,1.123963 -2.17365,-0.155108 -4.14104,1.30083 -6.32055,0.62115 -2.987368,-1.015792 -5.618801,-0.340713 -8.284245,0.268718 -2.12319,-0.126036 -4.260144,-0.721383 -6.316927,-0.143661 v 0.386023 c 1.447594,-0.08046 2.975444,-0.719233 4.381128,-0.12609 1.88601,0.467792 3.539428,-0.005 5.393986,-0.248564 2.102331,-0.195895 4.193658,0.249372 6.251818,0.542603 2.2107,-0.211713 4.48808,-1.604668 6.68073,-0.553455 1.75311,0.238781 2.20902,-2.3521 3.65662,-0.908988 1.05436,0.575077 4.04054,1.617072 5.10253,1.250569 1.62184,-0.792947 3.41955,-0.833476 5.16093,-0.732772 0.15954,-0.0057 0.32112,-0.02305 0.48007,-0.05323 v -0.375171 c -1.70283,0.01747 -3.52851,-0.107006 -5.13095,0.334346 -1.68176,0.664906 -5.27659,0.347973 -5.66426,-1.385445 z m 8.66873,1.751831 c -1.55191,0.0031 -2.81514,0.151222 0.49196,1.084689 1.62582,0.05189 2.38392,-1.152876 0.57619,-1.07177 -0.33626,-0.0069 -0.71002,-0.01362 -1.06815,-0.01292 z m -1.94097,0.689364 c -0.64912,0.48444 -2.10999,1.41059 -3.51348,1.630391 h 1.26194 c 1.02958,-0.54516 2.02975,-1.182838 3.1936,-0.742073 0.31848,0.241648 0.7054,0.506642 1.125,0.742073 h 0.9095 c -1.05978,-0.475116 -1.65032,-1.659731 -2.97656,-1.630391 z m -8.9209,0.281636 c -1.67637,-0.02141 -3.39255,0.51541 -4.89893,1.348755 h 0.72864 c 1.13024,-0.437332 2.19742,-0.877484 3.09852,-0.932243 1.47504,-0.264757 2.79694,0.358069 4.12326,0.932243 h 1.2485 c -0.2608,-0.04903 -0.51032,-0.137051 -0.74104,-0.275952 -1.09571,-0.734715 -2.31627,-1.056935 -3.55895,-1.072803 z m -21.351672,0.03979 c -0.681234,0.01044 -1.346156,0.197687 -1.969389,0.682646 -0.233604,0.0962 -0.477353,0.344615 -0.685746,0.626318 h 0.663009 c 1.095827,-0.986262 2.770314,-1.158258 4.106726,-0.469222 0.288311,0.207981 0.567199,0.360286 0.840258,0.469222 h 2.572453 c 0.469657,-0.129002 0.954176,-0.293836 1.472262,-0.444417 1.20917,-0.327782 2.439109,0.01813 3.648869,0.444417 h 1.42421 c -0.77722,-0.314701 -1.52961,-0.681931 -2.21744,-0.914673 -1.661856,-0.408684 -3.923621,0.94205 -5.957259,0.636137 -1.238014,-0.426058 -2.597414,-1.05035 -3.897953,-1.030428 z"
           clip-path="url(#clipPath18095)" /><path
           id="path18064"
           style="fill:url(#linearGradient18069);fill-opacity:1;stroke:none;stroke-width:0.480093;stroke-linecap:round;stroke-linejoin:miter;stroke-dasharray:none;stroke-dashoffset:5.21575;stroke-opacity:1;filter:url(#filter16834)"
           d="m 87.973958,64.396907 v 0.378789 h 37.107812 v -0.378789 z"
           clip-path="url(#clipPath18091)" /><path
           id="path18075"
           style="mix-blend-mode:normal;fill:url(#linearGradient18080);fill-opacity:1;stroke:none;stroke-width:0;stroke-linecap:round;stroke-linejoin:miter;stroke-dasharray:none;stroke-dashoffset:5.21575;stroke-opacity:1;filter:url(#filter16878)"
           d="m 87.973958,53.951883 v -0.448947 h 37.154582 v 0.448947 z"
           transform="matrix(1,0,0,0.70761199,0,32.740067)"
           clip-path="url(#clipPath18087)" /></g></g></g></svg>
