<?xml version="1.0" encoding="UTF-8" standalone="no"?>
<!-- Created with Inkscape (http://www.inkscape.org/) -->

<svg
   width="210mm"
   height="297mm"
   viewBox="0 0 210 297"
   version="1.1"
   id="svg5"
   xml:space="preserve"
   inkscape:version="1.2.1 (9c6d41e410, 2022-07-14)"
   sodipodi:docname="grape.svg"
   xmlns:inkscape="http://www.inkscape.org/namespaces/inkscape"
   xmlns:sodipodi="http://sodipodi.sourceforge.net/DTD/sodipodi-0.dtd"
   xmlns:xlink="http://www.w3.org/1999/xlink"
   xmlns="http://www.w3.org/2000/svg"
   xmlns:svg="http://www.w3.org/2000/svg"><sodipodi:namedview
     id="namedview7"
     pagecolor="#ffffff"
     bordercolor="#666666"
     borderopacity="1.0"
     inkscape:showpageshadow="2"
     inkscape:pageopacity="0.0"
     inkscape:pagecheckerboard="0"
     inkscape:deskcolor="#d1d1d1"
     inkscape:document-units="mm"
     showgrid="false"
     inkscape:zoom="0.84096521"
     inkscape:cx="78.481249"
     inkscape:cy="382.89337"
     inkscape:window-width="1280"
     inkscape:window-height="979"
     inkscape:window-x="1519"
     inkscape:window-y="206"
     inkscape:window-maximized="0"
     inkscape:current-layer="layer1" /><defs
     id="defs2"><linearGradient
       inkscape:collect="always"
       id="linearGradient28768"><stop
         style="stop-color:#e5f87e;stop-opacity:1;"
         offset="0"
         id="stop28764" /><stop
         style="stop-color:#c7db54;stop-opacity:0.48421052;"
         offset="1"
         id="stop28766" /></linearGradient><linearGradient
       inkscape:collect="always"
       id="linearGradient28754"><stop
         style="stop-color:#dbec5b;stop-opacity:1;"
         offset="0"
         id="stop28750" /><stop
         style="stop-color:#a6b343;stop-opacity:0.48157895;"
         offset="1"
         id="stop28752" /></linearGradient><linearGradient
       inkscape:collect="always"
       id="linearGradient28739"><stop
         style="stop-color:#e3f47e;stop-opacity:1;"
         offset="0"
         id="stop28735" /><stop
         style="stop-color:#a9b847;stop-opacity:0.68157887;"
         offset="1"
         id="stop28737" /></linearGradient><linearGradient
       inkscape:collect="always"
       id="linearGradient8068"><stop
         style="stop-color:#ffffff;stop-opacity:1;"
         offset="0"
         id="stop8064" /><stop
         style="stop-color:#9290d4;stop-opacity:0.7368421;"
         offset="1"
         id="stop8066" /></linearGradient><linearGradient
       inkscape:collect="always"
       id="linearGradient3288"><stop
         style="stop-color:#323271;stop-opacity:1;"
         offset="0"
         id="stop3284" /><stop
         style="stop-color:#171a4a;stop-opacity:1;"
         offset="0.84900081"
         id="stop5451" /><stop
         style="stop-color:#313169;stop-opacity:1;"
         offset="1"
         id="stop3286" /></linearGradient><linearGradient
       inkscape:collect="always"
       id="linearGradient3148"><stop
         style="stop-color:#b5b3ff;stop-opacity:1;"
         offset="0"
         id="stop3144" /><stop
         style="stop-color:#292843;stop-opacity:0.5;"
         offset="1"
         id="stop3146" /></linearGradient><filter
       inkscape:collect="always"
       style="color-interpolation-filters:sRGB"
       id="filter8006"
       x="-0.054215363"
       y="-0.054342379"
       width="1.1084307"
       height="1.1086848"><feGaussianBlur
         inkscape:collect="always"
         stdDeviation="0.21043399"
         id="feGaussianBlur8008" /></filter><filter
       inkscape:collect="always"
       style="color-interpolation-filters:sRGB"
       id="filter13708"
       x="-0.16901617"
       y="-0.18866028"
       width="1.3380323"
       height="1.3773206"><feGaussianBlur
         inkscape:collect="always"
         stdDeviation="0.21212418"
         id="feGaussianBlur13710" /></filter><radialGradient
       inkscape:collect="always"
       xlink:href="#linearGradient3288"
       id="radialGradient13851"
       gradientUnits="userSpaceOnUse"
       gradientTransform="matrix(1,0,0,1.0291344,0,-4.2922069)"
       cx="81.076187"
       cy="147.32449"
       fx="81.076187"
       fy="147.32449"
       r="4.9561033" /><radialGradient
       inkscape:collect="always"
       xlink:href="#linearGradient3148"
       id="radialGradient13853"
       gradientUnits="userSpaceOnUse"
       gradientTransform="matrix(0.76756064,1.0246667,-0.93981874,0.66148187,155.74343,-33.272627)"
       cx="80.488853"
       cy="146.15245"
       fx="80.488853"
       fy="146.15245"
       r="4.9561033" /><radialGradient
       inkscape:collect="always"
       xlink:href="#linearGradient8068"
       id="radialGradient13855"
       gradientUnits="userSpaceOnUse"
       gradientTransform="matrix(0.64911999,1.0728205,-0.97987139,0.45709683,132.73555,13.137956)"
       cx="80.030441"
       cy="145.37218"
       fx="80.030441"
       fy="145.37218"
       r="1.3371292" /><radialGradient
       inkscape:collect="always"
       xlink:href="#linearGradient3288"
       id="radialGradient13865"
       gradientUnits="userSpaceOnUse"
       gradientTransform="matrix(1,0,0,1.0291344,0,-4.2922069)"
       cx="81.076187"
       cy="147.32449"
       fx="81.076187"
       fy="147.32449"
       r="4.9561033" /><radialGradient
       inkscape:collect="always"
       xlink:href="#linearGradient3148"
       id="radialGradient13867"
       gradientUnits="userSpaceOnUse"
       gradientTransform="matrix(0.76756064,1.0246667,-0.93981874,0.66148187,155.74343,-33.272627)"
       cx="80.488853"
       cy="146.15245"
       fx="80.488853"
       fy="146.15245"
       r="4.9561033" /><radialGradient
       inkscape:collect="always"
       xlink:href="#linearGradient8068"
       id="radialGradient13869"
       gradientUnits="userSpaceOnUse"
       gradientTransform="matrix(0.64911999,1.0728205,-0.97987139,0.45709683,132.73555,13.137956)"
       cx="80.030441"
       cy="145.37218"
       fx="80.030441"
       fy="145.37218"
       r="1.3371292" /><radialGradient
       inkscape:collect="always"
       xlink:href="#linearGradient3288"
       id="radialGradient13879"
       gradientUnits="userSpaceOnUse"
       gradientTransform="matrix(1,0,0,1.0291344,0,-4.2922069)"
       cx="81.076187"
       cy="147.32449"
       fx="81.076187"
       fy="147.32449"
       r="4.9561033" /><radialGradient
       inkscape:collect="always"
       xlink:href="#linearGradient3148"
       id="radialGradient13881"
       gradientUnits="userSpaceOnUse"
       gradientTransform="matrix(0.76756064,1.0246667,-0.93981874,0.66148187,155.74343,-33.272627)"
       cx="80.488853"
       cy="146.15245"
       fx="80.488853"
       fy="146.15245"
       r="4.9561033" /><radialGradient
       inkscape:collect="always"
       xlink:href="#linearGradient8068"
       id="radialGradient13883"
       gradientUnits="userSpaceOnUse"
       gradientTransform="matrix(0.64911999,1.0728205,-0.97987139,0.45709683,132.73555,13.137956)"
       cx="80.030441"
       cy="145.37218"
       fx="80.030441"
       fy="145.37218"
       r="1.3371292" /><radialGradient
       inkscape:collect="always"
       xlink:href="#linearGradient3288"
       id="radialGradient14619"
       gradientUnits="userSpaceOnUse"
       gradientTransform="matrix(1,0,0,1.0291344,0,-4.2922069)"
       cx="81.076187"
       cy="147.32449"
       fx="81.076187"
       fy="147.32449"
       r="4.9561033" /><radialGradient
       inkscape:collect="always"
       xlink:href="#linearGradient3148"
       id="radialGradient14621"
       gradientUnits="userSpaceOnUse"
       gradientTransform="matrix(0.76756064,1.0246667,-0.93981874,0.66148187,155.74343,-33.272627)"
       cx="80.488853"
       cy="146.15245"
       fx="80.488853"
       fy="146.15245"
       r="4.9561033" /><radialGradient
       inkscape:collect="always"
       xlink:href="#linearGradient8068"
       id="radialGradient14623"
       gradientUnits="userSpaceOnUse"
       gradientTransform="matrix(0.64911999,1.0728205,-0.97987139,0.45709683,132.73555,13.137956)"
       cx="80.030441"
       cy="145.37218"
       fx="80.030441"
       fy="145.37218"
       r="1.3371292" /><radialGradient
       inkscape:collect="always"
       xlink:href="#linearGradient3288"
       id="radialGradient14633"
       gradientUnits="userSpaceOnUse"
       gradientTransform="matrix(1,0,0,1.0291344,0,-4.2922069)"
       cx="81.076187"
       cy="147.32449"
       fx="81.076187"
       fy="147.32449"
       r="4.9561033" /><radialGradient
       inkscape:collect="always"
       xlink:href="#linearGradient3148"
       id="radialGradient14635"
       gradientUnits="userSpaceOnUse"
       gradientTransform="matrix(0.76756064,1.0246667,-0.93981874,0.66148187,155.74343,-33.272627)"
       cx="80.488853"
       cy="146.15245"
       fx="80.488853"
       fy="146.15245"
       r="4.9561033" /><radialGradient
       inkscape:collect="always"
       xlink:href="#linearGradient8068"
       id="radialGradient14637"
       gradientUnits="userSpaceOnUse"
       gradientTransform="matrix(0.64911999,1.0728205,-0.97987139,0.45709683,132.73555,13.137956)"
       cx="80.030441"
       cy="145.37218"
       fx="80.030441"
       fy="145.37218"
       r="1.3371292" /><radialGradient
       inkscape:collect="always"
       xlink:href="#linearGradient3288"
       id="radialGradient14647"
       gradientUnits="userSpaceOnUse"
       gradientTransform="matrix(1,0,0,1.0291344,0,-4.2922069)"
       cx="81.076187"
       cy="147.32449"
       fx="81.076187"
       fy="147.32449"
       r="4.9561033" /><radialGradient
       inkscape:collect="always"
       xlink:href="#linearGradient3148"
       id="radialGradient14649"
       gradientUnits="userSpaceOnUse"
       gradientTransform="matrix(0.76756064,1.0246667,-0.93981874,0.66148187,155.74343,-33.272627)"
       cx="80.488853"
       cy="146.15245"
       fx="80.488853"
       fy="146.15245"
       r="4.9561033" /><radialGradient
       inkscape:collect="always"
       xlink:href="#linearGradient8068"
       id="radialGradient14651"
       gradientUnits="userSpaceOnUse"
       gradientTransform="matrix(0.64911999,1.0728205,-0.97987139,0.45709683,132.73555,13.137956)"
       cx="80.030441"
       cy="145.37218"
       fx="80.030441"
       fy="145.37218"
       r="1.3371292" /><radialGradient
       inkscape:collect="always"
       xlink:href="#linearGradient3288"
       id="radialGradient14661"
       gradientUnits="userSpaceOnUse"
       gradientTransform="matrix(1,0,0,1.0291344,0,-4.2922069)"
       cx="81.076187"
       cy="147.32449"
       fx="81.076187"
       fy="147.32449"
       r="4.9561033" /><radialGradient
       inkscape:collect="always"
       xlink:href="#linearGradient3148"
       id="radialGradient14663"
       gradientUnits="userSpaceOnUse"
       gradientTransform="matrix(0.76756064,1.0246667,-0.93981874,0.66148187,155.74343,-33.272627)"
       cx="80.488853"
       cy="146.15245"
       fx="80.488853"
       fy="146.15245"
       r="4.9561033" /><radialGradient
       inkscape:collect="always"
       xlink:href="#linearGradient8068"
       id="radialGradient14665"
       gradientUnits="userSpaceOnUse"
       gradientTransform="matrix(0.64911999,1.0728205,-0.97987139,0.45709683,132.73555,13.137956)"
       cx="80.030441"
       cy="145.37218"
       fx="80.030441"
       fy="145.37218"
       r="1.3371292" /><radialGradient
       inkscape:collect="always"
       xlink:href="#linearGradient3288"
       id="radialGradient14675"
       gradientUnits="userSpaceOnUse"
       gradientTransform="matrix(1,0,0,1.0291344,0,-4.2922069)"
       cx="81.076187"
       cy="147.32449"
       fx="81.076187"
       fy="147.32449"
       r="4.9561033" /><radialGradient
       inkscape:collect="always"
       xlink:href="#linearGradient3148"
       id="radialGradient14677"
       gradientUnits="userSpaceOnUse"
       gradientTransform="matrix(0.76756064,1.0246667,-0.93981874,0.66148187,155.74343,-33.272627)"
       cx="80.488853"
       cy="146.15245"
       fx="80.488853"
       fy="146.15245"
       r="4.9561033" /><radialGradient
       inkscape:collect="always"
       xlink:href="#linearGradient8068"
       id="radialGradient14679"
       gradientUnits="userSpaceOnUse"
       gradientTransform="matrix(0.64911999,1.0728205,-0.97987139,0.45709683,132.73555,13.137956)"
       cx="80.030441"
       cy="145.37218"
       fx="80.030441"
       fy="145.37218"
       r="1.3371292" /><radialGradient
       inkscape:collect="always"
       xlink:href="#linearGradient3288"
       id="radialGradient14689"
       gradientUnits="userSpaceOnUse"
       gradientTransform="matrix(1,0,0,1.0291344,0,-4.2922069)"
       cx="81.076187"
       cy="147.32449"
       fx="81.076187"
       fy="147.32449"
       r="4.9561033" /><radialGradient
       inkscape:collect="always"
       xlink:href="#linearGradient3148"
       id="radialGradient14691"
       gradientUnits="userSpaceOnUse"
       gradientTransform="matrix(0.76756064,1.0246667,-0.93981874,0.66148187,155.74343,-33.272627)"
       cx="80.488853"
       cy="146.15245"
       fx="80.488853"
       fy="146.15245"
       r="4.9561033" /><radialGradient
       inkscape:collect="always"
       xlink:href="#linearGradient8068"
       id="radialGradient14693"
       gradientUnits="userSpaceOnUse"
       gradientTransform="matrix(0.64911999,1.0728205,-0.97987139,0.45709683,132.73555,13.137956)"
       cx="80.030441"
       cy="145.37218"
       fx="80.030441"
       fy="145.37218"
       r="1.3371292" /><radialGradient
       inkscape:collect="always"
       xlink:href="#linearGradient3288"
       id="radialGradient14703"
       gradientUnits="userSpaceOnUse"
       gradientTransform="matrix(1,0,0,1.0291344,0,-4.2922069)"
       cx="81.076187"
       cy="147.32449"
       fx="81.076187"
       fy="147.32449"
       r="4.9561033" /><radialGradient
       inkscape:collect="always"
       xlink:href="#linearGradient3148"
       id="radialGradient14705"
       gradientUnits="userSpaceOnUse"
       gradientTransform="matrix(0.76756064,1.0246667,-0.93981874,0.66148187,155.74343,-33.272627)"
       cx="80.488853"
       cy="146.15245"
       fx="80.488853"
       fy="146.15245"
       r="4.9561033" /><radialGradient
       inkscape:collect="always"
       xlink:href="#linearGradient8068"
       id="radialGradient14707"
       gradientUnits="userSpaceOnUse"
       gradientTransform="matrix(0.64911999,1.0728205,-0.97987139,0.45709683,132.73555,13.137956)"
       cx="80.030441"
       cy="145.37218"
       fx="80.030441"
       fy="145.37218"
       r="1.3371292" /><radialGradient
       inkscape:collect="always"
       xlink:href="#linearGradient3288"
       id="radialGradient14717"
       gradientUnits="userSpaceOnUse"
       gradientTransform="matrix(1,0,0,1.0291344,0,-4.2922069)"
       cx="81.076187"
       cy="147.32449"
       fx="81.076187"
       fy="147.32449"
       r="4.9561033" /><radialGradient
       inkscape:collect="always"
       xlink:href="#linearGradient3148"
       id="radialGradient14719"
       gradientUnits="userSpaceOnUse"
       gradientTransform="matrix(0.76756064,1.0246667,-0.93981874,0.66148187,155.74343,-33.272627)"
       cx="80.488853"
       cy="146.15245"
       fx="80.488853"
       fy="146.15245"
       r="4.9561033" /><radialGradient
       inkscape:collect="always"
       xlink:href="#linearGradient8068"
       id="radialGradient14721"
       gradientUnits="userSpaceOnUse"
       gradientTransform="matrix(0.64911999,1.0728205,-0.97987139,0.45709683,132.73555,13.137956)"
       cx="80.030441"
       cy="145.37218"
       fx="80.030441"
       fy="145.37218"
       r="1.3371292" /><radialGradient
       inkscape:collect="always"
       xlink:href="#linearGradient3288"
       id="radialGradient14731"
       gradientUnits="userSpaceOnUse"
       gradientTransform="matrix(1,0,0,1.0291344,0,-4.2922069)"
       cx="81.076187"
       cy="147.32449"
       fx="81.076187"
       fy="147.32449"
       r="4.9561033" /><radialGradient
       inkscape:collect="always"
       xlink:href="#linearGradient3148"
       id="radialGradient14733"
       gradientUnits="userSpaceOnUse"
       gradientTransform="matrix(0.76756064,1.0246667,-0.93981874,0.66148187,155.74343,-33.272627)"
       cx="80.488853"
       cy="146.15245"
       fx="80.488853"
       fy="146.15245"
       r="4.9561033" /><radialGradient
       inkscape:collect="always"
       xlink:href="#linearGradient8068"
       id="radialGradient14735"
       gradientUnits="userSpaceOnUse"
       gradientTransform="matrix(0.64911999,1.0728205,-0.97987139,0.45709683,132.73555,13.137956)"
       cx="80.030441"
       cy="145.37218"
       fx="80.030441"
       fy="145.37218"
       r="1.3371292" /><radialGradient
       inkscape:collect="always"
       xlink:href="#linearGradient3288"
       id="radialGradient14745"
       gradientUnits="userSpaceOnUse"
       gradientTransform="matrix(1,0,0,1.0291344,0,-4.2922069)"
       cx="81.076187"
       cy="147.32449"
       fx="81.076187"
       fy="147.32449"
       r="4.9561033" /><radialGradient
       inkscape:collect="always"
       xlink:href="#linearGradient3148"
       id="radialGradient14747"
       gradientUnits="userSpaceOnUse"
       gradientTransform="matrix(0.76756064,1.0246667,-0.93981874,0.66148187,155.74343,-33.272627)"
       cx="80.488853"
       cy="146.15245"
       fx="80.488853"
       fy="146.15245"
       r="4.9561033" /><radialGradient
       inkscape:collect="always"
       xlink:href="#linearGradient8068"
       id="radialGradient14749"
       gradientUnits="userSpaceOnUse"
       gradientTransform="matrix(0.64911999,1.0728205,-0.97987139,0.45709683,132.73555,13.137956)"
       cx="80.030441"
       cy="145.37218"
       fx="80.030441"
       fy="145.37218"
       r="1.3371292" /><radialGradient
       inkscape:collect="always"
       xlink:href="#linearGradient3288"
       id="radialGradient14759"
       gradientUnits="userSpaceOnUse"
       gradientTransform="matrix(1,0,0,1.0291344,0,-4.2922069)"
       cx="81.076187"
       cy="147.32449"
       fx="81.076187"
       fy="147.32449"
       r="4.9561033" /><radialGradient
       inkscape:collect="always"
       xlink:href="#linearGradient3148"
       id="radialGradient14761"
       gradientUnits="userSpaceOnUse"
       gradientTransform="matrix(0.76756064,1.0246667,-0.93981874,0.66148187,155.74343,-33.272627)"
       cx="80.488853"
       cy="146.15245"
       fx="80.488853"
       fy="146.15245"
       r="4.9561033" /><radialGradient
       inkscape:collect="always"
       xlink:href="#linearGradient8068"
       id="radialGradient14763"
       gradientUnits="userSpaceOnUse"
       gradientTransform="matrix(0.64911999,1.0728205,-0.97987139,0.45709683,132.73555,13.137956)"
       cx="80.030441"
       cy="145.37218"
       fx="80.030441"
       fy="145.37218"
       r="1.3371292" /><radialGradient
       inkscape:collect="always"
       xlink:href="#linearGradient3288"
       id="radialGradient14773"
       gradientUnits="userSpaceOnUse"
       gradientTransform="matrix(1,0,0,1.0291344,0,-4.2922069)"
       cx="81.076187"
       cy="147.32449"
       fx="81.076187"
       fy="147.32449"
       r="4.9561033" /><radialGradient
       inkscape:collect="always"
       xlink:href="#linearGradient3148"
       id="radialGradient14775"
       gradientUnits="userSpaceOnUse"
       gradientTransform="matrix(0.76756064,1.0246667,-0.93981874,0.66148187,155.74343,-33.272627)"
       cx="80.488853"
       cy="146.15245"
       fx="80.488853"
       fy="146.15245"
       r="4.9561033" /><radialGradient
       inkscape:collect="always"
       xlink:href="#linearGradient8068"
       id="radialGradient14777"
       gradientUnits="userSpaceOnUse"
       gradientTransform="matrix(0.64911999,1.0728205,-0.97987139,0.45709683,132.73555,13.137956)"
       cx="80.030441"
       cy="145.37218"
       fx="80.030441"
       fy="145.37218"
       r="1.3371292" /><radialGradient
       inkscape:collect="always"
       xlink:href="#linearGradient3288"
       id="radialGradient14787"
       gradientUnits="userSpaceOnUse"
       gradientTransform="matrix(1,0,0,1.0291344,0,-4.2922069)"
       cx="81.076187"
       cy="147.32449"
       fx="81.076187"
       fy="147.32449"
       r="4.9561033" /><radialGradient
       inkscape:collect="always"
       xlink:href="#linearGradient3148"
       id="radialGradient14789"
       gradientUnits="userSpaceOnUse"
       gradientTransform="matrix(0.76756064,1.0246667,-0.93981874,0.66148187,155.74343,-33.272627)"
       cx="80.488853"
       cy="146.15245"
       fx="80.488853"
       fy="146.15245"
       r="4.9561033" /><radialGradient
       inkscape:collect="always"
       xlink:href="#linearGradient8068"
       id="radialGradient14791"
       gradientUnits="userSpaceOnUse"
       gradientTransform="matrix(0.64911999,1.0728205,-0.97987139,0.45709683,132.73555,13.137956)"
       cx="80.030441"
       cy="145.37218"
       fx="80.030441"
       fy="145.37218"
       r="1.3371292" /><radialGradient
       inkscape:collect="always"
       xlink:href="#linearGradient28754"
       id="radialGradient28741"
       cx="121.44467"
       cy="112.29102"
       fx="121.44467"
       fy="112.29102"
       r="12.430856"
       gradientTransform="matrix(0.70964582,-0.00786504,0.00879051,0.79314839,-64.574579,26.300843)"
       gradientUnits="userSpaceOnUse" /><radialGradient
       inkscape:collect="always"
       xlink:href="#linearGradient28739"
       id="radialGradient28745"
       gradientUnits="userSpaceOnUse"
       gradientTransform="matrix(0.70964582,-0.00786504,0.00879051,0.79314839,-64.574579,26.300843)"
       cx="121.44467"
       cy="112.29102"
       fx="121.44467"
       fy="112.29102"
       r="12.430856" /><radialGradient
       inkscape:collect="always"
       xlink:href="#linearGradient28768"
       id="radialGradient28758"
       gradientUnits="userSpaceOnUse"
       gradientTransform="matrix(0.50401502,0.00242817,-0.00272382,0.56538431,-38.308858,50.626649)"
       cx="121.13408"
       cy="112.5706"
       fx="121.13408"
       fy="112.5706"
       r="12.430856" /><radialGradient
       inkscape:collect="always"
       xlink:href="#linearGradient28754"
       id="radialGradient29364"
       cx="39.727131"
       cy="114.25366"
       fx="39.727131"
       fy="114.25366"
       r="5.1027708"
       gradientTransform="matrix(1,0,0,0.99421373,0,0.66110226)"
       gradientUnits="userSpaceOnUse" /><radialGradient
       inkscape:collect="always"
       xlink:href="#linearGradient28739"
       id="radialGradient29369"
       gradientUnits="userSpaceOnUse"
       gradientTransform="matrix(1,0,0,0.99421373,0,0.66110226)"
       cx="39.727131"
       cy="114.25366"
       fx="39.727131"
       fy="114.25366"
       r="5.1027708" /><radialGradient
       inkscape:collect="always"
       xlink:href="#linearGradient28768"
       id="radialGradient29376"
       gradientUnits="userSpaceOnUse"
       gradientTransform="matrix(1,0,0,0.99421373,0,0.66110226)"
       cx="39.727131"
       cy="114.25366"
       fx="39.727131"
       fy="114.25366"
       r="5.1027708" /><filter
       inkscape:collect="always"
       style="color-interpolation-filters:sRGB"
       id="filter29852"
       x="-0.029416016"
       y="-0.021124417"
       width="1.058832"
       height="1.0422488"><feGaussianBlur
         inkscape:collect="always"
         stdDeviation="0.45461564"
         id="feGaussianBlur29854" /></filter></defs><g
     inkscape:label="Layer 1"
     inkscape:groupmode="layer"
     id="layer1"><g
       id="g29935"
       transform="matrix(1.7422426,0,0,1.7422426,9.2811606,-153.11565)"
       inkscape:export-filename="g29935.png"
       inkscape:export-xdpi="95.031204"
       inkscape:export-ydpi="95.031204"><path
         id="path29539"
         style="opacity:1;mix-blend-mode:normal;fill:#000000;fill-opacity:1;stroke:none;stroke-width:0.264583px;stroke-linecap:butt;stroke-linejoin:miter;stroke-opacity:1;filter:url(#filter29852)"
         d="m 32.875754,97.158367 c -0.0929,-4.67e-4 -0.190868,0.0033 -0.291455,0.0088 v -5.17e-4 c -0.07223,0.004 -0.146072,0.0099 -0.221175,0.01654 -0.03599,0.0032 -0.07252,0.0071 -0.109038,0.01085 -0.05451,0.0056 -0.109417,0.01176 -0.164847,0.0186 -0.02726,0.0034 -0.05423,0.0067 -0.08165,0.01033 -0.0887,0.01178 -0.177989,0.02429 -0.267684,0.03876 -0.16714,0.707889 -0.437909,2.188916 -0.485758,2.690276 -0.0809,0.848044 -0.07535,3.204724 -0.07855,4.067454 -0.0053,1.39296 -0.344233,2.92445 -0.764294,3.69538 -0.06001,0.11014 -0.121915,0.20465 -0.184485,0.28112 -0.03128,0.0382 -0.06947,0.0817 -0.114205,0.12971 -0.04344,0.0467 -0.09272,0.0978 -0.147278,0.15245 -0.0019,0.002 -0.0033,0.003 -0.0052,0.005 -0.0062,0.006 -0.01384,0.0134 -0.02015,0.0196 -0.0514,0.0511 -0.105505,0.10389 -0.164848,0.16071 -0.06268,0.06 -0.128772,0.12276 -0.198954,0.18811 -0.0048,0.005 -0.0091,0.008 -0.01395,0.0129 -0.0017,0.002 -0.0034,0.004 -0.0052,0.005 -0.148696,0.13817 -0.311983,0.28584 -0.483691,0.43977 -0.02279,0.0204 -0.04773,0.0419 -0.0708,0.0625 -0.654261,0.58461 -1.40505,1.23106 -1.92288,1.68723 -0.0069,0.006 -0.01536,0.0136 -0.02222,0.0196 -0.03533,0.0311 -0.06532,0.0577 -0.09819,0.0868 -0.09202,0.0817 -0.177732,0.15773 -0.247013,0.22117 -0.01084,0.01 -0.02803,0.0252 -0.03824,0.0346 -0.246914,0.22792 -0.528994,0.52745 -0.817004,0.86713 -0.119098,-0.48731 -0.02704,-1.06975 0.03669,-1.59939 0.10088,-0.83835 0.812482,-1.50914 0.943612,-2.33991 0.14547,-0.92164 0.118329,-1.91421 -0.196371,-2.79259 -0.206109,-0.57528 -1.06195,-1.49448 -1.06195,-1.49448 -0.51012,0.50664 -0.551226,0.98115 -0.786516,0.15761 -0.876579,0.9189 -1.767902,-1.23363 -2.320271,-1.92702 -0.50379,2.67549 -0.741558,0.55508 -2.674256,-0.23616 0.16559,1.67061 -0.608334,0.99017 -2.005562,0.82579 0.458619,2.45236 0.13079,1.7556 -2.084627,1.45521 0.151559,1.20313 -0.09448,0.95204 -1.140499,0.70797 0.285869,1.34303 -1.167093,0.699 -2.123902,0.62942 1.026209,1.58619 2.178916,1.69085 -0.117822,1.69085 1.247169,2.02108 -1.110362,0.38991 -1.769401,1.69085 0.661899,0.66961 1.213787,0.752 0.07855,0.86558 -0.0225,0.7092 -0.443993,0.86602 -0.9834018,1.25832 1.0462788,0.7095 0.4331988,1.02371 -0.196371,1.92702 0.32677,0.77939 -0.0019,0.71498 -0.4521683,1.35702 1.2119681,0.40376 2.3188221,0.77364 3.3424311,1.51412 -1.151089,1.0108 -1.338713,1.89852 -1.868103,2.81172 2.508478,-0.17336 1.544562,0.81606 0.668693,2.1239 1.655049,-0.17356 0.642778,0.78603 0.393258,1.23868 l 0.825789,0.11782 -0.51108,1.02268 c 0.1365,0.9651 -0.31342,1.44316 -0.825789,2.45773 0.936779,-0.50326 1.751092,-0.60696 2.77244,-0.58963 0.7976,-0.69135 0.888416,-0.0712 0.786516,0.58963 0.432599,-0.31462 1.160136,-0.53072 1.160136,-0.53072 0.531389,0.27722 0.328843,0.46972 0.157613,0.98341 0.614909,-0.023 1.030424,-0.36516 1.553393,-0.64906 0.891149,0.20862 -0.02365,0.78539 0.412895,1.73013 0.335301,-0.057 0.680876,-0.12351 1.030945,-0.19431 a 4.9561033,5.1004963 0 0 0 1.352889,1.65675 4.9561033,5.1004963 0 0 0 -0.482658,2.19418 4.9561033,5.1004963 0 0 0 3.702616,4.93097 4.7291064,4.8668861 0 0 0 -1.385445,3.437 4.7291064,4.8668861 0 0 0 4.729427,4.86688 4.7291064,4.8668861 0 0 0 2.815849,-0.96118 3.7454543,3.8545759 0 0 0 -0.508496,1.93838 3.7454543,3.8545759 0 0 0 3.745508,3.85455 3.7454543,3.8545759 0 0 0 3.745508,-3.85455 3.7454543,3.8545759 0 0 0 -0.956531,-2.57297 4.9561033,5.1004963 0 0 0 0.999939,-0.90433 4.9561033,5.1004963 0 0 0 1.297595,0.1819 4.9561033,5.1004963 0 0 0 4.95577,-5.10047 4.9561033,5.1004963 0 0 0 -0.51108,-2.25516 4.9561033,5.1004963 0 0 0 1.140499,-3.25096 4.9561033,5.1004963 0 0 0 -1.116728,-3.22513 3.7454543,3.8545759 0 0 0 -0.143144,-0.79788 4.0481167,4.1660562 0 0 0 3.810621,-4.15685 4.0481167,4.1660562 0 0 0 -2.035535,-3.61425 4.0481167,4.1660562 0 0 0 0.147794,-1.10536 4.0481167,4.1660562 0 0 0 -0.686779,-2.32079 c 0.116204,-0.19169 0.503246,-0.23111 1.110526,-0.26148 -0.0402,-0.64027 -0.443117,-1.08595 0.255282,-1.21905 -0.45166,-0.48378 -0.863977,-0.51214 -0.216008,-0.86558 -0.236139,-0.63658 -0.767594,-0.11207 -0.590145,-0.78651 -0.915839,-0.32057 -0.544782,-0.35944 0.157097,-0.72709 -0.781169,-0.13349 -1.023694,-0.12935 -1.238684,-0.84595 -0.791579,0.0548 -0.765147,0.076 -0.530717,-0.64853 -0.57273,-0.0119 -0.795338,0.18369 -0.766878,-0.4129 -0.64046,0.44799 -0.620928,0.48111 -0.904338,-0.21652 -0.787129,0.72381 -0.641597,1.04702 -1.533757,0.27543 -0.64767,1.07787 -0.656926,1.96502 -0.423746,3.03289 -0.648786,-0.61956 -1.63974,-1.50284 -2.542481,-2.04587 -0.757899,-0.45588 -2.22467,-1.44591 -2.22467,-1.44591 0,0 -0.334305,-0.34754 -0.663009,-0.77152 -0.13309,-0.17168 -0.264429,-0.35552 -0.373104,-0.53434 -0.01196,-0.0197 -0.02378,-0.0394 -0.03514,-0.0589 -0.01308,-0.0225 -0.02553,-0.045 -0.03772,-0.0672 -0.04464,-0.0814 -0.08426,-0.16119 -0.114205,-0.23668 -0.151381,-0.3816 -0.234898,-0.78403 -0.280087,-1.19579 v -5.2e-4 c -0.0075,-0.0685 -0.01412,-0.13723 -0.01964,-0.20619 v -5.1e-4 c -0.0055,-0.0691 -0.01015,-0.13825 -0.01395,-0.20774 -0.0076,-0.13898 -0.01214,-0.27878 -0.01447,-0.41858 -0.0023,-0.1398 -0.0023,-0.27932 -0.0016,-0.4191 0.0015,-0.27955 0.0069,-0.55863 0.0078,-0.83302 7.5e-4,-0.28152 0.01305,-0.54866 0.03359,-0.81235 0.02053,-0.26369 0.04963,-0.52353 0.08423,-0.78962 0.0692,-0.53217 0.160494,-1.08976 0.251664,-1.75286 0.156345,-1.13711 0.433238,-2.338124 0.741557,-3.465947 0.04405,-0.161117 0.08878,-0.320796 0.133842,-0.478524 -0.01396,-0.02092 -0.03112,-0.03982 -0.05064,-0.05788 -0.0036,-0.0033 -0.0071,-0.0066 -0.01085,-0.0098 -0.0093,-0.0079 -0.01861,-0.01588 -0.02894,-0.02325 l -5.17e-4,-5.17e-4 c -0.0075,-0.0053 -0.01622,-0.01044 -0.02429,-0.0155 -0.06299,-0.03965 -0.142793,-0.07043 -0.235644,-0.09353 -0.02571,-0.0064 -0.05243,-0.01234 -0.0801,-0.01757 -0.134717,-0.02545 -0.291239,-0.03788 -0.464054,-0.03876 z m -1.418518,10.948693 0.02015,0.0248 c 0.05075,0.13643 0.120028,0.32142 0.199471,0.52969 l 5.16e-4,5.1e-4 c 0.119117,0.31227 0.260302,0.67611 0.394808,1.00304 l 5.17e-4,5.2e-4 c 0.04477,0.10881 0.08861,0.21366 0.130742,0.31109 v 5.2e-4 c 0.0042,0.01 0.0078,0.0169 0.01188,0.0263 0.03784,0.087 0.0742,0.16876 0.108004,0.24081 l 5.17e-4,5.2e-4 c 0.01857,0.0396 0.03625,0.0767 0.05323,0.11059 v 5.2e-4 c 0.01699,0.034 0.03346,0.065 0.04858,0.0925 0.03824,0.0695 0.08403,0.15018 0.136426,0.23978 l 5.17e-4,5.1e-4 c 0.10473,0.17908 0.234275,0.39303 0.375171,0.62012 l 5.16e-4,5.2e-4 c 0.07041,0.11347 0.143713,0.23032 0.218075,0.34778 v 5.1e-4 c 0.029,0.0458 0.0586,0.0911 0.08785,0.13695 0.120923,0.18958 0.242858,0.3786 0.359151,0.555 v 5.2e-4 c 0.144393,0.21902 0.279983,0.41923 0.392741,0.57929 0.05256,0.0746 0.114396,0.15938 0.183451,0.25218 l 5.17e-4,5.2e-4 c 0.06895,0.0926 0.145022,0.19296 0.225309,0.29817 v 5.2e-4 c 0.03229,0.0423 0.0698,0.0906 0.103353,0.13436 0.132916,0.17318 0.272179,0.35333 0.411861,0.53433 v 5.2e-4 c 0.0237,0.0307 0.04622,0.0604 0.06976,0.0909 0.14464,0.5909 0.175211,0.54719 -0.310576,1.03405 0.341922,0.28417 0.329947,0.44614 0.196887,1.00303 0.78452,-0.11348 0.514923,0.42755 0.491443,1.06196 0.242334,5.3e-4 0.310509,0.047 0.306442,0.14624 a 3.7454543,3.8545759 0 0 0 -1.022677,0.31626 c -0.09104,-0.0896 -0.191226,-0.18629 -0.302824,-0.29352 l 1.022677,-0.11782 -1.258838,-1.49449 -0.471806,-0.70796 0.51108,-0.1571 -0.432532,-0.62942 0.629419,-0.31471 0.19637,-0.39326 c 0,0 -1.569459,-1.09932 -2.477368,-1.33687 -0.748359,-0.19581 -1.555692,-0.15671 -2.320271,-0.0393 -0.137672,0.0212 -0.304119,0.0639 -0.476974,0.11524 -0.130229,-0.30254 -0.243499,-0.56668 -0.289905,-0.66611 -0.09585,-0.20538 -0.394375,-0.75959 -0.571024,-1.08521 0.0035,-0.008 0.0076,-0.0172 0.01137,-0.0253 0.247229,-0.17453 0.51448,-0.35499 0.81132,-0.54725 0.03731,-0.0242 0.07683,-0.0521 0.117823,-0.0811 0.02884,-0.0204 0.05804,-0.0416 0.08837,-0.0641 0.0411,-0.0305 0.0834,-0.0615 0.126608,-0.0951 0.143078,-0.11116 0.293794,-0.23652 0.443383,-0.3638 0.07858,-0.0668 0.155455,-0.13343 0.230477,-0.19895 0.142067,-0.12409 0.277024,-0.24355 0.387057,-0.3421 0.03188,-0.0286 0.06432,-0.059 0.09715,-0.0899 0.06302,-0.0593 0.126845,-0.12125 0.189652,-0.18448 0.148382,-0.1494 0.277503,-0.28845 0.378788,-0.39946 0.03335,-0.0365 0.06346,-0.069 0.08785,-0.0961 v -5.2e-4 c 0.04887,-0.0544 0.07751,-0.0868 0.07751,-0.0868 z m 1.324984,1.34048 c 0.01,0.008 0.02086,0.0163 0.03101,0.0243 0.03608,0.0285 0.07241,0.0572 0.110588,0.0863 h 5.17e-4 c 0.04899,0.0373 0.0993,0.0754 0.151412,0.11369 h 5.17e-4 c 0.0098,0.007 0.02105,0.015 0.03101,0.0222 0.08526,0.0622 0.174144,0.12541 0.266134,0.18965 0.01106,0.008 0.0209,0.015 0.03204,0.0227 h 5.17e-4 c 0.01405,0.01 0.02923,0.0202 0.04341,0.03 0.101298,0.0701 0.205858,0.14173 0.312643,0.21343 0.0409,0.0275 0.08355,0.0555 0.125057,0.0832 0.08225,0.0548 0.164078,0.10956 0.248047,0.16484 h 5.16e-4 c 0.252924,0.16651 0.511579,0.33498 0.764295,0.50126 h 5.17e-4 c 0.126418,0.0832 0.25118,0.16575 0.373103,0.24754 0.121924,0.0818 0.240551,0.16236 0.355017,0.24184 l 5.17e-4,5.2e-4 c 0.07524,0.0522 0.150979,0.10325 0.227377,0.15399 0.0764,0.0508 0.152932,0.10097 0.22996,0.1509 h 5.16e-4 c 0.154057,0.0998 0.308555,0.19854 0.461988,0.2992 0.230149,0.15101 0.456911,0.30624 0.67386,0.47439 h 5.17e-4 c 0.07221,0.056 0.143208,0.11337 0.212907,0.1726 l 5.17e-4,5.2e-4 c 0.0015,0.001 0.0031,0.003 0.0047,0.004 0.0255,0.0217 0.05253,0.0456 0.07958,0.0698 0.02759,0.0247 0.05686,0.0512 0.08578,0.078 0.01873,0.0174 0.03662,0.034 0.05581,0.0522 h 5.17e-4 c 0.170073,0.1611 0.356049,0.35138 0.533817,0.53847 -0.730614,-0.24526 -1.453447,-0.29863 -2.277897,-0.34933 -0.374476,0.66405 -0.06142,0.85171 -0.561723,0.98547 -0.336212,-0.47812 -0.65003,-1.02769 -1.030945,-1.54978 -0.437364,-0.59943 -1.321126,-2.24503 -1.539441,-3.00602 v -5.1e-4 c -0.0011,-0.005 -0.0037,-0.0106 -0.0047,-0.0155 z m -4.891691,1.59784 c 0.07273,0.12491 0.181369,0.31228 0.303857,0.52503 0.183732,0.31913 0.398862,0.69588 0.571025,1.00873 v 5.1e-4 c 0.0034,0.006 0.0065,0.0115 0.0098,0.0176 -0.429188,0.15399 -0.797367,0.31058 -0.797367,0.31058 0,0 -1.290228,0.21968 -1.730127,-0.1571 -0.04332,-0.0371 -0.08194,-0.0769 -0.117823,-0.11782 0.01459,-0.0151 0.02888,-0.03 0.04341,-0.045 0.02267,-0.0234 0.04618,-0.0477 0.06873,-0.0708 v -5.1e-4 c 0.251096,-0.25674 0.496169,-0.49421 0.751376,-0.72502 0.02384,-0.0216 0.04778,-0.0431 0.07183,-0.0646 0.256929,-0.22918 0.525532,-0.45258 0.825273,-0.68161 z m 0.225309,15.91272 a 4.9561033,5.1004963 0 0 0 0.09353,0.15297 4.9561033,5.1004963 0 0 0 -0.121956,-0.11938 3.7454543,3.8545759 0 0 0 0.02842,-0.0336 z m 0.810803,1.07332 a 4.9561033,5.1004963 0 0 0 0.685229,0.58395 3.7454543,3.8545759 0 0 0 -0.303857,0.17725 4.9561033,5.1004963 0 0 0 -0.381372,-0.7612 z m 5.02915,1.21078 a 4.9561033,5.1004963 0 0 0 -0.02429,0.0713 3.7454543,3.8545759 0 0 0 -0.04599,-0.046 4.9561033,5.1004963 0 0 0 0.07028,-0.0253 z m -5.691125,5.06843 a 3.7454543,3.8545759 0 0 0 0.171566,0.22582 4.7291064,4.8668861 0 0 0 -0.295073,-0.0992 4.9561033,5.1004963 0 0 0 0.123507,-0.1266 z" /><path
         style="opacity:1;fill:#92a321;fill-opacity:1;stroke:none;stroke-width:0.264583px;stroke-linecap:butt;stroke-linejoin:miter;stroke-opacity:1"
         d="m 26.191997,112.08289 c -0.61576,-0.52741 -0.4508,-1.45637 -0.35395,-2.26132 0.10088,-0.83835 0.81273,-1.50921 0.94386,-2.33998 0.14547,-0.92164 0.11807,-1.91386 -0.19663,-2.79224 -0.20611,-0.57528 -1.06184,-1.49444 -1.06184,-1.49444 -0.51012,0.50665 -0.55126,0.98085 -0.78655,0.15731 -0.87658,0.9189 -1.76794,-1.23364 -2.32031,-1.92703 -0.50379,2.67549 -0.74156,0.55527 -2.67426,-0.23597 0.16559,1.67061 -0.60846,0.99026 -2.00569,0.82588 0.45862,2.45236 0.13107,1.7555 -2.08435,1.45511 0.15156,1.20313 -0.0945,0.95196 -1.14052,0.70789 0.28587,1.34303 -1.16689,0.69882 -2.1237,0.62924 1.02621,1.5862 2.17881,1.69107 -0.11793,1.69107 1.24717,2.02108 -1.11069,0.39014 -1.76973,1.69108 0.6619,0.66961 1.21384,0.75166 0.0786,0.86524 -0.0225,0.7092 -0.44377,0.86617 -0.9831797,1.25847 1.0462797,0.7095 0.4329397,1.02373 -0.19663,1.92704 0.32677,0.77939 -0.002,0.71476 -0.45222,1.3568 1.2119697,0.40376 2.3192097,0.77361 3.3428197,1.51409 -1.15109,1.0108 -1.33865,1.89871 -1.86804,2.81191 2.50848,-0.17336 1.54443,0.81584 0.66856,2.12368 1.65505,-0.17356 0.64279,0.78615 0.39327,1.2388 l 0.82588,0.11799 -0.51126,1.02251 c 0.1365,0.9651 -0.3135,1.44339 -0.82587,2.45796 0.93678,-0.50326 1.75123,-0.60722 2.77258,-0.58989 0.7976,-0.69135 0.88844,-0.0709 0.78654,0.58991 0.4326,-0.31462 1.16016,-0.53092 1.16016,-0.53092 0.53139,0.27722 0.32854,0.46949 0.15731,0.98318 0.61491,-0.023 1.03045,-0.365 1.55342,-0.6489 0.89115,0.20862 -0.0236,0.78566 0.41295,1.7304 4.03358,-0.68586 9.2015,-2.43061 13.92187,-3.75576 l 3.57878,-3.61811 c 0.0716,-1.16862 -0.14922,-1.36322 -1.02251,-2.20233 l 1.02251,-0.11799 -1.25847,-1.49443 -0.47193,-0.7079 0.51126,-0.1573 -0.4326,-0.62924 0.62923,-0.31462 0.19664,-0.39327 c 0,0 -1.56971,-1.09958 -2.47762,-1.33713 -0.74836,-0.19581 -1.55573,-0.15674 -2.32031,-0.0393 -0.61461,0.0944 -1.76973,0.58991 -1.76973,0.58991 0,0 -1.29056,0.21938 -1.73046,-0.1574 z"
         id="path24106"
         sodipodi:nodetypes="sssscccccccccccccccccccccccccccccccccccccsscs" /><path
         id="path28731"
         style="opacity:1;fill:url(#radialGradient28741);fill-opacity:1;stroke:none;stroke-width:0.264583px;stroke-linecap:butt;stroke-linejoin:miter;stroke-opacity:1"
         d="m 20.203717,102.19452 c -0.22329,0.84565 -1.29977,0.58413 -1.81054,0.52343 0.17579,0.65039 0.005,1.65261 -0.84961,1.60743 -0.43388,0.0152 -0.95968,-0.22135 -1.33008,-0.19141 0.0237,0.63915 -0.70139,0.89942 -1.19531,0.73633 -0.16577,0.56866 -0.83276,0.75683 -1.36328,0.66211 0.48578,0.33686 0.74148,1.20386 0.008,1.40234 -0.67412,-0.0562 -0.44022,0.32381 -0.61133,0.79883 -0.37717,0.60647 -1.17535,0.31697 -1.75195,0.45898 0.53087,0.25779 0.66325,1.09316 0.0117,1.27735 -0.47034,0.005 -0.40064,0.68295 -0.82422,0.85742 0.0555,0.25157 0.33071,0.6669 0.15039,1.01172 -0.10592,0.52726 -0.8268397,0.81798 -0.58008,1.39258 -0.1584097,0.52012 -0.2523997,0.73697 0.40039,0.83203 0.96321,0.34681 1.84122,0.87822 2.66992,1.47265 -0.74712,0.66836 -1.45573,1.40883 -1.83594,2.35352 0.74093,-0.0528 1.54058,0.61044 1.19336,1.38867 -2.2e-4,0.32902 -0.62733,0.73714 -0.27343,0.90625 0.41451,0.247 0.4043,0.82795 0.17187,1.19531 0.97054,-0.11851 0.59236,0.46635 0.26451,1.02822 -0.45931,0.58895 -0.18636,1.36355 -0.56138,1.99717 0.66307,-0.19177 1.38426,-0.003 1.96289,-0.40624 0.44833,-0.20571 0.86349,0.23956 1.02929,0.50976 0.46936,-0.29539 0.95459,-0.22995 1.30274,0.20898 0.15607,0.69884 0.63836,-0.12115 1.0506,-0.0759 0.71014,0.0641 1.10685,0.80628 0.81854,1.44503 -0.0306,0.45831 0.87046,-0.0516 1.2006,-0.0338 4.05539,-0.9168 8.00244,-2.23925 12.00252,-3.36071 1.11329,-1.125 2.22657,-2.25 3.33985,-3.375 0.13084,-1.10127 -1.07201,-1.62788 -1.6543,-2.37695 0.49916,-0.0967 1.6023,0.0451 0.75035,-0.5899 -0.44034,-0.49725 -0.75477,-1.08925 -1.13902,-1.62885 1.09015,0.0196 -0.42256,-0.80388 0.58165,-0.91175 0.73591,-0.20283 -0.28729,-0.50431 -0.56122,-0.71683 -1.12917,-0.71765 -2.83156,-0.62318 -4.11539,-0.0749 -0.86395,0.3786 -2.02175,0.51411 -2.83082,-0.0543 -0.89359,-0.84789 -0.63491,-2.2578 -0.35148,-3.31878 0.3997,-0.87515 0.97917,-1.71779 0.8632,-2.73396 0.009,-0.84469 -0.20471,-1.82879 -0.82618,-2.3789 -0.24256,0.38114 -0.79181,0.37542 -1.05859,0.0566 -0.87959,0.12797 -1.42454,-0.78351 -1.8418,-1.36719 -0.24484,0.74686 -1.19598,0.62803 -1.57506,0.0671 -0.24868,-0.15772 -0.62886,-0.76676 -0.82524,-0.61541 z" /><path
         id="path28743"
         style="opacity:1;fill:url(#radialGradient28745);fill-opacity:1;stroke:none;stroke-width:0.264583px;stroke-linecap:butt;stroke-linejoin:miter;stroke-opacity:1"
         d="m 20.150987,104.25506 c -0.49578,0.0267 -0.47315,0.72966 -0.89258,0.96875 -0.58081,0.56363 -1.45003,0.84227 -2.24414,0.6504 -0.36428,0.36358 -0.94424,0.44522 -1.33008,0.70312 -0.008,0.78368 -0.56017,1.38925 -1.19336,1.76367 -0.14998,0.64361 -0.83857,0.8937 -1.26758,1.26367 -0.17252,0.49776 -0.52977,0.92654 -0.98437,1.19141 0.14975,0.55869 -0.0872,1.14929 -0.37305,1.64453 1.35895,0.63471 2.53727,1.57909 3.78516,2.39844 -0.68362,0.66769 -1.40869,1.29272 -2.07617,1.97656 0.65382,0.76321 0.63541,1.86341 0.41992,2.76367 0.13397,0.52767 0.68705,0.90366 0.58511,1.51793 0.0338,0.42701 -0.38982,0.93169 0.30356,0.83754 0.41744,0.12532 0.73771,0.40685 1.19531,0.35156 0.49195,0.0389 0.8549,0.44316 1.35352,0.27735 0.89229,-7.8e-4 1.73492,0.54669 2.16601,1.3164 3.68079,-0.85821 7.34629,-2.05321 11.01172,-3.09375 0.75993,-0.79201 1.56565,-1.53933 2.3086,-2.34765 -0.68728,-0.75091 -1.84289,-1.39626 -1.86133,-2.52149 0.11388,-0.50321 0.75318,-0.68761 0.14284,-1.15292 -0.36694,-0.3697 -0.52372,-1.28843 -1.17214,-0.99551 -1.2228,0.33157 -2.68882,0.99538 -4.02539,0.51367 -1.63162,-0.41025 -2.55356,-2.17359 -2.37552,-3.77552 0.016,-1.31367 0.67695,-2.48577 1.10134,-3.6847 0.033,-0.38667 0.17286,-1.0617 -0.38219,-1.01777 -0.76814,-0.17193 -1.54887,-0.45603 -2.11316,-1.02397 -0.7373,0.24199 -1.47182,-0.28633 -2.08203,-0.52539 z" /><path
         id="path28756"
         style="opacity:1;fill:url(#radialGradient28758);fill-opacity:1;stroke:none;stroke-width:0.264583px;stroke-linecap:butt;stroke-linejoin:miter;stroke-opacity:1"
         d="m 20.674427,106.81561 c -0.86127,0.82378 -2.06873,1.14869 -3.21875,1.29492 -0.44861,1.04503 -1.36345,1.69247 -2.11914,2.54688 -0.31049,0.25959 -0.5864,0.5425 -0.83203,0.86328 1.52502,0.99198 3.01573,2.03555 4.52539,3.05078 -0.94803,0.94059 -2.03048,1.80725 -2.90039,2.78906 0.22391,0.83011 -0.0947,1.72885 0.34971,2.49523 0.0215,0.68858 0.85917,0.47804 1.32243,0.62635 0.93643,0.0736 1.81724,0.44069 2.53684,1.03077 3.04427,-0.79431 6.10218,-1.70039 9.13867,-2.61524 0.40909,-0.28094 0.51517,-0.51916 0.123,-0.87835 -0.33981,-0.50905 -0.55563,-1.09865 -0.63276,-1.70563 -2.2667,0.61855 -5.02745,0.0573 -6.39063,-1.99414 -1.43973,-2.03614 -1.33148,-4.81874 -0.31445,-7.01172 -0.493,-0.25612 -1.0459,-0.50312 -1.58789,-0.49219 z" /><path
         id="path15125"
         style="fill:#899730;fill-opacity:1;stroke:none;stroke-width:0.264583px;stroke-linecap:butt;stroke-linejoin:miter;stroke-opacity:1"
         d="m 32.820289,96.490936 c -0.33854,-0.0017 -0.73582,0.03883 -1.13585,0.103353 -0.16714,0.70789 -0.43791,2.188917 -0.48576,2.690275 -0.0809,0.848046 -0.07535,3.204706 -0.07855,4.067446 -0.006,1.59195 -0.44822,3.36472 -0.94878,3.97651 -0.50055,0.61179 -2.82972,2.55823 -3.55275,3.22564 -0.72302,0.66741 -1.7489,1.93748 -2.33578,3.08663 -0.15871,0.31075 -0.30592,1.00149 -0.30592,1.00149 l 0.41703,0.0832 c 0,0 0.63238,-1.64385 1.2516,-2.30787 0.75088,-0.80521 1.35216,-1.39985 2.18953,-2.03967 0.29093,0.49964 1.15558,1.99207 1.18856,2.15698 0.0393,0.19664 1.02252,1.84855 1.1405,2.93005 0.0299,0.27367 0.60926,0.17725 0.60926,0.17725 0,0 -0.4321,-1.53402 -0.74672,-2.10426 -0.31462,-0.57025 -0.96358,-2.14315 -1.10123,-2.4381 -0.09686,-0.20755 -0.40189,-0.77355 -0.57774,-1.09761 0.25209,-0.17835 0.52554,-0.36336 0.82941,-0.56017 0.39611,-0.25655 1.0221,-0.81232 1.39371,-1.14515 0.37162,-0.33282 0.83096,-0.85731 0.83096,-0.85731 0,0 0.01631,0.0199 0.02015,0.0248 0.20301,0.54574 0.7054,1.87506 0.94826,2.31665 0.30589,0.55618 1.11916,1.84039 1.57045,2.48099 0.4205,0.59688 1.45047,1.86524 1.78284,2.37659 0.36152,0.55618 0.71158,1.0325 0.71158,1.0325 l 0.30593,-0.36174 c 0,0 -0.63933,-0.97344 -1.11208,-1.52962 -0.47275,-0.55617 -0.85711,-1.29105 -1.35806,-1.97766 -0.44036,-0.60354 -1.33403,-2.26866 -1.5446,-3.02255 0.72936,0.58179 1.93112,1.30563 2.84685,1.94148 0.60194,0.41797 1.24923,0.77706 1.80764,1.25161 0.55948,0.47547 1.52962,1.58491 1.52962,1.58491 l 0.44494,0.66715 0.13901,-1.02888 c 0,0 -1.75245,-1.84954 -3.25407,-2.75281 -0.7579,-0.45588 -2.22467,-1.4459 -2.22467,-1.4459 0,0 -0.95403,-0.99012 -1.22318,-1.66863 -0.40385,-1.01804 -0.32532,-2.18389 -0.32194,-3.28146 0.003,-1.12608 0.18714,-2.02862 0.36948,-3.35483 0.17868,-1.299546 0.51487,-2.682633 0.8754,-3.944462 -0.12167,-0.182503 -0.45977,-0.254609 -0.89503,-0.256832 z" /><path
         id="path19940"
         style="fill:#a5b63a;fill-opacity:1;stroke:none;stroke-width:0.264583px;stroke-linecap:butt;stroke-linejoin:miter;stroke-opacity:1"
         d="m 32.528829,96.499204 c -0.26597,0.01458 -0.55413,0.04827 -0.84439,0.09508 -0.16714,0.707889 -0.43791,2.188917 -0.48576,2.690275 -0.0809,0.848041 -0.0753,3.204721 -0.0785,4.067451 -0.006,1.59195 -0.44822,3.36472 -0.94878,3.97651 -0.49347,0.60314 -2.75762,2.49792 -3.51451,3.19102 2.06991,-1.35883 3.61414,-2.36547 4.52995,-4.41421 0.30888,-0.84853 0.33974,-1.77602 0.43254,-2.67425 0.14824,-1.43586 -0.0511,-2.90423 0.19637,-4.326355 0.12403,-0.712898 0.42014,-1.710785 0.71313,-2.605526 z"
         sodipodi:nodetypes="ccccscccsc" /><path
         id="path20221"
         style="fill:#748029;fill-opacity:1;stroke:none;stroke-width:0.264583px;stroke-linecap:butt;stroke-linejoin:miter;stroke-opacity:1"
         d="m 33.284339,96.529693 c -0.41499,1.706889 -0.91777,3.830787 -0.91777,4.108797 0,0.47192 -0.31477,3.85442 -0.27544,4.32635 0.10827,1.43109 0.11344,2.33778 1.26142,3.26078 -0.22648,-0.29214 -0.45037,-0.62031 -0.56017,-0.8971 -0.40385,-1.01804 -0.32532,-2.18389 -0.32194,-3.28146 0.003,-1.12608 0.18714,-2.02862 0.36948,-3.35483 0.17868,-1.299545 0.51487,-2.682635 0.8754,-3.944462 -0.0734,-0.110042 -0.22639,-0.179424 -0.43098,-0.218075 z"
         sodipodi:nodetypes="csccscscc" /><path
         id="path20778"
         style="fill:#748029;fill-opacity:1;stroke:none;stroke-width:0.264583px;stroke-linecap:butt;stroke-linejoin:miter;stroke-opacity:1"
         d="m 31.585219,106.76111 c -0.12208,-0.001 -0.63496,0.77818 -0.98859,1.13358 -0.51748,0.52007 -1.37499,1.21553 -1.65156,1.45489 -0.22136,0.19158 -0.47426,0.3921 -0.59066,0.66469 -0.002,-0.003 -0.005,-0.009 -0.007,-0.0124 0.25209,-0.17835 0.52554,-0.36336 0.82941,-0.56017 0.39611,-0.25655 1.0221,-0.81232 1.39371,-1.14515 0.37162,-0.33282 0.83096,-0.85731 0.83096,-0.85731 0,0 0.0163,0.02 0.0202,0.0248 0.20301,0.54573 0.70541,1.87506 0.94826,2.31665 0.30589,0.55618 1.11916,1.84039 1.57045,2.48099 0.4205,0.59687 1.45047,1.86524 1.78284,2.37659 0.36152,0.55618 0.71158,1.0325 0.71158,1.0325 l 0.12919,-0.15296 c -0.33267,-0.47502 -2.01139,-2.8689 -2.34921,-3.27784 -0.37361,-0.45226 -1.42591,-2.16343 -1.94716,-3.34295 -0.29999,-0.67884 -0.64852,-1.98626 -0.66818,-2.1239 -0.001,-0.009 -0.006,-0.0123 -0.0145,-0.0124 z"
         sodipodi:nodetypes="sasccssccsssccsasss" /><path
         id="path23957"
         style="fill:#7a892b;fill-opacity:1;stroke:none;stroke-width:0.264583px;stroke-linecap:butt;stroke-linejoin:miter;stroke-opacity:1"
         d="m 32.700909,108.75995 0.0305,0.0362 c -10e-4,-0.005 -0.004,-0.0114 -0.005,-0.0165 0.72935,0.58179 1.93112,1.30563 2.84685,1.94148 0.60194,0.41797 1.24923,0.77706 1.80764,1.25161 0.55948,0.47547 1.52962,1.58491 1.52962,1.58491 l 0.40566,0.60875 c 0.0183,-0.0105 0.034,-0.0196 0.0512,-0.0294 l 0.0403,-0.30024 c 0,0 -1.42407,-1.68787 -2.53834,-2.50114 -1.48586,-1.04727 -2.55298,-1.96129 -4.16843,-2.57567 z"
         sodipodi:nodetypes="cccsscccccc" /><path
         id="path23964"
         style="fill:#7a892b;fill-opacity:1;stroke:none;stroke-width:0.264583px;stroke-linecap:butt;stroke-linejoin:miter;stroke-opacity:1"
         d="m 27.843849,110.1361 c 0,0 -0.74201,0.44172 -1.06195,0.7276 -0.71729,0.64091 -1.40625,1.35008 -1.88774,2.18281 -0.23998,0.41502 -0.47537,1.16216 -0.61599,1.65572 l 0.11576,0.0233 c 0,0 0.63238,-1.64385 1.2516,-2.30787 0.75088,-0.80521 1.35216,-1.39985 2.18953,-2.03967 0.29093,0.49964 1.15558,1.99207 1.18856,2.15698 0.0393,0.19664 1.02252,1.84855 1.1405,2.93005 0.01546,0.14156 0.17746,0.18364 0.33073,0.19172 -0.19029,-0.55707 -0.69137,-1.99519 -1.05834,-2.76779 -0.45485,-0.95762 -1.59266,-2.7528 -1.59266,-2.7528 z" /><g
         id="g14743"
         transform="matrix(0.95419856,0,0,0.95419856,-50.599739,-2.1346652)"><ellipse
           style="opacity:1;fill:url(#radialGradient14745);fill-opacity:1;stroke-width:0;stroke-linecap:round;stroke-linejoin:round;paint-order:markers stroke fill"
           id="ellipse14737"
           cx="81.076187"
           cy="147.32449"
           rx="4.9561033"
           ry="5.1004963" /><ellipse
           style="opacity:1;mix-blend-mode:normal;fill:url(#radialGradient14747);fill-opacity:1;stroke-width:0;stroke-linecap:round;stroke-linejoin:round;paint-order:markers stroke fill;filter:url(#filter8006)"
           id="ellipse14739"
           cx="81.076187"
           cy="147.32449"
           rx="4.6577349"
           ry="4.6468482" /><ellipse
           style="opacity:1;mix-blend-mode:normal;fill:url(#radialGradient14749);fill-opacity:1;stroke-width:0;stroke-linecap:round;stroke-linejoin:round;paint-order:markers stroke fill;filter:url(#filter13708)"
           id="ellipse14741"
           cx="42.142654"
           cy="165.16661"
           rx="1.5060631"
           ry="1.3492454"
           transform="matrix(0.93333427,-0.35900856,0.24223841,0.97021676,0,0)" /></g><g
         id="g14757"
         transform="translate(-48.207683,-9.8612549)"><ellipse
           style="opacity:1;fill:url(#radialGradient14759);fill-opacity:1;stroke-width:0;stroke-linecap:round;stroke-linejoin:round;paint-order:markers stroke fill"
           id="ellipse14751"
           cx="81.076187"
           cy="147.32449"
           rx="4.9561033"
           ry="5.1004963" /><ellipse
           style="opacity:1;mix-blend-mode:normal;fill:url(#radialGradient14761);fill-opacity:1;stroke-width:0;stroke-linecap:round;stroke-linejoin:round;paint-order:markers stroke fill;filter:url(#filter8006)"
           id="ellipse14753"
           cx="81.076187"
           cy="147.32449"
           rx="4.6577349"
           ry="4.6468482" /><ellipse
           style="opacity:1;mix-blend-mode:normal;fill:url(#radialGradient14763);fill-opacity:1;stroke-width:0;stroke-linecap:round;stroke-linejoin:round;paint-order:markers stroke fill;filter:url(#filter13708)"
           id="ellipse14755"
           cx="42.142654"
           cy="165.16661"
           rx="1.5060631"
           ry="1.3492454"
           transform="matrix(0.93333427,-0.35900856,0.24223841,0.97021676,0,0)" /></g><g
         id="g14785"
         transform="translate(-42.544548,-16.940174)"><ellipse
           style="opacity:1;fill:url(#radialGradient14787);fill-opacity:1;stroke-width:0;stroke-linecap:round;stroke-linejoin:round;paint-order:markers stroke fill"
           id="ellipse14779"
           cx="81.076187"
           cy="147.32449"
           rx="4.9561033"
           ry="5.1004963" /><ellipse
           style="opacity:1;mix-blend-mode:normal;fill:url(#radialGradient14789);fill-opacity:1;stroke-width:0;stroke-linecap:round;stroke-linejoin:round;paint-order:markers stroke fill;filter:url(#filter8006)"
           id="ellipse14781"
           cx="81.076187"
           cy="147.32449"
           rx="4.6577349"
           ry="4.6468482" /><ellipse
           style="opacity:1;mix-blend-mode:normal;fill:url(#radialGradient14791);fill-opacity:1;stroke-width:0;stroke-linecap:round;stroke-linejoin:round;paint-order:markers stroke fill;filter:url(#filter13708)"
           id="ellipse14783"
           cx="42.142654"
           cy="165.16661"
           rx="1.5060631"
           ry="1.3492454"
           transform="matrix(0.93333427,-0.35900856,0.24223841,0.97021676,0,0)" /></g><g
         id="g14729"
         transform="translate(-43.173785,-11.434348)"><ellipse
           style="opacity:1;fill:url(#radialGradient14731);fill-opacity:1;stroke-width:0;stroke-linecap:round;stroke-linejoin:round;paint-order:markers stroke fill"
           id="ellipse14723"
           cx="81.076187"
           cy="147.32449"
           rx="4.9561033"
           ry="5.1004963" /><ellipse
           style="opacity:1;mix-blend-mode:normal;fill:url(#radialGradient14733);fill-opacity:1;stroke-width:0;stroke-linecap:round;stroke-linejoin:round;paint-order:markers stroke fill;filter:url(#filter8006)"
           id="ellipse14725"
           cx="81.076187"
           cy="147.32449"
           rx="4.6577349"
           ry="4.6468482" /><ellipse
           style="opacity:1;mix-blend-mode:normal;fill:url(#radialGradient14735);fill-opacity:1;stroke-width:0;stroke-linecap:round;stroke-linejoin:round;paint-order:markers stroke fill;filter:url(#filter13708)"
           id="ellipse14727"
           cx="42.142654"
           cy="165.16661"
           rx="1.5060631"
           ry="1.3492454"
           transform="matrix(0.93333427,-0.35900856,0.24223841,0.97021676,0,0)" /></g><g
         id="g13849"
         transform="matrix(0.81679423,0,0,0.81679423,-26.119824,-2.8488418)"><ellipse
           style="opacity:1;fill:url(#radialGradient13851);fill-opacity:1;stroke-width:0;stroke-linecap:round;stroke-linejoin:round;paint-order:markers stroke fill"
           id="ellipse13843"
           cx="81.076187"
           cy="147.32449"
           rx="4.9561033"
           ry="5.1004963" /><ellipse
           style="opacity:1;mix-blend-mode:normal;fill:url(#radialGradient13853);fill-opacity:1;stroke-width:0;stroke-linecap:round;stroke-linejoin:round;paint-order:markers stroke fill;filter:url(#filter8006)"
           id="ellipse13845"
           cx="81.076187"
           cy="147.32449"
           rx="4.6577349"
           ry="4.6468482" /><ellipse
           style="opacity:1;mix-blend-mode:normal;fill:url(#radialGradient13855);fill-opacity:1;stroke-width:0;stroke-linecap:round;stroke-linejoin:round;paint-order:markers stroke fill;filter:url(#filter13708)"
           id="ellipse13847"
           cx="42.142654"
           cy="165.16661"
           rx="1.5060631"
           ry="1.3492454"
           transform="matrix(0.93333427,-0.35900856,0.24223841,0.97021676,0,0)" /></g><g
         id="g13863"
         transform="matrix(0.81679423,0,0,0.81679423,-24.232112,1.8704379)"><ellipse
           style="opacity:1;fill:url(#radialGradient13865);fill-opacity:1;stroke-width:0;stroke-linecap:round;stroke-linejoin:round;paint-order:markers stroke fill"
           id="ellipse13857"
           cx="81.076187"
           cy="147.32449"
           rx="4.9561033"
           ry="5.1004963" /><ellipse
           style="opacity:1;mix-blend-mode:normal;fill:url(#radialGradient13867);fill-opacity:1;stroke-width:0;stroke-linecap:round;stroke-linejoin:round;paint-order:markers stroke fill;filter:url(#filter8006)"
           id="ellipse13859"
           cx="81.076187"
           cy="147.32449"
           rx="4.6577349"
           ry="4.6468482" /><ellipse
           style="opacity:1;mix-blend-mode:normal;fill:url(#radialGradient13869);fill-opacity:1;stroke-width:0;stroke-linecap:round;stroke-linejoin:round;paint-order:markers stroke fill;filter:url(#filter13708)"
           id="ellipse13861"
           cx="42.142654"
           cy="165.16661"
           rx="1.5060631"
           ry="1.3492454"
           transform="matrix(0.93333427,-0.35900856,0.24223841,0.97021676,0,0)" /></g><g
         id="g13877"
         transform="matrix(0.75572564,0,0,0.75572564,-25.102013,9.2942436)"><ellipse
           style="opacity:1;fill:url(#radialGradient13879);fill-opacity:1;stroke-width:0;stroke-linecap:round;stroke-linejoin:round;paint-order:markers stroke fill"
           id="ellipse13871"
           cx="81.076187"
           cy="147.32449"
           rx="4.9561033"
           ry="5.1004963" /><ellipse
           style="opacity:1;mix-blend-mode:normal;fill:url(#radialGradient13881);fill-opacity:1;stroke-width:0;stroke-linecap:round;stroke-linejoin:round;paint-order:markers stroke fill;filter:url(#filter8006)"
           id="ellipse13873"
           cx="81.076187"
           cy="147.32449"
           rx="4.6577349"
           ry="4.6468482" /><ellipse
           style="opacity:1;mix-blend-mode:normal;fill:url(#radialGradient13883);fill-opacity:1;stroke-width:0;stroke-linecap:round;stroke-linejoin:round;paint-order:markers stroke fill;filter:url(#filter13708)"
           id="ellipse13875"
           cx="42.142654"
           cy="165.16661"
           rx="1.5060631"
           ry="1.3492454"
           transform="matrix(0.93333427,-0.35900856,0.24223841,0.97021676,0,0)" /></g><g
         id="g14617"
         transform="matrix(0.75572564,0,0,0.75572564,-31.331144,6.8470849)"><ellipse
           style="opacity:1;fill:url(#radialGradient14619);fill-opacity:1;stroke-width:0;stroke-linecap:round;stroke-linejoin:round;paint-order:markers stroke fill"
           id="ellipse14611"
           cx="81.076187"
           cy="147.32449"
           rx="4.9561033"
           ry="5.1004963" /><ellipse
           style="opacity:1;mix-blend-mode:normal;fill:url(#radialGradient14621);fill-opacity:1;stroke-width:0;stroke-linecap:round;stroke-linejoin:round;paint-order:markers stroke fill;filter:url(#filter8006)"
           id="ellipse14613"
           cx="81.076187"
           cy="147.32449"
           rx="4.6577349"
           ry="4.6468482" /><ellipse
           style="opacity:1;mix-blend-mode:normal;fill:url(#radialGradient14623);fill-opacity:1;stroke-width:0;stroke-linecap:round;stroke-linejoin:round;paint-order:markers stroke fill;filter:url(#filter13708)"
           id="ellipse14615"
           cx="42.142654"
           cy="165.16661"
           rx="1.5060631"
           ry="1.3492454"
           transform="matrix(0.93333427,-0.35900856,0.24223841,0.97021676,0,0)" /></g><g
         id="g14673"
         transform="translate(-57.849394,-23.479527)"><ellipse
           style="opacity:1;fill:url(#radialGradient14675);fill-opacity:1;stroke-width:0;stroke-linecap:round;stroke-linejoin:round;paint-order:markers stroke fill"
           id="ellipse14667"
           cx="81.076187"
           cy="147.32449"
           rx="4.9561033"
           ry="5.1004963" /><ellipse
           style="opacity:1;mix-blend-mode:normal;fill:url(#radialGradient14677);fill-opacity:1;stroke-width:0;stroke-linecap:round;stroke-linejoin:round;paint-order:markers stroke fill;filter:url(#filter8006)"
           id="ellipse14669"
           cx="81.076187"
           cy="147.32449"
           rx="4.6577349"
           ry="4.6468482" /><ellipse
           style="opacity:1;mix-blend-mode:normal;fill:url(#radialGradient14679);fill-opacity:1;stroke-width:0;stroke-linecap:round;stroke-linejoin:round;paint-order:markers stroke fill;filter:url(#filter13708)"
           id="ellipse14671"
           cx="42.142654"
           cy="165.16661"
           rx="1.5060631"
           ry="1.3492454"
           transform="matrix(0.93333427,-0.35900856,0.24223841,0.97021676,0,0)" /></g><g
         id="g14687"
         transform="translate(-56.403346,-17.250395)"><ellipse
           style="opacity:1;fill:url(#radialGradient14689);fill-opacity:1;stroke-width:0;stroke-linecap:round;stroke-linejoin:round;paint-order:markers stroke fill"
           id="ellipse14681"
           cx="81.076187"
           cy="147.32449"
           rx="4.9561033"
           ry="5.1004963" /><ellipse
           style="opacity:1;mix-blend-mode:normal;fill:url(#radialGradient14691);fill-opacity:1;stroke-width:0;stroke-linecap:round;stroke-linejoin:round;paint-order:markers stroke fill;filter:url(#filter8006)"
           id="ellipse14683"
           cx="81.076187"
           cy="147.32449"
           rx="4.6577349"
           ry="4.6468482" /><ellipse
           style="opacity:1;mix-blend-mode:normal;fill:url(#radialGradient14693);fill-opacity:1;stroke-width:0;stroke-linecap:round;stroke-linejoin:round;paint-order:markers stroke fill;filter:url(#filter13708)"
           id="ellipse14685"
           cx="42.142654"
           cy="165.16661"
           rx="1.5060631"
           ry="1.3492454"
           transform="matrix(0.93333427,-0.35900856,0.24223841,0.97021676,0,0)" /></g><g
         id="g14659"
         transform="matrix(0.75572564,0,0,0.75572564,-36.114227,12.520044)"><ellipse
           style="opacity:1;fill:url(#radialGradient14661);fill-opacity:1;stroke-width:0;stroke-linecap:round;stroke-linejoin:round;paint-order:markers stroke fill"
           id="ellipse14653"
           cx="81.076187"
           cy="147.32449"
           rx="4.9561033"
           ry="5.1004963" /><ellipse
           style="opacity:1;mix-blend-mode:normal;fill:url(#radialGradient14663);fill-opacity:1;stroke-width:0;stroke-linecap:round;stroke-linejoin:round;paint-order:markers stroke fill;filter:url(#filter8006)"
           id="ellipse14655"
           cx="81.076187"
           cy="147.32449"
           rx="4.6577349"
           ry="4.6468482" /><ellipse
           style="opacity:1;mix-blend-mode:normal;fill:url(#radialGradient14665);fill-opacity:1;stroke-width:0;stroke-linecap:round;stroke-linejoin:round;paint-order:markers stroke fill;filter:url(#filter13708)"
           id="ellipse14657"
           cx="42.142654"
           cy="165.16661"
           rx="1.5060631"
           ry="1.3492454"
           transform="matrix(0.93333427,-0.35900856,0.24223841,0.97021676,0,0)" /></g><g
         id="g14631"
         transform="matrix(0.75572564,0,0,0.75572564,-37.893979,5.73474)"><ellipse
           style="opacity:1;fill:url(#radialGradient14633);fill-opacity:1;stroke-width:0;stroke-linecap:round;stroke-linejoin:round;paint-order:markers stroke fill"
           id="ellipse14625"
           cx="81.076187"
           cy="147.32449"
           rx="4.9561033"
           ry="5.1004963" /><ellipse
           style="opacity:1;mix-blend-mode:normal;fill:url(#radialGradient14635);fill-opacity:1;stroke-width:0;stroke-linecap:round;stroke-linejoin:round;paint-order:markers stroke fill;filter:url(#filter8006)"
           id="ellipse14627"
           cx="81.076187"
           cy="147.32449"
           rx="4.6577349"
           ry="4.6468482" /><ellipse
           style="opacity:1;mix-blend-mode:normal;fill:url(#radialGradient14637);fill-opacity:1;stroke-width:0;stroke-linecap:round;stroke-linejoin:round;paint-order:markers stroke fill;filter:url(#filter13708)"
           id="ellipse14629"
           cx="42.142654"
           cy="165.16661"
           rx="1.5060631"
           ry="1.3492454"
           transform="matrix(0.93333427,-0.35900856,0.24223841,0.97021676,0,0)" /></g><g
         id="g14645"
         transform="translate(-48.728166,-23.590761)"><ellipse
           style="opacity:1;fill:url(#radialGradient14647);fill-opacity:1;stroke-width:0;stroke-linecap:round;stroke-linejoin:round;paint-order:markers stroke fill"
           id="ellipse14639"
           cx="81.076187"
           cy="147.32449"
           rx="4.9561033"
           ry="5.1004963" /><ellipse
           style="opacity:1;mix-blend-mode:normal;fill:url(#radialGradient14649);fill-opacity:1;stroke-width:0;stroke-linecap:round;stroke-linejoin:round;paint-order:markers stroke fill;filter:url(#filter8006)"
           id="ellipse14641"
           cx="81.076187"
           cy="147.32449"
           rx="4.6577349"
           ry="4.6468482" /><ellipse
           style="opacity:1;mix-blend-mode:normal;fill:url(#radialGradient14651);fill-opacity:1;stroke-width:0;stroke-linecap:round;stroke-linejoin:round;paint-order:markers stroke fill;filter:url(#filter13708)"
           id="ellipse14643"
           cx="42.142654"
           cy="165.16661"
           rx="1.5060631"
           ry="1.3492454"
           transform="matrix(0.93333427,-0.35900856,0.24223841,0.97021676,0,0)" /></g><g
         id="g14701"
         transform="matrix(0.75572564,0,0,0.75572564,-30.028513,20.049888)"><ellipse
           style="opacity:1;fill:url(#radialGradient14703);fill-opacity:1;stroke-width:0;stroke-linecap:round;stroke-linejoin:round;paint-order:markers stroke fill"
           id="ellipse14695"
           cx="81.076187"
           cy="147.32449"
           rx="4.9561033"
           ry="5.1004963" /><ellipse
           style="opacity:1;mix-blend-mode:normal;fill:url(#radialGradient14705);fill-opacity:1;stroke-width:0;stroke-linecap:round;stroke-linejoin:round;paint-order:markers stroke fill;filter:url(#filter8006)"
           id="ellipse14697"
           cx="81.076187"
           cy="147.32449"
           rx="4.6577349"
           ry="4.6468482" /><ellipse
           style="opacity:1;mix-blend-mode:normal;fill:url(#radialGradient14707);fill-opacity:1;stroke-width:0;stroke-linecap:round;stroke-linejoin:round;paint-order:markers stroke fill;filter:url(#filter13708)"
           id="ellipse14699"
           cx="42.142654"
           cy="165.16661"
           rx="1.5060631"
           ry="1.3492454"
           transform="matrix(0.93333427,-0.35900856,0.24223841,0.97021676,0,0)" /></g><g
         id="g14715"
         transform="matrix(0.75572564,0,0,0.75572564,-22.634975,16.117155)"><ellipse
           style="opacity:1;fill:url(#radialGradient14717);fill-opacity:1;stroke-width:0;stroke-linecap:round;stroke-linejoin:round;paint-order:markers stroke fill"
           id="ellipse14709"
           cx="81.076187"
           cy="147.32449"
           rx="4.9561033"
           ry="5.1004963" /><ellipse
           style="opacity:1;mix-blend-mode:normal;fill:url(#radialGradient14719);fill-opacity:1;stroke-width:0;stroke-linecap:round;stroke-linejoin:round;paint-order:markers stroke fill;filter:url(#filter8006)"
           id="ellipse14711"
           cx="81.076187"
           cy="147.32449"
           rx="4.6577349"
           ry="4.6468482" /><ellipse
           style="opacity:1;mix-blend-mode:normal;fill:url(#radialGradient14721);fill-opacity:1;stroke-width:0;stroke-linecap:round;stroke-linejoin:round;paint-order:markers stroke fill;filter:url(#filter13708)"
           id="ellipse14713"
           cx="42.142654"
           cy="165.16661"
           rx="1.5060631"
           ry="1.3492454"
           transform="matrix(0.93333427,-0.35900856,0.24223841,0.97021676,0,0)" /></g><g
         id="g14771"
         transform="matrix(0.75572564,0,0,0.75572564,-28.45542,32.949252)"><ellipse
           style="opacity:1;fill:url(#radialGradient14773);fill-opacity:1;stroke-width:0;stroke-linecap:round;stroke-linejoin:round;paint-order:markers stroke fill"
           id="ellipse14765"
           cx="81.076187"
           cy="147.32449"
           rx="4.9561033"
           ry="5.1004963" /><ellipse
           style="opacity:1;mix-blend-mode:normal;fill:url(#radialGradient14775);fill-opacity:1;stroke-width:0;stroke-linecap:round;stroke-linejoin:round;paint-order:markers stroke fill;filter:url(#filter8006)"
           id="ellipse14767"
           cx="81.076187"
           cy="147.32449"
           rx="4.6577349"
           ry="4.6468482" /><ellipse
           style="opacity:1;mix-blend-mode:normal;fill:url(#radialGradient14777);fill-opacity:1;stroke-width:0;stroke-linecap:round;stroke-linejoin:round;paint-order:markers stroke fill;filter:url(#filter13708)"
           id="ellipse14769"
           cx="42.142654"
           cy="165.16661"
           rx="1.5060631"
           ry="1.3492454"
           transform="matrix(0.93333427,-0.35900856,0.24223841,0.97021676,0,0)" /></g><path
         style="opacity:1;fill:#92a321;fill-opacity:1;stroke:none;stroke-width:0.264583px;stroke-linecap:butt;stroke-linejoin:miter;stroke-opacity:1"
         d="m 38.920902,113.05421 c -1.01338,-0.54617 -1.94287,-0.61961 -3.0577,-0.68817 -0.44837,0.79509 0.0904,0.9076 -0.96352,1.06183 0.17333,0.75702 0.24923,0.65411 -0.275322,1.17982 0.341922,0.28418 0.329752,0.44595 0.196692,1.00285 0.78452,-0.11348 0.5151,0.42743 0.49162,1.06184 0.45336,10e-4 0.30005,0.16156 0.19664,0.53089 0.39351,0.0494 0.46326,0.12088 0.57024,0.49159 0.69236,-0.36649 0.52875,0.0657 0.57026,0.68823 0.80966,-0.0436 0.73509,0.17227 0.88486,0.90451 0.50443,-0.71627 0.63477,-0.41574 1.27814,0.0393 0.25853,-0.97682 0.9001,-1.62637 1.33713,-0.53093 0.69892,-0.47645 0.93854,-0.50677 1.7894,-0.23599 0.10145,-0.67489 0.53469,-0.0819 0.90452,0.17697 -0.0715,-0.66746 -0.38377,-1.06659 0.23597,-1.37645 -0.22265,-0.42092 -0.11461,-0.38846 0.29496,-0.53092 -0.17089,-0.72721 -0.32405,-0.80078 0.43259,-0.72755 -0.73465,-1.0557 -0.36755,-1.14276 0.76689,-1.19949 -0.0402,-0.64027 -0.44277,-1.08609 0.25563,-1.21919 -0.45166,-0.48378 -0.86427,-0.51176 -0.2163,-0.8652 -0.23614,-0.63658 -0.76738,-0.1121 -0.58993,-0.78655 -0.91584,-0.32057 -0.54458,-0.3599 0.1573,-0.72755 -0.78117,-0.13349 -1.02382,-0.12894 -1.23881,-0.84554 -0.79158,0.0548 -0.76534,0.0757 -0.53091,-0.64887 -0.57273,-0.0119 -0.79531,0.18366 -0.76685,-0.41293 -0.64046,0.44799 -0.62112,0.48133 -0.90453,-0.2163 -0.78713,0.72381 -0.64161,1.04688 -1.53377,0.27529 -0.75854,1.26238 -0.64219,2.26233 -0.2852,3.59849 z"
         id="path29078"
         sodipodi:nodetypes="cccccccccccccccccccccccccccc" /><path
         id="path29356"
         style="opacity:1;fill:url(#radialGradient29364);fill-opacity:1;stroke:none;stroke-width:0.264583px;stroke-linecap:butt;stroke-linejoin:miter;stroke-opacity:1"
         d="m 40.523438,110.1582 c -0.289291,0.31371 -0.790933,0.35753 -1.132813,0.10352 -0.523772,1.23468 -0.494843,1.89787 -0.226367,3.11868 -1.09276,-0.58177 -1.696925,-0.46711 -2.963089,-0.45852 -0.0471,0.39681 -0.238371,0.81723 -0.666016,0.9082 0.193404,0.41844 -0.361453,0.71393 -0.111328,1.08789 -0.03716,0.38112 0.547659,0.47619 0.47461,0.92383 -0.157706,0.43596 0.27984,0.60445 0.246093,1.01367 0.3209,0.26416 1.001913,0.19742 1.00253,0.81513 0.02263,0.33838 0.628378,0.44493 0.796298,0.66729 0.439193,0.0109 0.72605,0.31625 0.91211,-0.26562 0.374953,-0.53322 1.159983,-0.40571 1.521484,-0.0312 0.410319,-0.27476 1.048937,0.081 1.446939,0.005 0.419515,-0.10186 0.602858,-0.34702 0.714844,-0.76562 -0.01387,-0.4388 0.356706,-0.78834 0.187826,-1.2667 0.322096,-0.28119 0.137537,-0.56956 0.207032,-0.94531 0.07327,-0.49261 0.731695,-0.55818 1,-0.69336 -0.113903,-0.40406 0.15287,-0.7441 -0.150391,-1.06836 0.04704,-0.4072 -0.163492,-0.73459 -0.460937,-1.00195 -0.564215,-0.19754 -0.150215,-0.80529 -0.574472,-1.04466 -0.130825,-0.45783 -0.904704,-0.11439 -0.964591,-0.68191 -0.07808,-0.6191 -0.849203,-0.12018 -1.169922,-0.51171 l -0.06995,0.0715 z"
         sodipodi:nodetypes="cccccccccccccccccccccccc" /><path
         id="path29367"
         style="opacity:1;fill:url(#radialGradient29369);fill-opacity:1;stroke:none;stroke-width:0.264583px;stroke-linecap:butt;stroke-linejoin:miter;stroke-opacity:1"
         d="m 40.703125,110.77148 c -0.749466,-0.0179 -0.67889,0.92919 -0.886719,1.45899 -0.198952,0.50717 -0.554172,0.66643 -0.327198,1.6013 -1.209493,-0.65391 -1.600295,-0.31458 -2.782177,-0.37669 -0.492458,0.45888 -1.109699,1.35136 -0.373047,1.88281 0.250241,0.41689 -0.07701,1.2999 0.641343,1.29995 0.584743,0.24758 0.754029,0.95345 1.100845,1.43247 0.482232,-0.63882 1.499748,-0.71077 2.308639,-0.43732 0.672488,0.20479 2.043406,0.64007 1.93164,-0.73437 0.133736,-0.82673 -0.119786,-2.00301 0.457429,-2.55182 0.753855,-0.29298 0.656761,-1.27448 0.09436,-1.70403 -0.473514,-0.2616 -0.235908,-0.98611 -0.821363,-1.15839 -0.57375,-0.0377 -0.670168,-0.91341 -1.301626,-0.72734 z"
         sodipodi:nodetypes="cacccccccccccc" /><path
         id="path29374"
         style="opacity:1;fill:url(#radialGradient29376);fill-opacity:1;stroke:none;stroke-width:0.264583px;stroke-linecap:butt;stroke-linejoin:miter;stroke-opacity:1"
         d="m 40.878906,111.27148 c -0.459943,-0.0673 -0.456777,0.51418 -0.548828,0.83399 -0.266281,0.92512 -0.269595,1.57158 0.06214,2.88738 -1.446064,-0.73466 -2.333093,-0.93635 -3.511356,-0.95379 -0.330528,0.30728 -0.502565,0.79905 -0.06732,1.07096 0.286233,0.30653 -0.04938,0.98602 0.41693,1.06576 0.442692,0.19885 0.737621,0.60936 0.953125,1.0293 0.712209,-0.64291 2.102358,0.083 2.963539,0.33584 0.503672,0.1123 0.866342,-0.19595 0.899821,-0.68475 0.204776,-0.84684 -0.220385,-2.66951 0.683515,-3.11398 0.246619,-0.64027 -0.689735,-0.85855 -0.711132,-1.47446 -0.04445,-0.46335 -0.688944,-0.32124 -0.872853,-0.73257 -0.09021,-0.0732 -0.153511,-0.23461 -0.267578,-0.26368 z"
         sodipodi:nodetypes="cacccccccccccc" /></g></g></svg>
