<?xml version="1.0" encoding="UTF-8" standalone="no"?>
<!-- Created with Inkscape (http://www.inkscape.org/) -->

<svg
   width="210mm"
   height="297mm"
   viewBox="0 0 210 297"
   version="1.1"
   id="svg5"
   inkscape:version="1.2.1 (9c6d41e410, 2022-07-14)"
   sodipodi:docname="grass.svg"
   xmlns:inkscape="http://www.inkscape.org/namespaces/inkscape"
   xmlns:sodipodi="http://sodipodi.sourceforge.net/DTD/sodipodi-0.dtd"
   xmlns:xlink="http://www.w3.org/1999/xlink"
   xmlns="http://www.w3.org/2000/svg"
   xmlns:svg="http://www.w3.org/2000/svg">
  <sodipodi:namedview
     id="namedview7"
     pagecolor="#ffffff"
     bordercolor="#666666"
     borderopacity="1.0"
     inkscape:showpageshadow="2"
     inkscape:pageopacity="0.0"
     inkscape:pagecheckerboard="0"
     inkscape:deskcolor="#d1d1d1"
     inkscape:document-units="mm"
     showgrid="false"
     inkscape:zoom="1.7852694"
     inkscape:cx="274.18831"
     inkscape:cy="207.5317"
     inkscape:window-width="1591"
     inkscape:window-height="1024"
     inkscape:window-x="1725"
     inkscape:window-y="236"
     inkscape:window-maximized="0"
     inkscape:current-layer="layer1" />
  <defs
     id="defs2">
    <linearGradient
       inkscape:collect="always"
       id="linearGradient2282">
      <stop
         style="stop-color:#25d61b;stop-opacity:1;"
         offset="0"
         id="stop2278" />
      <stop
         style="stop-color:#406c46;stop-opacity:1;"
         offset="1"
         id="stop2280" />
    </linearGradient>
    <linearGradient
       inkscape:collect="always"
       id="linearGradient2162">
      <stop
         style="stop-color:#00c000;stop-opacity:1;"
         offset="0"
         id="stop2158" />
      <stop
         style="stop-color:#fffdd2;stop-opacity:1;"
         offset="1"
         id="stop2160" />
    </linearGradient>
    <linearGradient
       inkscape:collect="always"
       id="linearGradient2156">
      <stop
         style="stop-color:#187418;stop-opacity:1;"
         offset="0"
         id="stop2152" />
      <stop
         style="stop-color:#aaffaa;stop-opacity:0.99367088;"
         offset="1"
         id="stop2154" />
    </linearGradient>
    <linearGradient
       inkscape:collect="always"
       id="linearGradient2150">
      <stop
         style="stop-color:#0e790e;stop-opacity:1;"
         offset="0"
         id="stop2146" />
      <stop
         style="stop-color:#88ff88;stop-opacity:0.99367088;"
         offset="1"
         id="stop2148" />
    </linearGradient>
    <linearGradient
       inkscape:collect="always"
       id="linearGradient2109">
      <stop
         style="stop-color:#10d210;stop-opacity:1;"
         offset="0"
         id="stop2105" />
      <stop
         style="stop-color:#fff988;stop-opacity:1;"
         offset="1"
         id="stop2107" />
    </linearGradient>
    <linearGradient
       inkscape:collect="always"
       id="linearGradient1973">
      <stop
         style="stop-color:#008300;stop-opacity:1;"
         offset="0"
         id="stop1969" />
      <stop
         style="stop-color:#c7ffc7;stop-opacity:0.99367088;"
         offset="1"
         id="stop1971" />
    </linearGradient>
    <linearGradient
       inkscape:collect="always"
       xlink:href="#linearGradient2150"
       id="linearGradient1975"
       x1="28.294857"
       y1="101.70428"
       x2="28.242458"
       y2="92.377464"
       gradientUnits="userSpaceOnUse"
       gradientTransform="matrix(0.61032375,0,0,0.37094574,5.2698149,63.597251)" />
    <linearGradient
       inkscape:collect="always"
       xlink:href="#linearGradient2162"
       id="linearGradient2103"
       gradientUnits="userSpaceOnUse"
       x1="28.294857"
       y1="101.70428"
       x2="28.242458"
       y2="92.377464"
       gradientTransform="matrix(-0.60416931,0,0,0.25857014,40.566914,74.978853)" />
    <linearGradient
       inkscape:collect="always"
       xlink:href="#linearGradient2156"
       id="linearGradient2113"
       gradientUnits="userSpaceOnUse"
       gradientTransform="matrix(0.48285382,0,0,0.37094574,26.005501,63.597252)"
       x1="28.294857"
       y1="101.70428"
       x2="28.242458"
       y2="92.377464" />
    <linearGradient
       inkscape:collect="always"
       xlink:href="#linearGradient2109"
       id="linearGradient2117"
       gradientUnits="userSpaceOnUse"
       gradientTransform="matrix(-0.63733009,0,0,0.23643658,61.489852,77.237642)"
       x1="28.294857"
       y1="101.70428"
       x2="28.242458"
       y2="92.377464" />
    <linearGradient
       inkscape:collect="always"
       xlink:href="#linearGradient1973"
       id="linearGradient2121"
       gradientUnits="userSpaceOnUse"
       gradientTransform="matrix(0.43742374,0,0,0.37094574,41.909434,63.644592)"
       x1="28.294857"
       y1="101.70428"
       x2="28.242458"
       y2="92.377464" />
    <linearGradient
       inkscape:collect="always"
       xlink:href="#linearGradient2109"
       id="linearGradient2166"
       gradientUnits="userSpaceOnUse"
       gradientTransform="matrix(-0.40962531,0,0,0.18635411,70.795634,82.320247)"
       x1="28.294857"
       y1="101.70428"
       x2="28.242458"
       y2="92.377464" />
    <linearGradient
       inkscape:collect="always"
       xlink:href="#linearGradient1973"
       id="linearGradient2170"
       gradientUnits="userSpaceOnUse"
       gradientTransform="matrix(0.43742374,0,0,0.3753727,53.938607,63.229799)"
       x1="28.294857"
       y1="101.70428"
       x2="28.242458"
       y2="92.377464" />
    <linearGradient
       inkscape:collect="always"
       xlink:href="#linearGradient1973"
       id="linearGradient2174"
       gradientUnits="userSpaceOnUse"
       gradientTransform="matrix(0.43742374,0,0,0.3753727,36.912938,63.185799)"
       x1="28.294857"
       y1="101.70428"
       x2="28.242458"
       y2="92.377464" />
    <linearGradient
       inkscape:collect="always"
       xlink:href="#linearGradient2109"
       id="linearGradient2178"
       gradientUnits="userSpaceOnUse"
       gradientTransform="matrix(-0.33577977,0,0,0.18635411,81.312849,82.320247)"
       x1="28.294857"
       y1="101.70428"
       x2="28.242458"
       y2="92.377464" />
    <linearGradient
       inkscape:collect="always"
       xlink:href="#linearGradient1973"
       id="linearGradient2182"
       gradientUnits="userSpaceOnUse"
       gradientTransform="matrix(0.40381414,0,0,0.29907244,57.902544,70.94045)"
       x1="28.294857"
       y1="101.70428"
       x2="28.242458"
       y2="92.377464" />
    <linearGradient
       inkscape:collect="always"
       xlink:href="#linearGradient2282"
       id="linearGradient2284"
       x1="39.606316"
       y1="101.07732"
       x2="39.606316"
       y2="101.97926"
       gradientUnits="userSpaceOnUse"
       gradientTransform="matrix(1.0043811,0,0,0.92725796,-0.31279469,7.3887458)" />
    <filter
       inkscape:collect="always"
       style="color-interpolation-filters:sRGB"
       id="filter3320"
       x="-0.0057822332"
       y="-0.10430198"
       width="1.0115645"
       height="1.208604">
      <feGaussianBlur
         inkscape:collect="always"
         stdDeviation="0.15630873"
         id="feGaussianBlur3322" />
    </filter>
    <clipPath
       clipPathUnits="userSpaceOnUse"
       id="clipPath889">
      <rect
         style="opacity:0.555294;fill:#9999c9;fill-opacity:1;fill-rule:evenodd;stroke-width:0.123011"
         id="rect891"
         width="64.560524"
         height="4.3469629"
         x="12.323466"
         y="97.602859" />
    </clipPath>
  </defs>
  <g
     inkscape:label="Layer 1"
     inkscape:groupmode="layer"
     id="layer1">
    <g
       id="g5661"
       transform="matrix(1.9018842,0,0,2.6339707,-15.145231,-248.749)"
       inkscape:export-filename="g5661.png"
       inkscape:export-xdpi="211.82761"
       inkscape:export-ydpi="211.82761"
       clip-path="url(#clipPath889)">
      <path
         id="path3297"
         style="opacity:1;fill:#0c4700;fill-opacity:1;stroke:none;stroke-width:0.0591344px;stroke-linecap:round;stroke-linejoin:miter;stroke-opacity:1;filter:url(#filter3320)"
         d="m 44.857727,97.977999 c 0.219805,1.088389 0.107389,1.563978 -0.153996,2.061371 -0.0327,-0.374793 0.04416,-0.719328 -0.21239,-1.782835 -0.121853,0.815466 -0.273257,1.224203 -0.465605,1.541508 0.02914,-0.217599 0.02509,-0.546261 -0.107486,-1.160136 -0.163642,1.223291 -0.513015,1.427293 -0.905888,1.791103 -0.1494,-0.23551 -0.180111,-0.49048 -0.377755,-1.129128 -0.13366,0.267561 -0.238028,0.463403 -0.330729,0.6196 -0.410217,-0.382376 -0.810594,-0.784289 -1.051099,-1.781286 -0.08429,0.564108 -0.03736,0.944975 0.04341,1.240234 -0.136562,0.231361 -0.303816,0.407571 -0.489892,0.550871 -0.161665,-0.356319 -0.278833,-0.73671 -0.515731,-1.718758 -0.212017,1.418704 -0.169634,1.630916 -0.489376,2.257747 -0.151067,0.0684 -0.30107,0.14003 -0.446484,0.22065 -0.530931,-1.035563 -1.027381,-1.754955 -2.046387,-1.912023 0.539823,0.725795 0.872054,0.997606 0.617533,1.691373 -0.361992,-0.23609 -0.631375,-0.477268 -0.836124,-1.138952 -0.07748,0.155093 -0.13013,0.284065 -0.168465,0.396875 -0.127644,-0.311272 -0.189728,-0.735889 -0.168466,-1.60042 -1.125926,0.526731 -0.555713,1.396068 -0.72502,2.324927 -0.01993,-0.10021 -0.108093,-0.21543 -0.489376,-0.43874 -0.09203,-0.655765 -0.03466,-1.202911 -0.763261,-2.032948 0.379786,1.683526 -0.13578,1.883171 -0.780314,3.004468 -0.59517,-1.200213 0.166267,-0.60065 -0.256315,-2.352311 -0.116275,0.778133 -0.317911,1.138602 -0.562239,1.392681 -0.05836,-0.07946 -0.133113,-0.172556 -0.22841,-0.282155 -0.06472,-0.288192 -0.124306,-0.659315 -0.177767,-1.143599 -0.774578,1.365812 -0.491271,1.359761 -0.82579,1.945614 -0.459782,-0.20654 -0.855134,-0.40582 -1.053165,-1.144112 -0.107134,0.247396 -0.152929,0.426899 -0.164848,0.563789 -0.07096,-0.178935 -0.106202,-0.473801 -0.117822,-1.065051 -1.013576,0.839982 -0.95944,1.019923 -0.961699,1.298624 -0.240389,-0.292495 -0.307466,-0.624276 -0.05323,-1.252115 -0.376144,0.238718 -0.584113,0.443841 -0.70745,0.634586 -0.01049,-0.284609 -0.05005,-0.666788 -0.250114,-1.322916 -0.158696,0.840219 -0.357589,1.24789 -0.611332,1.569413 -9.91e-4,-0.308918 -0.13968,-0.57921 -0.905371,-0.778764 0.04117,0.932524 -0.170558,1.133826 -0.547254,1.440736 -0.226018,-0.22384 -0.467781,-0.39662 -0.706933,-0.573088 0.148441,-0.118531 0.339443,-0.248857 0.559139,-0.413412 -0.335018,0.02877 -0.624747,0.08466 -0.882117,0.164331 -0.396785,-0.327846 -0.760897,-0.743585 -0.999939,-1.527555 -0.191483,1.013809 0.152522,1.43723 0.31781,1.831929 -0.20883,0.126175 -0.396896,0.274695 -0.577742,0.440805 -0.407556,-0.617515 -0.531996,-0.809762 -0.956014,-2.200387 -0.20175,1.068049 -0.221893,1.452141 -0.391708,1.844327 -0.06346,-0.209926 -0.118259,-0.488074 -0.241845,-0.948775 -0.337868,0.780263 -0.482233,1.016585 -0.735356,1.303275 -0.15308,-0.22301 -0.307003,-0.428911 -0.470772,-0.613394 0.06529,-0.187149 0.08803,-0.421464 0.0026,-0.740007 -0.07826,0.180725 -0.170305,0.332909 -0.272335,0.464571 -0.429443,-0.394002 -0.941839,-0.656065 -1.659847,-0.743623 0.569909,0.60621 0.956482,0.895205 0.881083,1.378213 -0.241179,0.1357 -0.492268,0.25308 -0.733289,0.3948 -0.566718,-0.722646 -0.902115,-0.766812 -0.850594,-2.424137 -1.280449,0.473911 -0.825322,1.225049 -0.876949,2.047417 -0.220915,-0.21593 -0.397035,-0.499563 -0.540535,-1.034558 -0.08329,0.192347 -0.138981,0.350766 -0.1757,0.484724 -0.0702,-0.500451 -0.172268,-0.98268 -0.906405,-1.644344 0.305802,1.072447 0.151601,1.542962 -0.21084,2.032948 -0.14102,-0.108667 -0.349687,-0.245296 -0.659908,-0.426327 -0.02059,0.737727 -0.11716,0.814787 -0.35605,0.948777 -0.245828,-0.620305 0.366306,-0.42743 -0.08372,-1.903241 -0.206953,1.095714 -0.626556,1.363983 -1.11156,1.672251 -0.06365,-0.1723 -0.168791,-0.405831 -0.588595,-0.927077 -0.264989,1.690267 -0.682095,1.415907 -1.127579,1.693437 h -0.04858 v 0.50488 H 77.04595 V 101.0698 H 76.9705 c -0.204712,-0.20895 -0.412209,-0.29146 -0.591696,-0.41238 -0.10826,-0.23053 -0.204338,-0.65004 -0.281119,-1.497581 -0.54287,1.166461 -0.299015,1.090401 -0.589112,1.656751 -0.314887,-0.34339 -0.506588,-0.54469 -0.294555,-1.223703 -0.318805,0.262373 -0.420794,0.468303 -0.468706,0.667143 -0.04687,-0.1443 -0.06983,-0.382081 -0.07751,-0.858345 -0.205639,0.207666 -0.345025,0.365214 -0.43925,0.490409 -0.07496,-0.08424 -0.196179,-0.159926 -0.38964,-0.225309 0.006,0.176217 0.0024,0.315506 -0.0098,0.429945 -0.06728,-0.319231 -0.128287,-0.775984 -0.180867,-1.448488 -0.08863,0.220649 -0.157073,0.404339 -0.211874,0.56224 -0.02007,-0.09871 -0.04396,-0.206418 -0.0739,-0.326079 -0.09864,0.636396 -0.220536,0.96505 -0.374137,1.217497 -0.209147,0.0797 -0.379829,0.19591 -0.533301,0.34106 -0.245556,-0.29656 -0.3386,-0.23717 -0.356051,-1.49086 -0.473029,0.553496 -0.62115,0.823689 -0.667659,1.022676 -0.015,-0.07891 -0.03184,-0.164737 -0.05271,-0.265617 -0.03538,0.105938 -0.06628,0.197076 -0.09509,0.27802 -0.158101,-0.164106 -0.307383,-0.357407 -0.434082,-0.63097 -0.01962,-0.255381 -0.06297,-0.583792 -0.164331,-1.053165 -0.126896,0.948601 -0.289548,1.352542 -0.502812,1.698086 -0.09322,-0.24409 -0.185037,-0.563431 -0.332796,-1.153934 -0.192551,1.242124 -0.134727,1.337884 -0.485758,1.959574 -0.534051,-0.935581 -1.261282,-0.998171 -1.612305,-2.623616 -0.07479,0.559054 -0.03576,0.940442 0.03462,1.236617 -0.130698,-0.05315 -0.272794,-0.09233 -0.430464,-0.115755 0.432886,0.561098 0.705912,0.785454 0.540018,1.296044 -0.02022,-0.10341 -0.111402,-0.23374 -0.522965,-0.54519 -2.1e-5,9.5e-4 2e-5,0.002 0,0.003 -0.160327,-0.380327 -0.266068,-0.750646 -0.492993,-1.801442 -0.02862,0.213915 -0.05159,0.398139 -0.07183,0.563273 -0.618869,0.319381 -0.529319,0.77939 -0.500744,1.293979 -0.03512,-0.0624 -0.07472,-0.129898 -0.124024,-0.209291 -0.049,0.405351 -0.107407,0.653221 -0.172599,0.811841 -0.03256,-0.0704 -0.06569,-0.13887 -0.09819,-0.20619 -7.4e-5,-3.4e-4 7.4e-5,-7e-4 0,-0.001 -0.137988,-0.628094 0.01234,-1.092613 -0.675411,-1.847945 0.08736,0.373322 0.117536,0.655643 0.104903,0.888317 -0.302509,-0.380321 -0.663487,-0.6332 -1.163753,-0.719336 0.506822,0.761173 0.81127,1.027987 0.53175,1.789034 -0.111896,-0.0692 -0.212804,-0.15458 -0.297656,-0.28008 0.05239,-0.18307 0.147045,-0.39492 -0.04237,-1.151869 -0.07784,0.502233 -0.201473,0.788131 -0.352433,0.987539 -0.240113,-0.40258 -0.370498,-0.737157 -0.342615,-2.003498 -0.768692,0.401695 -0.66438,0.999938 -0.632002,1.672766 -0.309088,0.306372 -0.269347,0.542862 -0.3483,0.824752 -0.287804,-0.966226 0.03267,-1.572333 -0.81132,-2.646346 0.16915,0.837561 0.142094,1.312119 0.0016,1.713074 -0.04599,-0.01832 -0.09749,-0.03569 -0.153996,-0.05271 -0.04012,-0.271909 -0.07784,-0.610151 -0.111621,-1.037146 -0.312287,0.76831 -0.383628,1.101104 -0.429431,1.350305 -0.05946,0.0057 -0.116691,0.01281 -0.172083,0.02118 0.053,-0.216983 0.100336,-0.53047 -0.07338,-1.334828 -0.128982,0.964198 -0.373908,1.294433 -0.664042,1.569448 -0.138406,-0.1679 -0.196863,-0.34979 -0.210324,-1.305382 -1.138763,1.316782 -0.396428,1.010802 -0.877982,2.007662 -0.07894,-0.0849 -0.138674,-0.15507 -0.185519,-0.21859 -0.32557,-0.858424 -0.0058,-0.854328 -0.350366,-2.430893 -0.219483,1.621377 -0.545741,1.636053 -1.056783,2.520803 -0.06372,-0.31215 0.438123,-0.45182 0.261483,-1.151894 -0.171899,0.422024 -0.440285,0.631064 -0.728638,0.801534 -0.102363,-0.13408 -0.208711,-0.24984 -0.315743,-0.36122 v -5.2e-4 c -0.07237,-0.321068 -0.13738,-0.793636 -0.19327,-1.508463 -0.16817,0.418687 -0.266971,0.709697 -0.329178,0.928626 -0.226706,-0.303196 -0.429928,-0.699183 -0.571542,-1.347205 -0.220609,1.629688 0.550737,1.733891 0.186552,2.645862 -0.115656,-0.0927 -0.219564,-0.16729 -0.313159,-0.2465 -0.243558,-0.51696 -0.355129,-0.730569 -0.514181,-1.339995 -0.0033,-0.101184 -0.0065,-0.210838 -0.0083,-0.33693 -0.02063,0.02414 -0.03898,0.04669 -0.05839,0.06976 -0.04803,-0.199257 -0.101313,-0.432 -0.164331,-0.72037 -0.06639,0.490349 -0.105121,0.83373 -0.139527,1.102775 -0.465029,0.63626 -0.26823,0.7104 -0.350883,1.11882 -0.07278,-0.0855 -0.221007,-0.20264 -0.505912,-0.38292 -0.0369,-0.393013 0.04494,-0.729264 -0.194303,-1.837124 -0.08548,0.639026 -0.187115,1.030424 -0.309542,1.32395 -0.310136,-0.402268 -0.68044,-0.669957 -1.201477,-0.75861 0.486386,0.721865 0.786883,0.994004 0.563273,1.679504 -0.04826,-0.11953 -0.137661,-0.28853 -0.373621,-0.599984 -0.03897,0.264254 -0.08292,0.460824 -0.130741,0.610324 -0.37751,-0.646364 -0.597718,-0.748687 -0.56224,-2.340967 -0.435696,0.224996 -0.590319,0.512866 -0.63717,0.840775 -0.108393,-0.233 -0.204973,-0.515097 -0.28267,-0.874882 -0.173788,1.299134 0.267827,1.640314 0.285254,2.177664 -0.01784,0.21826 -0.06602,0.44076 -0.172599,0.66405 -0.025,-0.02 -0.04982,-0.0403 -0.07441,-0.0594 -0.457879,-1.126319 0.01406,-1.733522 -0.909505,-2.894938 0.04888,0.239175 0.08059,0.447377 0.0987,0.633553 -0.03066,-0.135543 -0.06259,-0.280801 -0.0987,-0.448035 -0.06121,0.457536 -0.09928,0.789486 -0.131775,1.052132 -0.695686,0.428956 -0.706507,0.741078 -0.790132,1.088848 -0.02146,-0.370996 0.257584,-0.415333 -0.01757,-1.674342 -0.07935,0.586175 -0.202453,0.935038 -0.35295,1.18029 -0.216944,-0.353849 -0.456478,-0.635743 -0.75706,-0.826306 -0.01463,-0.133837 -0.02873,-0.278311 -0.04237,-0.434599 -0.05492,0.122417 -0.101769,0.230514 -0.144177,0.33228 -0.141337,-0.06649 -0.295166,-0.115349 -0.465605,-0.144695 0.124971,0.187688 0.236039,0.34439 0.33073,0.486792 -0.002,0.0053 -0.0043,0.01126 -0.0062,0.01654 -0.05421,-0.01468 -0.111417,-0.02947 -0.173116,-0.04341 0.02834,0.55649 -0.05498,0.82739 -0.226859,1.02633 -0.294472,-0.479767 -0.45944,-0.735816 -0.428398,-2.145642 -0.417185,0.218008 -0.577508,0.49438 -0.631486,0.808736 -0.248778,0.26277 -0.412511,0.459389 -0.519865,0.613916 -0.05138,-0.47408 -0.14569,-0.942247 -0.639754,-1.570963 z m -3.442684,1.750797 c 0.146932,0.381724 0.268411,0.654504 -0.03566,1.214394 -0.01334,0.0127 -0.02648,0.0255 -0.04031,0.0388 -0.119354,-0.24014 -0.213087,-0.41969 -0.295073,-0.57671 0.124174,-0.17396 0.328587,-0.36081 0.371037,-0.676444 z m 19.77192,0.280084 c -0.03585,0.19649 -0.05978,0.34736 -0.176217,0.62219 -0.06448,-0.21863 -0.0575,-0.34065 -0.03101,-0.46147 0.06317,-0.0488 0.132859,-0.10192 0.207223,-0.16072 z" />
      <path
         d="m 63.033836,101.16373 c 0.538872,-0.85802 1.117142,-0.5662 1.335851,-1.977235 0.353409,1.412275 -0.283563,0.928765 0.214184,1.896425 0.539028,-0.90404 0.970545,-1.06505 0.652927,-2.422382 0.880796,0.967343 0.386875,1.458072 0.884599,2.425712 0.539027,-0.90401 -0.35243,-1.801461 0.769135,-2.307289 -0.03994,1.565699 0.270667,1.343009 0.76839,2.310649 0.539027,-0.90402 0.246495,-1.0727 -0.303566,-1.785677 0.934431,0.138856 1.343368,0.821367 1.841103,1.789037 0.53904,-0.90403 0.434206,-0.83493 0.652939,-2.245953 0.353384,1.412263 0.386876,1.281633 0.884597,2.249313 0.539029,-0.90405 -0.298794,-0.8963 -0.08008,-2.307328 0.353384,1.412268 1.119888,1.343008 1.61761,2.310668 0.539029,-0.90404 0.872239,-0.80423 1.090947,-2.215261 0.353384,1.412271 -0.05114,1.250951 0.446592,2.218601 0.539014,-0.90402 -0.227294,-0.60476 0.858515,-1.701276 0.02265,1.404606 0.181299,0.736986 0.679022,1.704636 0.539027,-0.90403 0.13026,-0.61243 0.751257,-1.946761 0.183539,2.025971 0.476267,1.611511 0.786135,1.996141"
         style="fill:url(#linearGradient2182);fill-opacity:1;stroke:none;stroke-width:0.0591344px;stroke-linecap:round;stroke-linejoin:miter;stroke-opacity:1"
         id="path2180"
         sodipodi:nodetypes="ccccccccccccccccccc" />
      <path
         d="m 42.47131,101.11973 c 0.583722,-1.07692 1.210122,-0.71065 1.447034,-2.481673 0.382823,1.772583 -0.307164,1.16571 0.23201,2.380253 0.583892,-1.134684 1.051324,-1.336776 0.707271,-3.040394 0.954105,1.214135 0.419075,1.830062 0.958224,3.044574 0.583891,-1.134654 -0.381763,-2.261062 0.833151,-2.895939 -0.04327,1.965139 0.293194,1.685636 0.832343,2.900149 0.583891,-1.134655 0.267011,-1.346374 -0.328832,-2.241243 1.012204,0.17428 1.455177,1.030914 1.994339,2.245463 0.583904,-1.134666 0.470345,-1.04794 0.707283,-2.81895 0.382797,1.77257 0.419076,1.60861 0.958223,2.82316 0.583892,-1.134691 -0.323663,-1.12496 -0.08675,-2.895976 0.382797,1.772575 1.213097,1.685636 1.752245,2.900176 0.583892,-1.134681 0.944835,-1.00941 1.181747,-2.780428 0.382796,1.772578 -0.0554,1.570098 0.483761,2.784618 0.583877,-1.134662 -0.246211,-0.75905 0.92997,-2.135312 0.02454,1.762952 0.196389,0.925003 0.735537,2.139522 0.583891,-1.134662 0.141102,-0.76867 0.813785,-2.443418 0.198815,2.542848 0.515907,2.022638 0.851565,2.505398"
         style="fill:url(#linearGradient2174);fill-opacity:1;stroke:none;stroke-width:0.0689515px;stroke-linecap:round;stroke-linejoin:miter;stroke-opacity:1"
         id="path2172"
         sodipodi:nodetypes="ccccccccccccccccccc" />
      <path
         d="m 59.496979,101.16373 c 0.583722,-1.07692 1.210122,-0.71065 1.447034,-2.481673 0.382823,1.772583 -0.307164,1.16571 0.23201,2.380253 0.583892,-1.134684 1.051324,-1.336776 0.707271,-3.040394 0.954105,1.214135 0.419075,1.830062 0.958224,3.044574 0.583891,-1.134654 -0.381763,-2.261062 0.833151,-2.895939 -0.04327,1.965139 0.293194,1.685636 0.832343,2.900149 0.583891,-1.134655 0.267011,-1.346374 -0.328832,-2.241243 1.012204,0.17428 1.455177,1.030914 1.994339,2.245463 0.583904,-1.134666 0.470345,-1.04794 0.707283,-2.81895 0.382797,1.77257 0.419076,1.60861 0.958223,2.82316 0.583892,-1.134691 -0.323663,-1.12496 -0.08675,-2.895976 0.382797,1.772575 1.213097,1.685636 1.752245,2.900176 0.583892,-1.134681 0.944835,-1.00941 1.181747,-2.780428 0.382796,1.772578 -0.0554,1.570098 0.483761,2.784618 0.583877,-1.134662 -0.246211,-0.75905 0.92997,-2.135312 0.02454,1.762952 0.196389,0.925003 0.735537,2.139522 0.583891,-1.134662 0.141102,-0.76867 0.813785,-2.443418 0.198815,2.542848 0.515907,2.022638 0.851565,2.505398"
         style="fill:url(#linearGradient2170);fill-opacity:1;stroke:none;stroke-width:0.0689515px;stroke-linecap:round;stroke-linejoin:miter;stroke-opacity:1"
         id="path2168"
         sodipodi:nodetypes="ccccccccccccccccccc" />
      <path
         d="m 47.467806,101.13114 c 0.583722,-1.06421 1.210122,-0.70227 1.447034,-2.452396 0.382823,1.751666 -0.307164,1.151962 0.23201,2.352176 0.583892,-1.121298 1.051324,-1.321006 0.707271,-3.004533 0.954105,1.199816 0.419075,1.808479 0.958224,3.008663 0.583891,-1.121268 -0.381763,-2.234391 0.833151,-2.861781 -0.04327,1.941961 0.293194,1.665757 0.832343,2.865941 0.583891,-1.121268 0.267011,-1.33049 -0.328832,-2.214805 1.012204,0.172224 1.455177,1.018756 1.994339,2.218975 0.583904,-1.121278 0.470345,-1.03557 0.707283,-2.785699 0.382797,1.751669 0.419076,1.58964 0.958223,2.789859 0.583892,-1.121303 -0.323663,-1.111687 -0.08675,-2.861816 0.382797,1.75167 1.213097,1.665757 1.752245,2.865966 0.583892,-1.121293 0.944835,-0.9975 1.181747,-2.74763 0.382796,1.75167 -0.0554,1.551581 0.483761,2.75177 0.583877,-1.121273 -0.246211,-0.7501 0.92997,-2.110122 0.02454,1.742152 0.196389,0.914094 0.735537,2.114282 0.583891,-1.121273 0.141102,-0.75961 0.813785,-2.414593 0.198815,2.512853 0.515907,1.998773 0.851565,2.475843"
         style="fill:url(#linearGradient2121);fill-opacity:1;stroke:none;stroke-width:0.0685437px;stroke-linecap:round;stroke-linejoin:miter;stroke-opacity:1"
         id="path2119"
         sodipodi:nodetypes="ccccccccccccccccccc" />
      <path
         d="m 13.025239,101.0838 c 0.814449,-1.06421 1.688445,-0.70227 2.019001,-2.452397 0.534141,1.751667 -0.428576,1.151962 0.323717,2.352177 0.814686,-1.121299 1.46688,-1.321007 0.986833,-3.004534 1.331233,1.199816 0.584723,1.808479 1.33698,3.008664 0.814685,-1.121269 -0.532662,-2.234392 1.16247,-2.861782 -0.06037,1.941962 0.409085,1.665757 1.161342,2.865942 0.814685,-1.121269 0.372552,-1.330491 -0.458808,-2.214806 1.412296,0.172224 2.030362,1.018756 2.782639,2.218976 0.814702,-1.121279 0.656257,-1.03557 0.986849,-2.7857 0.534105,1.751671 0.584724,1.58964 1.33698,2.78986 0.814686,-1.121304 -0.451597,-1.111688 -0.121041,-2.861817 0.534104,1.75167 1.692596,1.665757 2.444853,2.865967 0.814686,-1.121294 1.318298,-0.9975 1.648854,-2.747631 0.534104,1.751671 -0.0773,1.551581 0.674977,2.751771 0.814666,-1.121274 -0.343531,-0.7501 1.297558,-2.110123 0.03424,1.742153 0.274015,0.914094 1.026272,2.114283 0.814685,-1.121274 0.196876,-0.75961 1.135449,-2.414594 0.277401,2.512854 0.719829,1.998774 1.188162,2.475844"
         style="fill:url(#linearGradient1975);fill-opacity:1;stroke:none;stroke-width:0.0809648px;stroke-linecap:round;stroke-linejoin:miter;stroke-opacity:1"
         id="path8980"
         sodipodi:nodetypes="ccccccccccccccccccc" />
      <path
         d="m 32.889695,101.1091 c -0.806235,-0.74182 -1.671418,-0.48952 -1.998642,-1.709462 -0.528754,1.221012 0.424255,0.802982 -0.320452,1.639602 -0.80647,-0.78161 -1.452087,-0.92082 -0.976881,-2.094331 -1.317809,0.83634 -0.578828,1.260611 -1.323499,2.097211 -0.80647,-0.78159 0.527291,-1.5575 -1.150748,-1.994828 0.05976,1.353658 -0.404959,1.161128 -1.149631,1.997728 -0.80647,-0.78159 -0.368795,-0.92743 0.454181,-1.543847 -1.398054,0.12005 -2.009887,0.710127 -2.754577,1.546747 -0.806488,-0.78159 -0.649641,-0.72184 -0.9769,-1.941787 -0.528718,1.221007 -0.578827,1.108077 -1.323497,1.944687 -0.806471,-0.78161 0.447044,-0.7749 0.119821,-1.994845 -0.528719,1.221015 -1.675529,1.161125 -2.4202,1.997745 -0.80647,-0.78161 -1.305004,-0.69531 -1.632228,-1.915258 -0.528717,1.221008 0.07652,1.081538 -0.668169,1.918138 -0.806452,-0.78158 0.340066,-0.52286 -1.284475,-1.470871 -0.03389,1.214381 -0.271251,0.637171 -1.015922,1.473771 -0.806471,-0.78159 -0.194892,-0.52949 -1.123999,-1.683108 -0.274604,1.751598 -0.71257,1.393258 -1.176182,1.725798"
         style="fill:url(#linearGradient2103);fill-opacity:1;stroke:none;stroke-width:0.0672558px;stroke-linecap:round;stroke-linejoin:miter;stroke-opacity:1"
         id="path2101"
         sodipodi:nodetypes="ccccccccccccccccccc" />
      <path
         d="m 32.141157,101.0838 c 0.644346,-1.06421 1.335802,-0.70227 1.59732,-2.452396 0.422582,1.751666 -0.339065,1.151962 0.256106,2.352176 0.644534,-1.121298 1.160513,-1.321006 0.780727,-3.004533 1.053196,1.199816 0.4626,1.808479 1.057744,3.008663 0.644532,-1.121268 -0.421413,-2.234391 0.91968,-2.861781 -0.04776,1.941961 0.323645,1.665757 0.918789,2.865941 0.644533,-1.121268 0.294742,-1.33049 -0.362983,-2.214805 1.117329,0.172224 1.606308,1.018756 2.201467,2.218975 0.644546,-1.121278 0.519194,-1.035569 0.78074,-2.785699 0.422553,1.751671 0.4626,1.58964 1.057743,2.789859 0.644534,-1.121303 -0.357278,-1.111687 -0.09576,-2.861816 0.422553,1.75167 1.339087,1.665757 1.93423,2.865966 0.644534,-1.121293 1.042963,-0.9975 1.304481,-2.74763 0.422553,1.75167 -0.06115,1.551581 0.534003,2.75177 0.644519,-1.121273 -0.271782,-0.7501 1.026555,-2.110122 0.02709,1.742152 0.216786,0.914094 0.811929,2.114282 0.644533,-1.121273 0.155758,-0.75961 0.898304,-2.414593 0.219464,2.512853 0.569488,1.998773 0.940007,2.475843"
         style="fill:url(#linearGradient2113);fill-opacity:1;stroke:none;stroke-width:0.0720151px;stroke-linecap:round;stroke-linejoin:miter;stroke-opacity:1"
         id="path2111"
         sodipodi:nodetypes="ccccccccccccccccccc" />
      <path
         d="m 53.391256,101.13114 c -0.850487,-0.67832 -1.763156,-0.44762 -2.10834,-1.563133 -0.557776,1.116493 0.44754,0.734253 -0.338041,1.499253 -0.850735,-0.71471 -1.531787,-0.84199 -1.030499,-1.915056 -1.390139,0.764752 -0.610597,1.152706 -1.396141,1.917696 -0.850734,-0.7147 0.556232,-1.424185 -1.213908,-1.824078 0.06304,1.237788 -0.427187,1.061728 -1.212731,1.826718 -0.850734,-0.71468 -0.389037,-0.84803 0.47911,-1.411688 -1.474789,0.109776 -2.120204,0.649348 -2.905767,1.414338 -0.850753,-0.71468 -0.685297,-0.66005 -1.030518,-1.775564 -0.557738,1.116484 -0.610597,1.013224 -1.39614,1.778224 -0.850735,-0.7147 0.471581,-0.70857 0.126398,-1.824087 -0.557739,1.116497 -1.767493,1.061727 -2.553037,1.826737 -0.850734,-0.71471 -1.376631,-0.63579 -1.721814,-1.751312 -0.557738,1.116492 0.08072,0.988962 -0.704844,1.753952 -0.850715,-0.71469 0.358732,-0.47811 -1.354974,-1.34497 -0.03576,1.11043 -0.28614,0.58263 -1.071684,1.34761 -0.850734,-0.71468 -0.205588,-0.48416 -1.185691,-1.539029 -0.289676,1.601669 -0.751681,1.273999 -1.240738,1.578079"
         style="fill:url(#linearGradient2117);fill-opacity:1;stroke:none;stroke-width:0.0660542px;stroke-linecap:round;stroke-linejoin:miter;stroke-opacity:1"
         id="path2115"
         sodipodi:nodetypes="ccccccccccccccccccc" />
      <path
         d="m 65.590498,101.15258 c -0.546626,-0.53464 -1.133217,-0.3528 -1.355074,-1.232031 -0.358494,0.880001 0.287643,0.578731 -0.217266,1.181681 -0.546785,-0.56332 -0.984511,-0.66364 -0.662323,-1.509408 -0.893472,0.602758 -0.392444,0.908538 -0.897329,1.511488 -0.546785,-0.56331 0.357501,-1.122513 -0.780205,-1.4377 0.04052,0.9756 -0.274562,0.83683 -0.779447,1.43978 -0.546785,-0.56329 -0.250042,-0.6684 0.307934,-1.112659 -0.947878,0.0865 -1.362699,0.511799 -1.867596,1.114749 -0.546797,-0.56329 -0.440455,-0.52024 -0.662336,-1.399463 -0.35847,0.879993 -0.392443,0.798603 -0.897329,1.401563 -0.546785,-0.56331 0.303095,-0.55848 0.08124,-1.437711 -0.358471,0.880001 -1.136006,0.836831 -1.64089,1.439801 -0.546785,-0.56332 -0.88479,-0.50112 -1.106646,-1.380353 -0.35847,0.880003 0.05188,0.779483 -0.453018,1.382433 -0.546773,-0.56331 0.230565,-0.37684 -0.87087,-1.06008 -0.02298,0.87522 -0.183909,0.45922 -0.688794,1.06216 -0.546784,-0.5633 -0.132135,-0.38161 -0.762068,-1.213035 -0.186181,1.262405 -0.483121,1.004145 -0.797448,1.243815"
         style="fill:url(#linearGradient2166);fill-opacity:1;stroke:none;stroke-width:0.0470136px;stroke-linecap:round;stroke-linejoin:miter;stroke-opacity:1"
         id="path2164"
         sodipodi:nodetypes="ccccccccccccccccccc" />
      <path
         d="m 77.04607,101.15258 c -0.448082,-0.53464 -0.928926,-0.3528 -1.110787,-1.232031 -0.293867,0.880001 0.235788,0.578731 -0.178098,1.181681 -0.448213,-0.56332 -0.807027,-0.66364 -0.542922,-1.509408 -0.732401,0.602758 -0.321697,0.908538 -0.735563,1.511488 -0.448213,-0.56331 0.293053,-1.122513 -0.639552,-1.4377 0.03322,0.9756 -0.225065,0.83683 -0.638932,1.43978 -0.448214,-0.56329 -0.204965,-0.6684 0.252421,-1.112659 -0.776999,0.0865 -1.117037,0.511799 -1.530913,1.114749 -0.448224,-0.56329 -0.361052,-0.52024 -0.542934,-1.399463 -0.293846,0.879993 -0.321694,0.798603 -0.735563,1.401563 -0.448212,-0.56331 0.248456,-0.55848 0.06659,-1.437711 -0.293847,0.880001 -0.93121,0.836831 -1.345076,1.439801 -0.448214,-0.56332 -0.725284,-0.50112 -0.907145,-1.380353 -0.293846,0.880003 0.04253,0.779483 -0.37135,1.382433 -0.448203,-0.56331 0.189,-0.37684 -0.713872,-1.06008 -0.01884,0.87522 -0.150756,0.45922 -0.564622,1.06216 -0.448212,-0.5633 -0.108318,-0.38161 -0.624686,-1.213035 -0.152617,1.262405 -0.396026,1.004145 -0.653687,1.243815"
         style="fill:url(#linearGradient2178);fill-opacity:1;stroke:none;stroke-width:0.0425655px;stroke-linecap:round;stroke-linejoin:miter;stroke-opacity:1"
         id="path2176"
         sodipodi:nodetypes="ccccccccccccccccccc" />
      <rect
         style="fill:url(#linearGradient2284);fill-opacity:1;fill-rule:evenodd;stroke-width:0.27997"
         id="rect2276"
         width="64.87838"
         height="0.4841629"
         x="12.167695"
         y="101.09052" />
    </g>
  </g>
</svg>
