<?xml version="1.0" encoding="UTF-8" standalone="no"?>
<!-- Created with Inkscape (http://www.inkscape.org/) -->

<svg
   width="210mm"
   height="297mm"
   viewBox="0 0 210 297"
   version="1.1"
   id="svg5"
   inkscape:version="1.2 (dc2aedaf03, 2022-05-15)"
   sodipodi:docname="label-14(end).svg"
   xmlns:inkscape="http://www.inkscape.org/namespaces/inkscape"
   xmlns:sodipodi="http://sodipodi.sourceforge.net/DTD/sodipodi-0.dtd"
   xmlns="http://www.w3.org/2000/svg"
   xmlns:svg="http://www.w3.org/2000/svg">
  <sodipodi:namedview
     id="namedview7"
     pagecolor="#ffffff"
     bordercolor="#666666"
     borderopacity="1.0"
     inkscape:showpageshadow="2"
     inkscape:pageopacity="0.0"
     inkscape:pagecheckerboard="0"
     inkscape:deskcolor="#d1d1d1"
     inkscape:document-units="mm"
     showgrid="false"
     inkscape:zoom="0.84096521"
     inkscape:cx="290.73736"
     inkscape:cy="182.52836"
     inkscape:window-width="1920"
     inkscape:window-height="1058"
     inkscape:window-x="-8"
     inkscape:window-y="-8"
     inkscape:window-maximized="1"
     inkscape:current-layer="layer1" />
  <defs
     id="defs2">
    <filter
       inkscape:collect="always"
       style="color-interpolation-filters:sRGB"
       id="filter1401"
       x="-0.048291025"
       y="-0.048083323"
       width="1.096582"
       height="1.0961666">
      <feGaussianBlur
         inkscape:collect="always"
         stdDeviation="0.56369176"
         id="feGaussianBlur1403" />
    </filter>
    <filter
       inkscape:collect="always"
       style="color-interpolation-filters:sRGB"
       id="filter1407"
       x="-0.048378445"
       y="-0.047996966"
       width="1.0967569"
       height="1.0959939">
      <feGaussianBlur
         inkscape:collect="always"
         stdDeviation="0.56267937"
         id="feGaussianBlur1409" />
    </filter>
    <filter
       inkscape:collect="always"
       style="color-interpolation-filters:sRGB"
       id="filter1413"
       x="-0.047289053"
       y="-0.049119604"
       width="1.0945781"
       height="1.0982392">
      <feGaussianBlur
         inkscape:collect="always"
         stdDeviation="0.57584032"
         id="feGaussianBlur1415" />
    </filter>
  </defs>
  <g
     inkscape:label="Layer 1"
     inkscape:groupmode="layer"
     id="layer1">
    <g
       id="g2152"
       inkscape:export-filename="g2152.png"
       inkscape:export-xdpi="156.27654"
       inkscape:export-ydpi="156.27654">
      <path
         d="m 17.048954,14.547268 h 23.476709 l 3.20687,8.894526 -3.650588,1.310985 Q 39.154171,22.574527 37.903694,21.243374 36.673385,19.91222 35.160711,19.488671 33.668205,19.044953 31.671475,19.044953 h -4.295996 v 7.01881 h 1.41183 q 1.59335,0 2.137913,-0.221859 0.564732,-0.242028 0.80676,-0.726084 0.242028,-0.504224 0.242028,-1.976561 v -1.068957 h 3.590081 V 33.970009 H 31.97401 v -1.21014 q 0,-1.230309 -0.302535,-1.79504 -0.282366,-0.564732 -0.786591,-0.766422 -0.504225,-0.20169 -2.238758,-0.20169 h -1.270647 v 6.454078 q 0,1.028619 0.100845,1.250477 0.100845,0.221859 0.383211,0.342873 0.302535,0.121014 1.270647,0.121014 h 2.359772 q 2.642138,0 4.457347,-0.746252 1.81521,-0.766422 3.227039,-2.440449 1.431999,-1.694195 2.198421,-4.013629 l 3.690926,1.270646 -3.690926,10.447539 H 17.048954 v -3.892616 h 0.705915 q 1.41183,0 1.895886,-0.20169 0.484055,-0.20169 0.685745,-0.705915 0.100845,-0.302534 0.100845,-1.714364 V 20.839994 q 0,-1.250478 -0.181521,-1.633689 -0.161352,-0.383211 -0.524393,-0.564731 -0.363042,-0.20169 -1.431999,-0.20169 h -1.250478 z"
         id="path1399"
         style="font-weight:600;font-size:41.3061px;line-height:1.25;font-family:'Bookman Old Style';-inkscape-font-specification:'Bookman Old Style Semi-Bold';letter-spacing:3.62256px;word-spacing:0px;stroke-width:1.03265;filter:url(#filter1401);fill:#000000;fill-opacity:1" />
      <path
         d="m 17.048954,14.547268 h 23.476709 l 3.20687,8.894526 -3.650588,1.310985 Q 39.154171,22.574527 37.903694,21.243374 36.673385,19.91222 35.160711,19.488671 33.668205,19.044953 31.671475,19.044953 h -4.295996 v 7.01881 h 1.41183 q 1.59335,0 2.137913,-0.221859 0.564732,-0.242028 0.80676,-0.726084 0.242028,-0.504224 0.242028,-1.976561 v -1.068957 h 3.590081 V 33.970009 H 31.97401 v -1.21014 q 0,-1.230309 -0.302535,-1.79504 -0.282366,-0.564732 -0.786591,-0.766422 -0.504225,-0.20169 -2.238758,-0.20169 h -1.270647 v 6.454078 q 0,1.028619 0.100845,1.250477 0.100845,0.221859 0.383211,0.342873 0.302535,0.121014 1.270647,0.121014 h 2.359772 q 2.642138,0 4.457347,-0.746252 1.81521,-0.766422 3.227039,-2.440449 1.431999,-1.694195 2.198421,-4.013629 l 3.690926,1.270646 -3.690926,10.447539 H 17.048954 v -3.892616 h 0.705915 q 1.41183,0 1.895886,-0.20169 0.484055,-0.20169 0.685745,-0.705915 0.100845,-0.302534 0.100845,-1.714364 V 20.839994 q 0,-1.250478 -0.181521,-1.633689 -0.161352,-0.383211 -0.524393,-0.564731 -0.363042,-0.20169 -1.431999,-0.20169 h -1.250478 z"
         id="path770"
         style="font-weight:600;font-size:41.3061px;line-height:1.25;font-family:'Bookman Old Style';-inkscape-font-specification:'Bookman Old Style Semi-Bold';letter-spacing:3.62256px;word-spacing:0px;stroke-width:1.03265" />
      <path
         d="M 50.420781,14.547268 H 61.8566 l 8.249118,16.417561 V 20.92067 q 0,-1.290816 -0.141183,-1.61352 -0.20169,-0.484056 -0.544562,-0.665576 -0.342873,-0.20169 -1.331154,-0.20169 h -1.371492 v -3.892616 h 11.617341 v 3.892616 h -1.290816 q -0.968112,0 -1.39166,0.221859 -0.40338,0.221858 -0.564732,0.605069 -0.161352,0.383211 -0.161352,1.653858 V 42.683014 H 69.137607 L 58.690068,21.949288 v 14.501507 q 0,1.250477 0.141183,1.59335 0.161352,0.342873 0.544563,0.544563 0.40338,0.20169 1.371491,0.20169 h 1.351323 v 3.892616 H 50.420781 v -3.892616 h 1.210139 q 1.00845,0 1.371492,-0.161352 0.383211,-0.181521 0.60507,-0.60507 0.221858,-0.423548 0.221858,-1.270646 V 20.618135 q 0,-0.927774 -0.201689,-1.351323 -0.20169,-0.443718 -0.544563,-0.625238 -0.342873,-0.20169 -1.149633,-0.20169 h -1.512674 z"
         id="path1405"
         style="font-weight:600;font-size:41.3061px;line-height:1.25;font-family:'Bookman Old Style';-inkscape-font-specification:'Bookman Old Style Semi-Bold';letter-spacing:3.62256px;word-spacing:0px;stroke-width:1.03265;filter:url(#filter1407);fill:#000000;fill-opacity:1" />
      <path
         d="M 50.420781,14.547268 H 61.8566 l 8.249118,16.417561 V 20.92067 q 0,-1.290816 -0.141183,-1.61352 -0.20169,-0.484056 -0.544562,-0.665576 -0.342873,-0.20169 -1.331154,-0.20169 h -1.371492 v -3.892616 h 11.617341 v 3.892616 h -1.290816 q -0.968112,0 -1.39166,0.221859 -0.40338,0.221858 -0.564732,0.605069 -0.161352,0.383211 -0.161352,1.653858 V 42.683014 H 69.137607 L 58.690068,21.949288 v 14.501507 q 0,1.250477 0.141183,1.59335 0.161352,0.342873 0.544563,0.544563 0.40338,0.20169 1.371491,0.20169 h 1.351323 v 3.892616 H 50.420781 v -3.892616 h 1.210139 q 1.00845,0 1.371492,-0.161352 0.383211,-0.181521 0.60507,-0.60507 0.221858,-0.423548 0.221858,-1.270646 V 20.618135 q 0,-0.927774 -0.201689,-1.351323 -0.20169,-0.443718 -0.544563,-0.625238 -0.342873,-0.20169 -1.149633,-0.20169 h -1.512674 z"
         id="path772"
         style="font-weight:600;font-size:41.3061px;line-height:1.25;font-family:'Bookman Old Style';-inkscape-font-specification:'Bookman Old Style Semi-Bold';letter-spacing:3.62256px;word-spacing:0px;stroke-width:1.03265" />
      <path
         d="m 84.559024,14.547268 h 14.743534 q 5.022082,0 7.986922,1.59335 2.96484,1.593351 4.71954,4.719545 1.77488,3.126194 1.77488,7.502865 0,3.045518 -0.90761,5.445629 -0.88743,2.40011 -2.66231,4.336333 -1.77487,1.916055 -3.81194,2.884166 -1.53284,0.726084 -4.3565,1.189971 -2.803489,0.463887 -4.497684,0.463887 H 84.559024 v -3.892616 h 0.968111 q 1.230309,0 1.61352,-0.20169 0.383211,-0.20169 0.625239,-0.685746 0.161352,-0.38321 0.161352,-1.674026 V 20.860163 q 0,-1.290816 -0.181521,-1.653858 -0.161352,-0.383211 -0.564732,-0.564731 -0.383211,-0.20169 -1.653858,-0.20169 h -0.968111 z m 10.286187,4.517854 V 36.55164 q 0,0.887436 0.100844,1.089126 0.161352,0.302534 0.463887,0.423548 0.322704,0.100845 1.512675,0.100845 3.307713,0 5.163263,-1.008449 1.87572,-1.028619 3.02535,-3.267377 1.14963,-2.258928 1.14963,-5.364953 0,-3.065687 -1.08912,-5.324614 -1.06896,-2.279096 -2.66231,-3.20687 -1.59335,-0.927774 -4.558194,-0.927774 z"
         id="path1411"
         style="font-weight:600;font-size:41.3061px;line-height:1.25;font-family:'Bookman Old Style';-inkscape-font-specification:'Bookman Old Style Semi-Bold';letter-spacing:3.62256px;word-spacing:0px;stroke-width:1.03265;fill:#000000;fill-opacity:1;filter:url(#filter1413)" />
      <path
         d="m 84.559024,14.547268 h 14.743534 q 5.022082,0 7.986922,1.59335 2.96484,1.593351 4.71954,4.719545 1.77488,3.126194 1.77488,7.502865 0,3.045518 -0.90761,5.445629 -0.88743,2.40011 -2.66231,4.336333 -1.77487,1.916055 -3.81194,2.884166 -1.53284,0.726084 -4.3565,1.189971 -2.803489,0.463887 -4.497684,0.463887 H 84.559024 v -3.892616 h 0.968111 q 1.230309,0 1.61352,-0.20169 0.383211,-0.20169 0.625239,-0.685746 0.161352,-0.38321 0.161352,-1.674026 V 20.860163 q 0,-1.290816 -0.181521,-1.653858 -0.161352,-0.383211 -0.564732,-0.564731 -0.383211,-0.20169 -1.653858,-0.20169 h -0.968111 z m 10.286187,4.517854 V 36.55164 q 0,0.887436 0.100844,1.089126 0.161352,0.302534 0.463887,0.423548 0.322704,0.100845 1.512675,0.100845 3.307713,0 5.163263,-1.008449 1.87572,-1.028619 3.02535,-3.267377 1.14963,-2.258928 1.14963,-5.364953 0,-3.065687 -1.08912,-5.324614 -1.06896,-2.279096 -2.66231,-3.20687 -1.59335,-0.927774 -4.558194,-0.927774 z"
         id="path774"
         style="font-weight:600;font-size:41.3061px;line-height:1.25;font-family:'Bookman Old Style';-inkscape-font-specification:'Bookman Old Style Semi-Bold';letter-spacing:3.62256px;word-spacing:0px;stroke-width:1.03265" />
      <path
         id="path777"
         d="m 17.590725,18.046847 c 1.108526,0.0046 2.644239,-0.155746 3.167969,1.089844 0.414218,1.503857 0.138822,3.098506 0.220703,4.639844 -0.02491,4.602115 0.04932,9.20692 -0.03601,13.807436 0.05162,1.153041 -1.102518,1.884197 -2.15765,1.834184 -0.374505,0.129423 -1.147326,-0.179416 -1.195014,0.238848 0,0.877995 0,1.75599 0,2.633985 7.807291,0 15.614582,0 23.421874,0 1.129557,-3.197266 2.259115,-6.394531 3.388672,-9.591797 -0.897787,-0.309245 -1.795573,-0.61849 -2.69336,-0.927734 -1.153045,3.208452 -3.746154,6.149748 -7.223165,6.77688 -2.043009,0.410144 -4.144872,0.287247 -6.214335,0.24851 -0.841891,0.02443 -1.499206,-0.723602 -1.397455,-1.553227 -0.03486,-2.546141 -0.0044,-5.093529 -0.01465,-7.640132 1.42226,0.05968 2.901597,-0.157045 4.28125,0.261719 1.379418,0.621471 1.41169,2.333513 1.376953,3.63125 0.437014,0.190199 1.226988,0.02744 1.8,0.08164 0.893858,0.283441 0.759894,-0.460939 0.73125,-1.1 0,-3.247265 0,-6.494531 0,-9.741797 -0.84375,0 -1.6875,0 -2.53125,0 -0.03599,1.229759 0.177118,2.849367 -1.072265,3.574219 -1.310411,0.64809 -2.84713,0.335944 -4.256641,0.419922 -0.669444,0.08325 -0.175615,-0.996781 -0.329297,-1.429297 0,-2.216276 0,-4.432552 0,-6.648828 2.581324,0.08466 5.201368,-0.221239 7.751824,0.285772 2.604946,0.427771 4.474772,2.59213 5.563067,4.860463 0.131474,0.781936 0.859562,0.08629 1.336014,0.02056 0.423805,-0.283524 1.489493,-0.264795 1.490263,-0.74752 -0.944191,-2.619575 -1.888383,-5.23915 -2.832574,-7.858724 -7.525391,0 -15.050781,0 -22.576172,0 0,0.944661 0,1.889323 0,2.833984 z"
         style="font-weight:600;font-size:41.3061px;line-height:1.25;font-family:'Bookman Old Style';-inkscape-font-specification:'Bookman Old Style Semi-Bold';letter-spacing:3.62256px;word-spacing:0px;fill:#007df7;fill-opacity:1;stroke-width:1.033;stroke-dasharray:none" />
      <path
         id="path779"
         style="font-weight:600;font-size:41.3061px;line-height:1.25;font-family:'Bookman Old Style';-inkscape-font-specification:'Bookman Old Style Semi-Bold';letter-spacing:3.62256px;word-spacing:0px;fill:#007df7;fill-opacity:1;stroke-width:1.033;stroke-dasharray:none"
         d="m 50.857984,17.838619 c 1.067155,-0.0037 2.521638,-0.165234 3.080262,0.990579 0.583023,1.283804 0.226527,2.753383 0.327941,4.116452 -0.02059,4.765861 0.0408,9.534925 -0.02998,14.298837 -0.01122,1.072358 -0.909958,2.037285 -2.009279,1.976581 -0.427608,0.101101 -1.104324,-0.104378 -1.368943,0.125754 0,0.911328 0,1.822656 0,2.733984 3.539714,0 7.079427,0 10.619141,0 0,-0.944661 0,-1.889323 0,-2.833984 -1.125337,4.05e-4 -2.656032,0.15335 -3.230469,-1.070312 -0.35114,-1.602291 -0.104454,-3.270144 -0.179687,-4.898829 0.03839,-4.438407 -0.08353,-8.879918 0.07422,-13.316015 2.257051,4.128672 4.266318,8.388233 6.418688,12.572202 1.603927,3.182313 3.207854,6.364626 4.811781,9.546938 1.64388,0 3.287761,0 4.931641,0 0.017,-7.348837 -0.0338,-14.699486 0.02502,-22.047213 -0.07611,-1.015446 0.613872,-2.043266 1.67615,-2.126615 0.563852,-0.09079 1.137904,-0.06403 1.707031,-0.06836 0,-0.944662 0,-1.889323 0,-2.833985 -3.519531,0 -7.039063,0 -10.558594,0 0,0.944662 0,1.889323 0,2.833985 1.085603,0.0094 2.595098,-0.179821 3.128075,1.031162 0.465436,1.22686 0.174029,2.594531 0.260597,3.878604 -0.03167,3.352869 0.07438,6.708479 -0.07617,10.058984 -2.224109,-4.069709 -4.195494,-8.272641 -6.312594,-12.398759 -0.904916,-1.801325 -1.809833,-3.60265 -2.71475,-5.403976 -3.526692,0 -7.053385,10e-7 -10.580078,0 0,0.944662 0,1.889323 0,2.833985 z" />
      <path
         id="path781"
         style="font-weight:600;font-size:41.3061px;line-height:1.25;font-family:'Bookman Old Style';-inkscape-font-specification:'Bookman Old Style Semi-Bold';letter-spacing:3.62256px;word-spacing:0px;fill:#007df7;fill-opacity:1;stroke-width:1.033;stroke-dasharray:none"
         d="m 84.995597,17.837956 c 1.10811,0.0092 2.656728,-0.125831 3.158203,1.128907 0.398364,1.49919 0.127606,3.085587 0.208985,4.620312 -0.02776,4.561699 0.05531,9.126552 -0.04102,13.686328 0.0035,1.122551 -1.018315,2.020995 -2.125188,1.946154 -0.364929,0.138877 -1.152277,-0.192416 -1.200984,0.228456 0,0.877994 0,1.755989 0,2.633984 4.51853,-0.02949 9.040147,0.05971 13.556737,-0.04587 2.61331,-0.270973 5.31228,-0.539696 7.72278,-1.65478 3.95179,-2.023051 6.58976,-6.244704 6.83181,-10.660674 0.43119,-4.541024 -1.03477,-9.683928 -4.99141,-12.45729 -2.16879,-1.605058 -5.0846,-2.13993 -7.79411,-2.236213 -5.10812,-0.05359 -10.21728,-0.0083 -15.325807,-0.02329 0,0.944661 0,1.889323 0,2.833984 z m 9.755857,0.625 c 2.71154,0.07794 5.688246,-0.364151 8.120816,1.12267 2.17651,1.47192 3.26694,4.101675 3.66824,6.617565 0.49343,3.561308 -0.0914,7.591938 -2.76135,10.208624 -2.0733,2.070346 -5.204816,2.296396 -7.973016,2.183954 -0.87808,0.06714 -1.6575,-0.683639 -1.56976,-1.570782 -0.0335,-6.186827 -0.005,-12.374777 -0.0142,-18.562031 0.17643,0 0.35286,0 0.52929,0 z" />
    </g>
  </g>
</svg>
