<?xml version="1.0" encoding="UTF-8" standalone="no"?>
<!-- Created with Inkscape (http://www.inkscape.org/) -->

<svg
   width="210mm"
   height="297mm"
   viewBox="0 0 210 297"
   version="1.1"
   id="svg5"
   xml:space="preserve"
   inkscape:version="1.2.1 (9c6d41e410, 2022-07-14)"
   sodipodi:docname="lemon.svg"
   xmlns:inkscape="http://www.inkscape.org/namespaces/inkscape"
   xmlns:sodipodi="http://sodipodi.sourceforge.net/DTD/sodipodi-0.dtd"
   xmlns:xlink="http://www.w3.org/1999/xlink"
   xmlns="http://www.w3.org/2000/svg"
   xmlns:svg="http://www.w3.org/2000/svg"><sodipodi:namedview
     id="namedview7"
     pagecolor="#ffffff"
     bordercolor="#666666"
     borderopacity="1.0"
     inkscape:showpageshadow="2"
     inkscape:pageopacity="0.0"
     inkscape:pagecheckerboard="0"
     inkscape:deskcolor="#d1d1d1"
     inkscape:document-units="mm"
     showgrid="false"
     inkscape:zoom="1.7852694"
     inkscape:cx="-64.416048"
     inkscape:cy="152.9181"
     inkscape:window-width="2560"
     inkscape:window-height="1377"
     inkscape:window-x="1272"
     inkscape:window-y="-8"
     inkscape:window-maximized="1"
     inkscape:current-layer="layer1" /><defs
     id="defs2"><linearGradient
       inkscape:collect="always"
       id="linearGradient12512"><stop
         style="stop-color:#fffffc;stop-opacity:0.41139239;"
         offset="0"
         id="stop12508" /><stop
         style="stop-color:#fff7ba;stop-opacity:0.40822783;"
         offset="1"
         id="stop12510" /></linearGradient><linearGradient
       inkscape:collect="always"
       id="linearGradient9594"><stop
         style="stop-color:#fffe87;stop-opacity:1;"
         offset="0"
         id="stop9590" /><stop
         style="stop-color:#fff057;stop-opacity:0.68354434;"
         offset="1"
         id="stop9592" /></linearGradient><linearGradient
       inkscape:collect="always"
       id="linearGradient9534"><stop
         style="stop-color:#f9d23f;stop-opacity:0;"
         offset="0"
         id="stop9530" /><stop
         style="stop-color:#b6960b;stop-opacity:1;"
         offset="1"
         id="stop9532" /></linearGradient><linearGradient
       inkscape:collect="always"
       id="linearGradient5380"><stop
         style="stop-color:#e6ce18;stop-opacity:0.26898733;"
         offset="0"
         id="stop5376" /><stop
         style="stop-color:#e4c94c;stop-opacity:0.30379745;"
         offset="1"
         id="stop5378" /></linearGradient><linearGradient
       inkscape:collect="always"
       id="linearGradient5246"><stop
         style="stop-color:#fff7b0;stop-opacity:1;"
         offset="0"
         id="stop5242" /><stop
         style="stop-color:#f5de00;stop-opacity:1;"
         offset="1"
         id="stop5244" /></linearGradient><inkscape:path-effect
       effect="mirror_symmetry"
       start_point="108.10049,108.7271"
       end_point="108.10049,226.1267"
       center_point="108.10049,167.4269"
       id="path-effect1746"
       is_visible="true"
       lpeversion="1.2"
       lpesatellites=""
       mode="free"
       discard_orig_path="false"
       fuse_paths="false"
       oposite_fuse="false"
       split_items="false"
       split_open="false"
       link_styles="false" /><inkscape:path-effect
       effect="mirror_symmetry"
       start_point="157.3545,108.09832"
       end_point="157.56409,226.54588"
       center_point="157.45929,167.3221"
       id="path-effect1744"
       is_visible="true"
       lpeversion="1.2"
       lpesatellites=""
       mode="free"
       discard_orig_path="false"
       fuse_paths="false"
       oposite_fuse="false"
       split_items="false"
       split_open="false"
       link_styles="false" /><radialGradient
       inkscape:collect="always"
       xlink:href="#linearGradient5246"
       id="radialGradient5248"
       cx="124.93718"
       cy="184.97536"
       fx="124.93718"
       fy="184.97536"
       r="50.953678"
       gradientTransform="matrix(-1.3601236,-0.6806037,0.57343121,-1.0228165,195.09666,460.22473)"
       gradientUnits="userSpaceOnUse" /><linearGradient
       inkscape:collect="always"
       xlink:href="#linearGradient5380"
       id="linearGradient5310"
       x1="163.90059"
       y1="203.3038"
       x2="167.25406"
       y2="229.29312"
       gradientUnits="userSpaceOnUse"
       gradientTransform="matrix(0.41267707,0,0,0.41267707,-10.559904,-20.969761)" /><linearGradient
       inkscape:collect="always"
       xlink:href="#linearGradient9534"
       id="linearGradient7935"
       x1="156.77449"
       y1="195.12973"
       x2="199.11194"
       y2="240.19189"
       gradientUnits="userSpaceOnUse"
       gradientTransform="matrix(0.41267707,0,0,0.41267707,-10.559904,-20.969761)" /><radialGradient
       inkscape:collect="always"
       xlink:href="#linearGradient9594"
       id="radialGradient9596"
       cx="133.88919"
       cy="148.02122"
       fx="133.88919"
       fy="148.02122"
       r="28.439171"
       gradientTransform="matrix(1.4274497,-0.00736982,0.00496151,0.96098759,-57.965309,7.0335863)"
       gradientUnits="userSpaceOnUse" /><filter
       inkscape:collect="always"
       style="color-interpolation-filters:sRGB"
       id="filter12086"
       x="-0.031013392"
       y="-0.032271986"
       width="1.0620268"
       height="1.064544"><feGaussianBlur
         inkscape:collect="always"
         stdDeviation="0.73499595"
         id="feGaussianBlur12088" /></filter><radialGradient
       inkscape:collect="always"
       xlink:href="#linearGradient12512"
       id="radialGradient12506"
       gradientUnits="userSpaceOnUse"
       gradientTransform="matrix(0.31793178,-0.05130424,0.03453904,0.21403801,-4.2898798,15.326255)"
       cx="133.88919"
       cy="148.02122"
       fx="133.88919"
       fy="148.02122"
       r="28.439171" /><filter
       inkscape:collect="always"
       style="color-interpolation-filters:sRGB"
       id="filter2964"
       x="-0.050980971"
       y="-0.10742284"
       width="1.1019619"
       height="1.2148457"><feGaussianBlur
         inkscape:collect="always"
         stdDeviation="0.11434288"
         id="feGaussianBlur2966" /></filter><filter
       inkscape:collect="always"
       style="color-interpolation-filters:sRGB"
       id="filter11568"
       x="-0.021176542"
       y="-0.022999418"
       width="1.0423531"
       height="1.0459988"><feGaussianBlur
         inkscape:collect="always"
         stdDeviation="0.068172"
         id="feGaussianBlur11570" /></filter><filter
       inkscape:collect="always"
       style="color-interpolation-filters:sRGB"
       id="filter11918"
       x="-0.042436161"
       y="-0.02626894"
       width="1.0848723"
       height="1.0525379"><feGaussianBlur
         inkscape:collect="always"
         stdDeviation="0.36258865"
         id="feGaussianBlur11920" /></filter><filter
       inkscape:collect="always"
       style="color-interpolation-filters:sRGB"
       id="filter11927"
       x="-0.098596424"
       y="-0.051716278"
       width="1.1971928"
       height="1.1034326"><feGaussianBlur
         inkscape:collect="always"
         stdDeviation="0.18492046"
         id="feGaussianBlur11929" /></filter><filter
       inkscape:collect="always"
       style="color-interpolation-filters:sRGB"
       id="filter11947"
       x="-0.039230485"
       y="-0.034226391"
       width="1.078461"
       height="1.0684528"><feGaussianBlur
         inkscape:collect="always"
         stdDeviation="1.6657812"
         id="feGaussianBlur11949" /></filter></defs><g
     inkscape:label="Layer 1"
     inkscape:groupmode="layer"
     id="layer1"><g
       id="g11974"
       transform="matrix(0.51522694,0,0,0.51522694,5.5393383,-3.2171835)"
       inkscape:export-filename="g11974.png"
       inkscape:export-xdpi="201.44458"
       inkscape:export-ydpi="201.44458"><path
         style="fill:#000000;fill-opacity:1;stroke:none;stroke-width:0.264583px;stroke-linecap:butt;stroke-linejoin:miter;stroke-opacity:1;filter:url(#filter11947)"
         d="m 117.91415,117.48185 c 7.08351,1.8519 24.77221,14.06745 31.49354,26.68463 8.09012,15.18663 16.62934,36.54498 0.57852,60.83847 -12.84195,19.43675 -32.86393,20.92092 -41.88572,20.94812 -9.021789,-0.0272 -29.043772,-1.51137 -41.88572,-20.94812 -16.050821,-24.29349 -7.5116,-45.65184 0.57852,-60.83847 6.72133,-12.61718 24.41003,-24.83273 31.49354,-26.68463 2.8167,-5.63362 5.79989,-8.7279 9.81366,-8.2956 4.01377,-0.4323 6.99696,2.66198 9.81366,8.2956 z"
         id="path11937"
         sodipodi:nodetypes="csscssccc"
         class="UnoptimicedTransforms"
         transform="matrix(-0.3630297,-0.14223905,0.1505576,-0.38426072,65.488621,133.04302)" /><path
         style="fill:#3b7c1f;fill-opacity:1;stroke:none;stroke-width:0.116427px;stroke-linecap:butt;stroke-linejoin:miter;stroke-opacity:1"
         d="m 64.079184,28.227705 -0.902962,-0.956453 -0.04753,0.318817 0.76039,0.805435 z"
         id="path8910" /><path
         style="fill:url(#radialGradient5248);fill-opacity:1;stroke:none;stroke-width:0.264583px;stroke-linecap:butt;stroke-linejoin:miter;stroke-opacity:1"
         d="m 117.91415,117.48185 c 7.08351,1.8519 24.77221,14.06745 31.49354,26.68463 8.09012,15.18663 16.62934,36.54498 0.57852,60.83847 -12.84195,19.43675 -32.86393,20.92092 -41.88572,20.94812 -9.021789,-0.0272 -29.043772,-1.51137 -41.88572,-20.94812 -16.050821,-24.29349 -7.5116,-45.65184 0.57852,-60.83847 6.72133,-12.61718 24.41003,-24.83273 31.49354,-26.68463 2.8167,-5.63362 5.79989,-8.7279 9.81366,-8.2956 4.01377,-0.4323 6.99696,2.66198 9.81366,8.2956 z"
         id="path3688"
         sodipodi:nodetypes="csscssccc"
         class="UnoptimicedTransforms"
         transform="matrix(-0.3630297,-0.14223905,0.1505576,-0.38426072,65.488621,133.04302)" /><path
         id="path3690"
         style="fill:url(#linearGradient5310);fill-opacity:1;stroke:none;stroke-width:0.109187px;stroke-linecap:butt;stroke-linejoin:miter;stroke-opacity:1"
         d="m 66.23536,34.298724 c 0.661381,2.651281 1.674429,5.087664 1.221962,9.342352 -0.452468,4.254689 -2.414194,10.822642 -5.449137,15.30928 -2.391922,3.53604 -5.763844,6.60483 -9.600822,8.476317 -3.110446,1.51712 -8.033737,1.59914 -10.206259,1.902891 -2.172522,0.303751 -2.767643,0.259532 -2.767643,0.259532 0,0 2.014491,2.277268 7.958956,4.424654 0.03446,-0.03202 0.06831,-0.06197 0.103004,-0.09469 2.850336,0.295939 11.111017,-1.881894 15.450667,-5.77414 C 68.169499,63.460032 74.485092,56.467463 72.315736,44.84939 71.372005,39.795174 68.85834,36.481059 66.23536,34.298724 Z"
         sodipodi:nodetypes="czaazcccssc" /><path
         id="path3696"
         style="fill:url(#linearGradient7935);fill-opacity:1;stroke:none;stroke-width:0.109187px;stroke-linecap:butt;stroke-linejoin:miter;stroke-opacity:1"
         d="m 68.808302,36.935218 c 1.333504,3.298499 3.364416,9.15378 3.060236,12.846803 -0.460688,5.593148 -2.510554,9.467039 -7.005911,15.309275 -2.749226,3.572933 -7.533065,5.722358 -10.725325,7.265659 -1.306742,0.63175 -3.942952,0.908595 -5.313507,1.556564 3.556381,-0.279201 10.333423,-2.370347 14.122293,-5.768598 5.223411,-4.684888 11.539004,-11.677457 9.369648,-23.29553 -0.62363,-3.339899 -1.934238,-5.917707 -3.507434,-7.914173 z" /><path
         style="fill:#000000;fill-opacity:1;stroke:none;stroke-width:0.109187px;stroke-linecap:butt;stroke-linejoin:miter;stroke-opacity:1;filter:url(#filter11918)"
         d="m 63.738115,28.072118 c 0,0 -1.895005,13.11575 3.286758,20.4125 7.393225,10.410839 12.526243,11.231654 15.914825,12.71456 0.101824,-0.852422 -0.259479,-0.432469 0.259483,-2.767797 0.518962,-2.335327 1.665033,-9.859779 -0.908186,-17.860931 -1.617319,-5.028879 -7.741178,-12.238849 -18.55288,-12.498332 z"
         id="path11916"
         sodipodi:nodetypes="cscssc" /><path
         style="mix-blend-mode:normal;fill:url(#radialGradient9596);fill-opacity:1;stroke:none;stroke-width:0.264583px;stroke-linecap:butt;stroke-linejoin:miter;stroke-opacity:1;filter:url(#filter12086)"
         d="m 143.36061,128.47961 c -8.06616,1.36092 -17.89766,5.74977 -23.26466,12.78508 -12.29259,16.11366 -10.27923,45.69462 11.73712,40.45116 18.35678,-4.37189 34.03046,-15.86276 37.0977,-29.76199 0.77318,-3.95674 1.35796,-14.99202 -3.35346,-19.7016 -5.31253,-5.31045 -14.15054,-5.13357 -22.2167,-3.77265 z"
         id="path9588"
         sodipodi:nodetypes="ssscas"
         transform="matrix(0.42946209,-0.085104,0.085104,0.42946209,-27.177848,-10.965024)" /><path
         style="fill:url(#radialGradient12506);fill-opacity:1;stroke:none;stroke-width:0.0596913px;stroke-linecap:butt;stroke-linejoin:miter;stroke-opacity:1"
         d="m 44.812178,35.393201 c -1.750654,0.583984 -3.789473,1.904327 -4.741053,3.659265 -2.179504,4.019508 -0.70158,10.543256 4.023593,8.608498 3.93975,-1.613163 7.033747,-4.719846 7.233895,-7.924791 0.03471,-0.90888 -0.218875,-3.389065 -1.43293,-4.27495 -1.368953,-0.99891 -3.33285,-0.652005 -5.083505,-0.06802 z"
         id="path12504"
         sodipodi:nodetypes="ssscas" /><ellipse
         style="fill:#449620;fill-opacity:1;fill-rule:evenodd;stroke-width:0.101892"
         id="path870"
         cx="69.417793"
         cy="13.819376"
         rx="1.8744518"
         ry="0.91626"
         transform="matrix(0.95503853,0.2964817,-0.43102308,0.9023409,0,0)"
         inkscape:transform-center-x="16.895209"
         inkscape:transform-center-y="2.0748503" /><path
         id="ellipse2860"
         style="fill:#487335;fill-rule:evenodd;stroke-width:0.144156;filter:url(#filter2964)"
         inkscape:transform-center-x="10.045789"
         inkscape:transform-center-y="1.1843046"
         d="m 157.18433,74.453918 a 2.6914206,1.2773027 0 0 1 -2.69143,1.277303 2.6914206,1.2773027 0 0 1 -2.69142,-1.277303 2.6914206,1.2773027 0 0 1 2.69142,-1.277302 2.6914206,1.2773027 0 0 1 2.69143,1.277302 z"
         transform="matrix(0.39548864,0.11786049,-0.18384246,0.3694649,12.879867,-12.666374)" /><path
         id="path11922"
         style="fill:#000000;fill-opacity:1;stroke:none;stroke-width:0.109187px;stroke-linecap:butt;stroke-linejoin:miter;stroke-opacity:1;filter:url(#filter11927)"
         d="m 62.715035,24.898739 a 0.77556401,0.30117258 29.246182 0 0 -0.144177,0.03411 0.77556401,0.30117258 29.246182 0 0 -0.06046,0.141077 c -0.08478,0.302346 -0.725321,2.571538 -1.191658,3.741373 -0.545283,1.367862 -1.276643,2.966733 -1.926498,3.975468 -0.05354,0.381842 1.322918,0.955707 1.804025,0.550871 0.188642,-0.158737 -0.121592,-0.489625 -0.09147,-0.734322 0.0828,-0.672609 0.459644,-1.276255 0.733806,-1.896008 0.322733,-0.729559 0.767343,-1.40241 1.070219,-2.140438 0.364095,-0.887189 0.878654,-2.678165 0.907438,-2.778642 a 0.77556401,0.30117258 29.246182 0 0 0.01137,-0.0052 0.77556401,0.30117258 29.246182 0 0 -0.336931,-0.600996 0.77556401,0.30117258 29.246182 0 0 -0.775663,-0.287321 z" /><path
         style="fill:#2a8c0e;fill-opacity:1;stroke:none;stroke-width:0.109187px;stroke-linecap:butt;stroke-linejoin:miter;stroke-opacity:1"
         d="m 62.54197,24.962453 c 0,0 -0.724215,2.601355 -1.223203,3.853097 -0.545283,1.367863 -1.276691,2.966677 -1.926546,3.975413 -0.05354,0.381842 1.323117,0.955277 1.804224,0.550441 0.188643,-0.158737 -0.121864,-0.489225 -0.09174,-0.733922 0.0828,-0.67261 0.459759,-1.276212 0.733921,-1.895966 0.322734,-0.729559 0.767427,-1.402582 1.070303,-2.140611 0.374496,-0.912532 0.917406,-2.813368 0.917406,-2.813368 z"
         id="path3031"
         sodipodi:nodetypes="cscsssscc" /><path
         id="path5083"
         style="fill:#477434;fill-opacity:1;stroke:none;stroke-width:0.109187px;stroke-linecap:butt;stroke-linejoin:miter;stroke-opacity:1"
         d="m 63.655881,25.652032 c -0.273688,0.523642 -0.550549,1.458023 -0.716333,1.955516 -0.290492,0.871709 -0.694491,1.57698 -1.161988,2.293536 -1.367459,1.920195 -1.598327,3.022757 -1.161009,3.574485 0.230357,0.01721 0.441907,-0.01808 0.579844,-0.134136 0.188643,-0.158737 -0.121826,-0.489336 -0.0917,-0.734029 0.0828,-0.67261 0.459866,-1.276101 0.734028,-1.895855 0.322734,-0.729559 0.767249,-1.402644 1.070126,-2.140672 0.374496,-0.91253 0.91743,-2.813283 0.91743,-2.813283 z"
         sodipodi:nodetypes="csccsssscc" /><path
         id="path6882"
         style="fill:#487335;fill-rule:evenodd;stroke-width:0.144156;filter:url(#filter2964)"
         inkscape:transform-center-x="0.0063862661"
         inkscape:transform-center-y="0.066794778"
         d="m 157.18433,74.453918 a 2.6914206,1.2773027 0 0 1 -2.69143,1.277303 2.6914206,1.2773027 0 0 1 -2.69142,-1.277303 2.6914206,1.2773027 0 0 1 2.69142,-1.277302 2.6914206,1.2773027 0 0 1 2.69143,1.277302 z"
         transform="matrix(0.23348323,0.15867228,-0.22783249,0.13617392,44.090953,-9.2924561)" /><path
         style="fill:#3e9725;fill-opacity:1;stroke:none;stroke-width:0.109187px;stroke-linecap:butt;stroke-linejoin:miter;stroke-opacity:1"
         d="m 63.738115,28.072118 c 0,0 -1.895005,13.11575 3.286758,20.4125 7.393225,10.410839 12.526243,11.231654 15.914825,12.71456 0.101824,-0.852422 -0.259479,-0.432469 0.259483,-2.767797 0.518962,-2.335327 1.665033,-9.859779 -0.908186,-17.860931 -1.617319,-5.028879 -7.741178,-12.238849 -18.55288,-12.498332 z"
         id="path6925"
         sodipodi:nodetypes="cscssc" /><path
         id="path6987"
         style="fill:#287e11;fill-opacity:1;stroke:none;stroke-width:0.109187px;stroke-linecap:butt;stroke-linejoin:miter;stroke-opacity:1"
         d="m 63.738115,28.072015 c 0,0 -1.895046,13.115771 3.286713,20.412516 7.393221,10.410827 12.526346,11.231679 15.914928,12.714581 0.02398,-0.200595 -0.0025,-0.422767 -0.04905,-0.674104 -2.669315,-7.462947 -4.87566,-13.585074 -8.773382,-19.911359 -2.303002,-3.73793 -7.070764,-9.093336 -10.277058,-12.538436 -0.03425,-9.49e-4 -0.06779,-0.0024 -0.10215,-0.0032 z" /><path
         style="fill:#7bb86a;fill-opacity:1;stroke:none;stroke-width:0.109187px;stroke-linecap:butt;stroke-linejoin:miter;stroke-opacity:1"
         d="m 67.630328,28.937058 c 3.663128,0.534784 8.563235,3.630944 10.033257,5.189617 2.220273,2.354165 5.560926,6.229339 5.947976,14.993973 0.06498,1.471499 -0.0968,-13.279927 -15.981233,-20.18359 z"
         id="path8717"
         sodipodi:nodetypes="cssc" /><path
         style="color:#000000;fill:#287e11;stroke-width:0.522268;stroke-linecap:round"
         d="m 67.588639,32.246291 c -0.111992,0.01614 -0.192059,0.232283 -0.178784,0.36949 0.833707,0.13672 1.803833,0.198828 2.950761,0.392328 1.190734,0.2129 2.496284,0.606776 3.472187,1.018058 1.803336,0.740648 3.897153,2.867128 4.541498,4.112814 0.08655,-0.08853 0.0981,-0.246286 0.02579,-0.352278 C 77.33656,36.235438 75.591303,34.577054 74.020035,33.778449 73.066103,33.293599 71.687828,32.88559 70.433413,32.607581 69.806206,32.468579 69.21099,32.362884 68.71659,32.29934 68.222187,32.23579 67.83817,32.2103 67.588632,32.2463 Z"
         id="path8784"
         sodipodi:nodetypes="scccccsssss" /><path
         style="color:#000000;fill:#287e11;stroke-width:0.430034;stroke-linecap:round"
         d="m 72.679849,38.83806 c -0.09115,0.01345 -0.156318,0.117081 -0.14551,0.231372 0.236352,0.119305 1.072197,0.176134 1.483165,0.226667 1.427351,0.246199 2.510992,0.400882 3.791075,1.051575 2.220669,1.236599 3.280915,2.863773 3.649881,3.399019 0.07046,-0.07373 0.07989,-0.205138 0.02105,-0.293447 -0.865631,-1.292211 -2.286119,-2.673648 -3.565001,-3.338891 -0.776415,-0.403879 -1.898216,-0.743756 -2.919199,-0.975338 -0.510494,-0.115793 -0.994948,-0.203833 -1.397346,-0.256763 -0.402401,-0.05293 -0.714967,-0.07417 -0.918066,-0.0442 z"
         id="path8859"
         sodipodi:nodetypes="scccccsssss" /><path
         style="color:#000000;fill:#287e11;stroke-width:0.48894;stroke-linecap:round"
         d="m 75.851879,44.302078 c -0.07361,0.0281 -0.191094,0.07152 -0.182366,0.310209 0.315297,0.09969 1.405986,0.335474 2.112263,0.699021 0.812701,0.476762 1.732546,1.318306 2.323677,2.113609 0.975081,1.311846 2.04493,4.007197 2.710793,6.57806 0.04767,0.18386 0.0674,0.704922 0.124092,0.550325 0.05688,-0.154007 0.06448,-0.428437 0.01696,-0.612833 -0.698968,-2.698673 -1.845975,-5.583682 -2.878633,-6.972984 -0.626927,-0.843463 -1.532749,-1.553267 -2.357162,-2.036904 -0.412211,-0.241821 -0.803391,-0.425689 -1.128313,-0.536229 -0.324929,-0.110548 -0.577318,-0.154898 -0.741312,-0.09231 z"
         id="path8861"
         sodipodi:nodetypes="cccscccssscc" /><path
         id="path9974"
         style="fill:#f1da16;fill-opacity:1;stroke:none;stroke-width:0.109187px;stroke-linecap:butt;stroke-linejoin:miter;stroke-opacity:1"
         d="m 46.010588,71.151219 c -0.05855,-0.0057 -0.101846,0.01911 -0.127314,0.07976 -0.556981,1.326723 -1.200966,2.224857 -2.087571,2.850178 -0.40634,0.286592 -1.238443,0.703004 -2.143443,1.050503 0.285926,0.274868 0.62569,0.471281 1.031523,0.579205 1.39203,0.737028 2.940771,-0.02765 4.811499,-1.791782 0.261147,0.02711 0.568579,0.03322 0.913379,0.0194 -0.862754,-1.23846 -1.992083,-2.747657 -2.398073,-2.787266 z" /><path
         style="fill:#f5eb77;fill-opacity:1;stroke:none;stroke-width:0.264583px;stroke-linecap:butt;stroke-linejoin:miter;stroke-opacity:1;filter:url(#filter11568)"
         d="m 68.321856,204.52095 c -0.433284,1.84446 -0.07416,5.42191 1.630238,7.11378 1.967161,-0.41136 3.695245,-1.24755 5.928143,-3.33458 -3.696656,-1.46339 -5.930478,-2.55556 -7.558381,-3.7792 z"
         id="path11083"
         sodipodi:nodetypes="cccc"
         transform="matrix(0.41267707,0,0,0.41267707,12.879867,-12.666374)" /><path
         id="path11572"
         style="fill:#edd11d;fill-opacity:1;stroke:none;stroke-width:0.109187px;stroke-linecap:butt;stroke-linejoin:miter;stroke-opacity:1"
         d="m 47.632833,73.866193 c -0.197189,0.0056 -0.603036,-0.07853 -0.763117,-0.03673 -0.488643,0.544791 -1.980906,1.587242 -3.700348,1.880755 -0.112376,0.01919 -0.231295,0.04019 -0.3523,0.06184 1.357709,0.622024 2.866756,-0.144747 4.678214,-1.852986 0.147484,0.01531 0.312771,0.02237 0.487932,0.02451 -0.04092,-0.03561 -0.100463,-0.05898 -0.180842,-0.06824 -0.07009,-0.0081 -0.124034,-0.01048 -0.169539,-0.0092 z"
         sodipodi:nodetypes="scscccsss" /></g></g></svg>
