<?xml version="1.0" encoding="UTF-8" standalone="no"?>
<!-- Created with Inkscape (http://www.inkscape.org/) -->

<svg
   width="210mm"
   height="297mm"
   viewBox="0 0 210 297"
   version="1.1"
   id="svg5"
   xml:space="preserve"
   inkscape:version="1.2.1 (9c6d41e410, 2022-07-14)"
   sodipodi:docname="peach.svg"
   xmlns:inkscape="http://www.inkscape.org/namespaces/inkscape"
   xmlns:sodipodi="http://sodipodi.sourceforge.net/DTD/sodipodi-0.dtd"
   xmlns:xlink="http://www.w3.org/1999/xlink"
   xmlns="http://www.w3.org/2000/svg"
   xmlns:svg="http://www.w3.org/2000/svg"><sodipodi:namedview
     id="namedview7"
     pagecolor="#ffffff"
     bordercolor="#666666"
     borderopacity="1.0"
     inkscape:showpageshadow="2"
     inkscape:pageopacity="0.0"
     inkscape:pagecheckerboard="0"
     inkscape:deskcolor="#d1d1d1"
     inkscape:document-units="mm"
     showgrid="false"
     inkscape:zoom="0.53551217"
     inkscape:cx="50.419022"
     inkscape:cy="513.52708"
     inkscape:window-width="2560"
     inkscape:window-height="1377"
     inkscape:window-x="1272"
     inkscape:window-y="-8"
     inkscape:window-maximized="1"
     inkscape:current-layer="layer1" /><defs
     id="defs2"><linearGradient
       inkscape:collect="always"
       id="linearGradient6938"><stop
         style="stop-color:#de997a;stop-opacity:1;"
         offset="0"
         id="stop6934" /><stop
         style="stop-color:#cb724f;stop-opacity:1"
         offset="1"
         id="stop6936" /></linearGradient><linearGradient
       inkscape:collect="always"
       id="linearGradient5567"><stop
         style="stop-color:#a14018;stop-opacity:1;"
         offset="0"
         id="stop5563" /><stop
         style="stop-color:#ea7a40;stop-opacity:1;"
         offset="1"
         id="stop5565" /></linearGradient><linearGradient
       inkscape:collect="always"
       id="linearGradient4384"><stop
         style="stop-color:#ffab6b;stop-opacity:0.19143577;"
         offset="0"
         id="stop4380" /><stop
         style="stop-color:#d03800;stop-opacity:0.85390437;"
         offset="1"
         id="stop4382" /></linearGradient><linearGradient
       inkscape:collect="always"
       id="linearGradient4147"><stop
         style="stop-color:#fbe9df;stop-opacity:1;"
         offset="0"
         id="stop4143" /><stop
         style="stop-color:#de3d20;stop-opacity:1;"
         offset="1"
         id="stop4145" /></linearGradient><radialGradient
       inkscape:collect="always"
       xlink:href="#linearGradient4147"
       id="radialGradient4277"
       cx="87.542801"
       cy="141.09372"
       fx="87.542801"
       fy="141.09372"
       r="14.389662"
       gradientTransform="matrix(1.1796969,1.6429295,-1.0899865,0.78265907,95.372912,-210.98765)"
       gradientUnits="userSpaceOnUse" /><radialGradient
       inkscape:collect="always"
       xlink:href="#linearGradient4384"
       id="radialGradient4386"
       cx="88.879929"
       cy="141.45978"
       fx="88.879929"
       fy="141.45978"
       r="13.511142"
       gradientTransform="matrix(1.2542412,1.6114131,-1.2034959,0.93673935,104.92649,-232.5399)"
       gradientUnits="userSpaceOnUse" /><linearGradient
       inkscape:collect="always"
       xlink:href="#linearGradient5567"
       id="linearGradient4388"
       x1="101.46452"
       y1="133.3983"
       x2="100.12738"
       y2="160.37685"
       gradientUnits="userSpaceOnUse"
       gradientTransform="matrix(1.3875611,0,0,1.3875611,-76.614342,-152.00271)" /><radialGradient
       inkscape:collect="always"
       xlink:href="#linearGradient6938"
       id="radialGradient6940"
       cx="91.808632"
       cy="140.14946"
       fx="91.808632"
       fy="140.14946"
       r="11.858211"
       gradientTransform="matrix(1.6514493,-1.1193151,0.7005889,1.0336563,-204.43892,-6.6980877)"
       gradientUnits="userSpaceOnUse" /><filter
       inkscape:collect="always"
       style="color-interpolation-filters:sRGB"
       id="filter10461"
       x="-0.088603873"
       y="-0.12602605"
       width="1.1772077"
       height="1.2520521"><feGaussianBlur
         inkscape:collect="always"
         stdDeviation="0.8755695"
         id="feGaussianBlur10463" /></filter><filter
       inkscape:collect="always"
       style="color-interpolation-filters:sRGB"
       id="filter10470"
       x="-0.057436362"
       y="-0.1020212"
       width="1.1148727"
       height="1.2040424"><feGaussianBlur
         inkscape:collect="always"
         stdDeviation="0.057547814"
         id="feGaussianBlur10472" /></filter><filter
       inkscape:collect="always"
       style="color-interpolation-filters:sRGB"
       id="filter16911"
       x="-0.0087803551"
       y="-0.02332906"
       width="1.0175607"
       height="1.0466581"><feGaussianBlur
         inkscape:collect="always"
         stdDeviation="0.018866456"
         id="feGaussianBlur16913" /></filter><filter
       inkscape:collect="always"
       style="color-interpolation-filters:sRGB"
       id="filter16926"
       x="-0.023889759"
       y="-0.01778372"
       width="1.0477795"
       height="1.0355674"><feGaussianBlur
         inkscape:collect="always"
         stdDeviation="0.4061814"
         id="feGaussianBlur16928" /></filter></defs><g
     inkscape:label="Layer 1"
     inkscape:groupmode="layer"
     id="layer1"><g
       id="g16946"
       transform="matrix(1.5657433,0,0,1.5657433,-17.605084,-9.1876604)"
       inkscape:export-filename="g16946.png"
       inkscape:export-xdpi="97.132317"
       inkscape:export-ydpi="97.132317"><path
         id="path16915"
         style="fill:#000000;fill-opacity:1;stroke:none;stroke-width:0.436711px;stroke-linecap:butt;stroke-linejoin:miter;stroke-opacity:1;filter:url(#filter16926)"
         d="m 66.168054,17.21497 c -0.173116,-0.0015 -0.347148,0.0078 -0.521415,0.02894 -4.393011,0.534023 -8.321865,3.780283 -9.775114,5.116483 -0.02445,-0.918407 -0.08002,-1.885282 -0.172082,-2.903182 a 0.32741442,1.0640969 86.933514 0 0 0.01447,-0.06098 0.32741442,1.0640969 86.933514 0 0 -1.080037,-0.269751 0.32741442,1.0640969 86.933514 0 0 -1.034046,0.33228 c -0.0081,0.0052 -0.01622,0.01015 -0.02429,0.0155 0.822092,3.369608 0.696834,6.982135 0.381372,9.700699 -1.976004,-0.111395 -3.96935,-0.01086 -5.935555,0.209807 -9.506943,1.066964 -14.853471,9.802219 -15.73444,17.501774 -1.552763,13.570959 6.609093,20.729901 11.14609,23.031669 4.119665,2.090054 6.728222,2.849171 12.446269,1.266589 3.480049,0.03802 8.59846,-1.369485 13.969689,-10.586434 2.79789,-4.801137 4.183321,-18.473767 -2.400887,-25.428938 -3.55647,-3.756853 -7.719774,-5.380653 -12.019938,-5.869926 0.28873,-1.764905 0.476737,-3.809709 0.455786,-6.192387 1.037115,1.050881 3.265948,3.1724 4.979541,3.843693 1.729,0.677362 4.122848,0.04012 5.878195,0.645955 0.918065,0.31685 2.390551,1.562179 2.390551,1.562179 0,0 -0.03858,-3.677842 -3.103686,-5.874577 1.262472,-0.703176 2.460077,-1.722917 3.290238,-2.276347 1.377001,-0.918023 3.580144,0.734322 3.580144,0.734322 0,0 -3.210821,-4.497082 -6.730856,-4.527372 z" /><path
         style="fill:#99b96e;fill-opacity:1;stroke:none;stroke-width:0.436711px;stroke-linecap:butt;stroke-linejoin:miter;stroke-opacity:1"
         d="m 55.273161,22.935624 c 0,0 4.817529,-5.016228 10.373393,-5.69161 3.717692,-0.451914 7.252199,4.498196 7.252199,4.498196 0,0 -2.203197,-1.652405 -3.580199,-0.734381 -1.377002,0.917983 -3.763801,3.12118 -5.783397,3.029379 -2.019598,-0.09172 -8.261996,-1.101584 -8.261996,-1.101584 z"
         id="path11234"
         sodipodi:nodetypes="cscssc" /><path
         style="fill:url(#radialGradient4277);fill-opacity:1;stroke:none;stroke-width:0.367125px;stroke-linecap:butt;stroke-linejoin:miter;stroke-opacity:1"
         d="m 48.021422,29.384897 c -9.506953,1.066965 -14.85365,9.802245 -15.73462,17.501807 -1.552765,13.570973 6.609272,20.729608 11.146273,23.031378 4.119669,2.090056 6.728244,2.849371 12.446296,1.266788 3.480053,0.03802 8.59844,-1.36944 13.969675,-10.586398 C 72.646938,55.79733 74.032224,42.124456 67.44801,35.169278 61.862446,29.269007 54.780735,28.626289 48.021422,29.384897 Z"
         id="path365"
         sodipodi:nodetypes="ssscsss" /><path
         style="fill:url(#radialGradient4386);fill-opacity:1;stroke:none;stroke-width:0.35265px;stroke-linecap:butt;stroke-linejoin:miter;stroke-opacity:1"
         d="m 47.748922,29.756763 c -9.132096,1.02488 -14.267978,9.41574 -15.114209,16.811704 -1.491543,13.035887 6.348669,19.912265 10.706779,22.123261 3.957233,2.007648 6.462953,2.737033 11.955544,1.216835 3.342836,0.03649 8.229102,-1.333154 13.418858,-10.168977 2.316922,-3.944656 4.018239,-17.745589 -2.306362,-24.426515 -5.365331,-5.667632 -12.167814,-6.285014 -18.66061,-5.556308 z"
         id="path4376"
         sodipodi:nodetypes="ssscsss" /><ellipse
         style="opacity:0.66996;mix-blend-mode:normal;fill:#9d4e1f;fill-opacity:1;stroke:none;stroke-width:0.37466;stroke-linecap:round;stroke-linejoin:round;paint-order:markers stroke fill;filter:url(#filter10470)"
         id="path3420"
         cx="159.14908"
         cy="99.572945"
         rx="1.2023286"
         ry="0.6768924"
         transform="matrix(1.226986,0.27163421,-0.73634867,0.68445685,-68.152215,-77.646549)"
         inkscape:transform-center-x="2.3570859"
         inkscape:transform-center-y="-0.22912714" /><path
         style="opacity:1;fill:#a0c56f;fill-opacity:1;stroke:none;stroke-width:0.367125px;stroke-linecap:butt;stroke-linejoin:miter;stroke-opacity:1"
         d="m 55.304672,22.503717 c 0.580882,0.227547 5.549805,-1.417532 8.884332,-0.185988 4.891125,1.806438 4.943159,6.841467 4.943159,6.841467 0,0 -1.472452,-1.24535 -2.390518,-1.5622 -1.755348,-0.605837 -4.149127,0.03094 -5.878128,-0.646423 -2.309202,-0.90462 -5.558848,-4.446828 -5.558848,-4.446828 z"
         id="path14418"
         sodipodi:nodetypes="cscssc" /><path
         id="path12754"
         style="fill:#7d9313;fill-opacity:1;stroke:none;stroke-width:0.436711px;stroke-linecap:butt;stroke-linejoin:miter;stroke-opacity:1"
         d="m 64.932209,17.243848 c -3.675514,0.485174 -8.478842,3.901433 -9.65874,5.691776 2.44137,-1.519435 4.377272,-2.874014 7.923637,-4.218533 4.810369,-1.575146 9.701813,3.025174 9.701813,3.025174 -1.47001,-2.460798 -4.714239,-4.927729 -7.96671,-4.498417 z"
         sodipodi:nodetypes="scccs" /><path
         id="path15041"
         style="fill:#869924;fill-opacity:1;stroke:none;stroke-width:0.367125px;stroke-linecap:butt;stroke-linejoin:miter;stroke-opacity:1"
         d="m 62.180898,21.896756 c -3.035229,-0.259834 -6.404193,0.791993 -6.87617,0.6071 0,0 0.22097,0.240756 0.584456,0.608917 2.219072,-0.396662 4.379291,-1.103804 6.467795,-0.539442 2.124079,0.573979 3.83823,1.757346 5.406341,3.787015 0.634323,0.821034 0.875703,1.96401 1.368537,2.795561 -3.74e-4,-0.03996 -0.07104,-5.038678 -4.942603,-6.837901 -0.625221,-0.230918 -1.307902,-0.361293 -2.008356,-0.42125 z"
         sodipodi:nodetypes="sccascss" /><path
         style="fill:#bf5f25;fill-opacity:1;stroke:none;stroke-width:0.367125px;stroke-linecap:butt;stroke-linejoin:miter;stroke-opacity:1"
         d="m 53.189505,33.519551 c 0,0 1.985848,-7.487293 0.385862,-14.045351 0.753771,-0.500036 1.597642,-0.408193 2.12224,-0.03857 0.60177,6.62054 -0.347276,11.074223 -1.273344,14.199704 0,0 -0.559184,0.463099 -1.234758,-0.115722 z"
         id="path465"
         sodipodi:nodetypes="ccccc" /><path
         style="mix-blend-mode:normal;fill:#ffffff;fill-opacity:1;stroke:none;stroke-width:0.264583px;stroke-linecap:butt;stroke-linejoin:miter;stroke-opacity:1;filter:url(#filter16911)"
         d="m 96.763231,126.49766 c 0,0 0.80288,0.80287 1.51311,1.17343 1.16098,0.66771 1.995399,0.75932 3.643799,0.61755 -1.20772,-0.10932 -2.421969,-0.29792 -3.273249,-0.77199 -0.71023,-0.40144 -1.57486,-1.11167 -1.57486,-1.11167 z"
         id="path16909"
         sodipodi:nodetypes="cccccc"
         transform="matrix(1.3812976,0.1316925,-0.1316925,1.3812976,-59.698839,-163.7899)" /><path
         id="path3489"
         style="fill:#994d1e;fill-opacity:0.714588;stroke:none;stroke-width:0.367125px;stroke-linecap:butt;stroke-linejoin:miter;stroke-opacity:1"
         d="m 55.170821,19.192525 c 0.250732,2.429356 0.04451,6.041927 -7.17e-4,7.082223 -0.0446,1.025588 -0.599323,5.292643 -1.217538,7.533957 0.285997,-0.0199 0.471814,-0.173528 0.471814,-0.173528 0.926068,-3.125482 1.875236,-7.579053 1.273467,-14.199579 -0.152001,-0.107092 -0.331374,-0.190263 -0.527026,-0.243073 z" /><path
         id="path4115"
         style="fill:#da7f46;fill-opacity:0.600423;stroke:none;stroke-width:0.367125px;stroke-linecap:butt;stroke-linejoin:miter;stroke-opacity:1"
         d="m 54.098125,19.221913 c -0.175664,0.05618 -0.351558,0.138854 -0.522723,0.252398 1.202612,4.929297 0.37985,10.382537 -0.103249,12.787735 0.854481,-1.254341 1.078234,-4.133642 1.206783,-5.769326 0.09399,-1.196064 0.257921,-5.040247 -0.580805,-7.270807 z" /><path
         style="opacity:0.452569;mix-blend-mode:normal;fill:url(#radialGradient6940);fill-opacity:1;stroke:none;stroke-width:0.264583px;stroke-linecap:butt;stroke-linejoin:miter;stroke-opacity:1;filter:url(#filter10461)"
         d="m 43.223234,30.384747 c -0.471927,0 -5.228915,-0.12308 -7.078919,1.41578 -1.73673,1.44464 -3.049757,4.09707 -2.51695,6.29237 0.490974,2.02294 2.819998,3.23794 4.71928,4.09004 2.967086,1.33116 6.504718,1.98505 9.674524,1.25848 1.77201,-0.40617 3.610619,-1.43971 4.56197,-2.98888 1.015593,-3.51981 -0.104371,-5.10426 2.438303,-7.39354 1.61304,-0.0419 2.1707,-1.2091 2.20232,-2.04502 -2.20815,-2.64054 -5.510252,-4.37142 -7.629499,-3.85407 -0.793183,1.4404 0.714864,2.56967 -0.550582,4.24735 -2.2622,-1.14696 -3.414078,-1.02251 -5.820447,-1.02251 z"
         id="path6932"
         sodipodi:nodetypes="saaaacccccs"
         transform="matrix(1.3875611,0,0,1.3875611,-12.171734,-6.6640619)" /><path
         style="fill:url(#linearGradient4388);fill-opacity:1;stroke:none;stroke-width:0.367125px;stroke-linecap:butt;stroke-linejoin:miter;stroke-opacity:1"
         d="m 55.195989,34.059756 c 15.838118,4.839259 11.92761,32.589565 0.926066,37.119897 C 63.641861,69.150344 69.299919,59.088847 68.778321,51.114839 68.275843,43.433176 65.827977,34.85408 55.195989,34.059756 Z"
         id="path463"
         sodipodi:nodetypes="ccsc" /><path
         id="path10465"
         style="fill:#972f0c;fill-opacity:1;stroke:none;stroke-width:0.367125px;stroke-linecap:butt;stroke-linejoin:miter;stroke-opacity:1"
         d="m 55.195918,34.059673 c 15.838105,4.839244 11.927944,32.589509 0.926418,37.119827 2.050727,-0.553415 4.701663,-3.260866 5.461829,-4.032017 2.460338,-2.816166 5.363824,-9.389848 4.881508,-18.554092 C 66.051375,40.721854 60.740022,36.276829 57.971587,34.480576 57.11474,34.276951 56.191042,34.134019 55.195918,34.059673 Z"
         sodipodi:nodetypes="cccscc" /><ellipse
         style="opacity:1;fill:#8c512e;fill-opacity:1;stroke:none;stroke-width:0.394295;stroke-linecap:round;stroke-linejoin:round;paint-order:markers stroke fill"
         id="path14260"
         cx="53.532658"
         cy="22.349052"
         rx="1.0640969"
         ry="0.32741442"
         transform="rotate(-3.0664855)" /></g></g></svg>
