<?xml version="1.0" encoding="UTF-8" standalone="no"?>
<!-- Created with Inkscape (http://www.inkscape.org/) -->

<svg
   width="210mm"
   height="297mm"
   viewBox="0 0 210 297"
   version="1.1"
   id="svg5"
   xml:space="preserve"
   inkscape:version="1.2.1 (9c6d41e410, 2022-07-14)"
   sodipodi:docname="strawberry.svg"
   xmlns:inkscape="http://www.inkscape.org/namespaces/inkscape"
   xmlns:sodipodi="http://sodipodi.sourceforge.net/DTD/sodipodi-0.dtd"
   xmlns:xlink="http://www.w3.org/1999/xlink"
   xmlns="http://www.w3.org/2000/svg"
   xmlns:svg="http://www.w3.org/2000/svg"><sodipodi:namedview
     id="namedview7"
     pagecolor="#ffffff"
     bordercolor="#666666"
     borderopacity="1.0"
     inkscape:showpageshadow="2"
     inkscape:pageopacity="0.0"
     inkscape:pagecheckerboard="0"
     inkscape:deskcolor="#d1d1d1"
     inkscape:document-units="mm"
     showgrid="false"
     inkscape:zoom="0.8926347"
     inkscape:cx="-88.502049"
     inkscape:cy="290.15229"
     inkscape:window-width="2560"
     inkscape:window-height="1377"
     inkscape:window-x="1272"
     inkscape:window-y="-8"
     inkscape:window-maximized="1"
     inkscape:current-layer="layer1" /><defs
     id="defs2"><inkscape:path-effect
       effect="mirror_symmetry"
       start_point="52.019564,152.68421"
       end_point="52.019564,175.69687"
       center_point="52.019564,164.19054"
       id="path-effect32247"
       is_visible="true"
       lpeversion="1.2"
       lpesatellites=""
       mode="free"
       discard_orig_path="false"
       fuse_paths="false"
       oposite_fuse="false"
       split_items="false"
       split_open="false"
       link_styles="false" /><linearGradient
       inkscape:collect="always"
       id="linearGradient20122"><stop
         style="stop-color:#fff9f8;stop-opacity:0.66772151;"
         offset="0"
         id="stop20118" /><stop
         style="stop-color:#ff1708;stop-opacity:0.15189873;"
         offset="1"
         id="stop20120" /></linearGradient><linearGradient
       inkscape:collect="always"
       id="linearGradient20112"><stop
         style="stop-color:#ff9696;stop-opacity:0.79430372;"
         offset="0"
         id="stop20108" /><stop
         style="stop-color:#ffffff;stop-opacity:0;"
         offset="1"
         id="stop20110" /></linearGradient><linearGradient
       inkscape:collect="always"
       id="linearGradient14488"><stop
         style="stop-color:#c2251c;stop-opacity:1;"
         offset="0"
         id="stop14484" /><stop
         style="stop-color:#b61d16;stop-opacity:0.25632912;"
         offset="1"
         id="stop14486" /></linearGradient><linearGradient
       inkscape:collect="always"
       id="linearGradient12824"><stop
         style="stop-color:#99291f;stop-opacity:0.39556962;"
         offset="0"
         id="stop12820" /><stop
         style="stop-color:#a41811;stop-opacity:1;"
         offset="1"
         id="stop12822" /></linearGradient><inkscape:path-effect
       effect="mirror_symmetry"
       start_point="52.019564,152.68421"
       end_point="52.019564,175.69687"
       center_point="52.019564,164.19054"
       id="path-effect12610"
       is_visible="true"
       lpeversion="1.2"
       lpesatellites=""
       mode="free"
       discard_orig_path="false"
       fuse_paths="false"
       oposite_fuse="false"
       split_items="false"
       split_open="false"
       link_styles="false" /><linearGradient
       inkscape:collect="always"
       id="linearGradient10591"><stop
         style="stop-color:#fa352d;stop-opacity:1;"
         offset="0"
         id="stop10587" /><stop
         style="stop-color:#9b2d28;stop-opacity:1;"
         offset="1"
         id="stop10589" /></linearGradient><inkscape:path-effect
       effect="mirror_symmetry"
       start_point="52.019564,152.68421"
       end_point="52.019564,175.69687"
       center_point="52.019564,164.19054"
       id="path-effect10492"
       is_visible="true"
       lpeversion="1.2"
       lpesatellites=""
       mode="free"
       discard_orig_path="false"
       fuse_paths="false"
       oposite_fuse="false"
       split_items="false"
       split_open="false"
       link_styles="false" /><inkscape:path-effect
       effect="mirror_symmetry"
       start_point="52.019564,152.68421"
       end_point="52.019564,175.69687"
       center_point="52.019564,164.19054"
       id="path-effect8990"
       is_visible="true"
       lpeversion="1.2"
       lpesatellites=""
       mode="free"
       discard_orig_path="false"
       fuse_paths="false"
       oposite_fuse="false"
       split_items="false"
       split_open="false"
       link_styles="false" /><inkscape:path-effect
       effect="mirror_symmetry"
       start_point="52.019564,152.68421"
       end_point="52.019564,175.69687"
       center_point="52.019564,164.19054"
       id="path-effect3257"
       is_visible="true"
       lpeversion="1.2"
       lpesatellites=""
       mode="free"
       discard_orig_path="false"
       fuse_paths="false"
       oposite_fuse="false"
       split_items="false"
       split_open="false"
       link_styles="false" /><radialGradient
       inkscape:collect="always"
       xlink:href="#linearGradient10591"
       id="radialGradient10593"
       cx="48.154957"
       cy="157.65164"
       fx="48.154957"
       fy="157.65164"
       r="11.527831"
       gradientTransform="matrix(-1.9074945,1.1470374,-1.0389343,-1.7277223,302.90165,374.51393)"
       gradientUnits="userSpaceOnUse" /><linearGradient
       inkscape:collect="always"
       xlink:href="#linearGradient12824"
       id="linearGradient12826"
       x1="81.771278"
       y1="162.01463"
       x2="70.201286"
       y2="176.63365"
       gradientUnits="userSpaceOnUse"
       gradientTransform="matrix(2.586002,0,0,2.586002,-102.41591,-355.0878)" /><linearGradient
       inkscape:collect="always"
       xlink:href="#linearGradient14488"
       id="linearGradient14490"
       x1="68.805779"
       y1="177.48547"
       x2="83.929527"
       y2="152.02013"
       gradientUnits="userSpaceOnUse"
       gradientTransform="matrix(2.586002,0,0,2.586002,-102.41591,-355.0878)" /><radialGradient
       inkscape:collect="always"
       xlink:href="#linearGradient20112"
       id="radialGradient20114"
       cx="70.719147"
       cy="158.80603"
       fx="70.719147"
       fy="158.80603"
       r="3.7421408"
       gradientTransform="matrix(2.5620976,4.1958742,-3.8890199,1.9608658,531.90369,-620.67159)"
       gradientUnits="userSpaceOnUse" /><radialGradient
       inkscape:collect="always"
       xlink:href="#linearGradient20122"
       id="radialGradient20124"
       cx="74.883194"
       cy="154.24054"
       fx="74.883194"
       fy="154.24054"
       r="4.9324723"
       gradientTransform="matrix(1.8399252,-0.10341031,0.14275863,2.2981204,-64.520554,-299.72557)"
       gradientUnits="userSpaceOnUse" /><filter
       inkscape:collect="always"
       style="color-interpolation-filters:sRGB"
       id="filter20726"
       x="-0.12889169"
       y="-0.10149831"
       width="1.2577834"
       height="1.2029966"><feGaussianBlur
         inkscape:collect="always"
         stdDeviation="0.081099545"
         id="feGaussianBlur20728" /></filter><filter
       inkscape:collect="always"
       style="color-interpolation-filters:sRGB"
       id="filter20730"
       x="-0.12889169"
       y="-0.10149831"
       width="1.2577834"
       height="1.2029966"><feGaussianBlur
         inkscape:collect="always"
         stdDeviation="0.081099545"
         id="feGaussianBlur20732" /></filter><filter
       inkscape:collect="always"
       style="color-interpolation-filters:sRGB"
       id="filter20734"
       x="-0.12889169"
       y="-0.10149831"
       width="1.2577834"
       height="1.2029966"><feGaussianBlur
         inkscape:collect="always"
         stdDeviation="0.081099545"
         id="feGaussianBlur20736" /></filter><filter
       inkscape:collect="always"
       style="color-interpolation-filters:sRGB"
       id="filter20738"
       x="-0.12889169"
       y="-0.10149831"
       width="1.2577834"
       height="1.2029966"><feGaussianBlur
         inkscape:collect="always"
         stdDeviation="0.081099545"
         id="feGaussianBlur20740" /></filter><filter
       inkscape:collect="always"
       style="color-interpolation-filters:sRGB"
       id="filter20742"
       x="-0.12889169"
       y="-0.10149831"
       width="1.2577834"
       height="1.2029966"><feGaussianBlur
         inkscape:collect="always"
         stdDeviation="0.081099545"
         id="feGaussianBlur20744" /></filter><filter
       inkscape:collect="always"
       style="color-interpolation-filters:sRGB"
       id="filter20746"
       x="-0.12889169"
       y="-0.10149831"
       width="1.2577834"
       height="1.2029966"><feGaussianBlur
         inkscape:collect="always"
         stdDeviation="0.081099545"
         id="feGaussianBlur20748" /></filter><filter
       inkscape:collect="always"
       style="color-interpolation-filters:sRGB"
       id="filter20750"
       x="-0.12889169"
       y="-0.10149831"
       width="1.2577834"
       height="1.2029966"><feGaussianBlur
         inkscape:collect="always"
         stdDeviation="0.081099545"
         id="feGaussianBlur20752" /></filter><filter
       inkscape:collect="always"
       style="color-interpolation-filters:sRGB"
       id="filter20754"
       x="-0.12889169"
       y="-0.10149831"
       width="1.2577834"
       height="1.2029966"><feGaussianBlur
         inkscape:collect="always"
         stdDeviation="0.081099545"
         id="feGaussianBlur20756" /></filter><filter
       inkscape:collect="always"
       style="color-interpolation-filters:sRGB"
       id="filter20758"
       x="-0.12889169"
       y="-0.10149831"
       width="1.2577834"
       height="1.2029966"><feGaussianBlur
         inkscape:collect="always"
         stdDeviation="0.081099545"
         id="feGaussianBlur20760" /></filter><filter
       inkscape:collect="always"
       style="color-interpolation-filters:sRGB"
       id="filter20762"
       x="-0.12889169"
       y="-0.10149831"
       width="1.2577834"
       height="1.2029966"><feGaussianBlur
         inkscape:collect="always"
         stdDeviation="0.081099545"
         id="feGaussianBlur20764" /></filter><filter
       inkscape:collect="always"
       style="color-interpolation-filters:sRGB"
       id="filter20766"
       x="-0.12889169"
       y="-0.10149831"
       width="1.2577834"
       height="1.2029966"><feGaussianBlur
         inkscape:collect="always"
         stdDeviation="0.081099545"
         id="feGaussianBlur20768" /></filter><filter
       inkscape:collect="always"
       style="color-interpolation-filters:sRGB"
       id="filter20770"
       x="-0.12889169"
       y="-0.10149831"
       width="1.2577834"
       height="1.2029966"><feGaussianBlur
         inkscape:collect="always"
         stdDeviation="0.081099545"
         id="feGaussianBlur20772" /></filter><filter
       inkscape:collect="always"
       style="color-interpolation-filters:sRGB"
       id="filter20774"
       x="-0.12889169"
       y="-0.10149831"
       width="1.2577834"
       height="1.2029966"><feGaussianBlur
         inkscape:collect="always"
         stdDeviation="0.081099545"
         id="feGaussianBlur20776" /></filter><filter
       inkscape:collect="always"
       style="color-interpolation-filters:sRGB"
       id="filter20778"
       x="-0.12889169"
       y="-0.10149831"
       width="1.2577834"
       height="1.2029966"><feGaussianBlur
         inkscape:collect="always"
         stdDeviation="0.081099545"
         id="feGaussianBlur20780" /></filter><filter
       inkscape:collect="always"
       style="color-interpolation-filters:sRGB"
       id="filter20782"
       x="-0.12889169"
       y="-0.10149831"
       width="1.2577834"
       height="1.2029966"><feGaussianBlur
         inkscape:collect="always"
         stdDeviation="0.081099545"
         id="feGaussianBlur20784" /></filter><filter
       inkscape:collect="always"
       style="color-interpolation-filters:sRGB"
       id="filter20786"
       x="-0.12889169"
       y="-0.10149831"
       width="1.2577834"
       height="1.2029966"><feGaussianBlur
         inkscape:collect="always"
         stdDeviation="0.081099545"
         id="feGaussianBlur20788" /></filter><filter
       inkscape:collect="always"
       style="color-interpolation-filters:sRGB"
       id="filter20790"
       x="-0.12889169"
       y="-0.10149831"
       width="1.2577834"
       height="1.2029966"><feGaussianBlur
         inkscape:collect="always"
         stdDeviation="0.081099545"
         id="feGaussianBlur20792" /></filter><filter
       inkscape:collect="always"
       style="color-interpolation-filters:sRGB"
       id="filter20794"
       x="-0.12889169"
       y="-0.10149831"
       width="1.2577834"
       height="1.2029966"><feGaussianBlur
         inkscape:collect="always"
         stdDeviation="0.081099545"
         id="feGaussianBlur20796" /></filter><filter
       inkscape:collect="always"
       style="color-interpolation-filters:sRGB"
       id="filter20798"
       x="-0.12889169"
       y="-0.10149831"
       width="1.2577834"
       height="1.2029966"><feGaussianBlur
         inkscape:collect="always"
         stdDeviation="0.081099545"
         id="feGaussianBlur20800" /></filter><filter
       inkscape:collect="always"
       style="color-interpolation-filters:sRGB"
       id="filter20802"
       x="-0.12889169"
       y="-0.10149831"
       width="1.2577834"
       height="1.2029966"><feGaussianBlur
         inkscape:collect="always"
         stdDeviation="0.081099545"
         id="feGaussianBlur20804" /></filter><filter
       inkscape:collect="always"
       style="color-interpolation-filters:sRGB"
       id="filter20806"
       x="-0.12889169"
       y="-0.10149831"
       width="1.2577834"
       height="1.2029966"><feGaussianBlur
         inkscape:collect="always"
         stdDeviation="0.081099545"
         id="feGaussianBlur20808" /></filter><filter
       inkscape:collect="always"
       style="color-interpolation-filters:sRGB"
       id="filter20810"
       x="-0.12889169"
       y="-0.10149831"
       width="1.2577834"
       height="1.2029966"><feGaussianBlur
         inkscape:collect="always"
         stdDeviation="0.081099545"
         id="feGaussianBlur20812" /></filter><filter
       inkscape:collect="always"
       style="color-interpolation-filters:sRGB"
       id="filter20814"
       x="-0.12889169"
       y="-0.10149831"
       width="1.2577834"
       height="1.2029966"><feGaussianBlur
         inkscape:collect="always"
         stdDeviation="0.081099545"
         id="feGaussianBlur20816" /></filter><filter
       inkscape:collect="always"
       style="color-interpolation-filters:sRGB"
       id="filter20818"
       x="-0.12889169"
       y="-0.10149831"
       width="1.2577834"
       height="1.2029966"><feGaussianBlur
         inkscape:collect="always"
         stdDeviation="0.081099545"
         id="feGaussianBlur20820" /></filter><filter
       inkscape:collect="always"
       style="color-interpolation-filters:sRGB"
       id="filter20822"
       x="-0.12889169"
       y="-0.10149831"
       width="1.2577834"
       height="1.2029966"><feGaussianBlur
         inkscape:collect="always"
         stdDeviation="0.081099545"
         id="feGaussianBlur20824" /></filter><filter
       inkscape:collect="always"
       style="color-interpolation-filters:sRGB"
       id="filter32250"
       x="-0.031847133"
       y="-0.02509255"
       width="1.0636943"
       height="1.0501851"><feGaussianBlur
         inkscape:collect="always"
         stdDeviation="0.79116669"
         id="feGaussianBlur32252" /></filter></defs><g
     inkscape:label="Layer 1"
     inkscape:groupmode="layer"
     id="layer1"><g
       id="g1241"
       inkscape:export-filename="g1241.png"
       inkscape:export-xdpi="101.39978"
       inkscape:export-ydpi="101.39978"><path
         id="path32241"
         style="mix-blend-mode:normal;fill:#3d3d3d;fill-opacity:1;stroke:none;stroke-width:0.684212px;stroke-linecap:butt;stroke-linejoin:miter;stroke-opacity:1;filter:url(#filter32250)"
         d="m 91.846073,25.489917 c 0,0 0.231327,4.671468 -3.522782,10.568864 0,0 -5.380771,-1.354942 -9.310026,-5.069458 -1.443011,-1.364154 -1.349893,5.382836 2.670121,10.218498 0.40537,0.487619 0.817732,0.924208 1.233,1.316715 -1.932959,-0.417007 -3.803601,-0.820859 -5.547465,-0.871781 -9.989529,0.102664 -16.06525,9.536001 -16.659448,17.826819 -0.411319,15.50291 9.073194,25.182812 11.114567,27.689266 1.881162,2.309737 12.363737,13.87738 18.683614,13.99294 6.319877,-0.11556 16.802456,-11.683203 18.683616,-13.99294 2.04137,-2.506454 11.52588,-12.186356 11.11456,-27.689266 -0.59419,-8.290818 -6.6694,-17.724155 -16.65893,-17.826819 -1.17989,0.03445 -2.41738,0.231063 -3.692278,0.483174 6.178538,-4.690753 6.750418,-11.253199 5.441528,-10.684102 0,0 -2.70987,3.251855 -9.213907,4.742346 0,0 -1.069172,-7.940802 -4.33617,-10.704256 z"
         transform="matrix(1.0111392,0,0,1.0111392,-1.0081833,-0.70539959)" /><path
         style="fill:#69804e;fill-opacity:1;stroke:none;stroke-width:0.684212px;stroke-linecap:butt;stroke-linejoin:miter;stroke-opacity:1"
         d="m 92.523573,45.679413 c 13.078577,-3.504389 14.585417,-14.97233 12.872597,-14.227608 0,0 -2.71002,3.252048 -9.214067,4.742541 0,0 -1.069035,-7.941117 -4.336036,-10.704574 0,0 0.231087,4.671686 -3.523026,10.569088 0,0 -5.380625,-1.355144 -9.309884,-5.069664 -1.443012,-1.364155 -1.349686,5.383011 2.670332,10.218677 4.913375,5.910295 10.840084,4.47154 10.840084,4.47154 z"
         id="path16637"
         sodipodi:nodetypes="sscsssss" /><path
         style="fill:#95b56c;fill-opacity:1;stroke:none;stroke-width:0.622148px;stroke-linecap:butt;stroke-linejoin:miter;stroke-opacity:1"
         d="m 92.27625,44.872375 c 12.1491,-3.119135 14.21956,-12.847288 12.62846,-12.184442 0,0 -3.0923,2.990347 -9.134118,4.316997 0,0 -0.513996,-7.163928 -3.548817,-9.623582 0,0 -0.168555,4.062313 -3.655908,9.311376 0,0 -4.158413,-0.633955 -9.229941,-4.437611 -0.766509,-0.574896 -0.480443,4.716512 3.253876,9.020541 4.564195,5.260525 9.686448,3.596721 9.686448,3.596721 z"
         id="path17812"
         sodipodi:nodetypes="sscsssss" /><path
         id="path1065"
         style="fill:#7d9c57;fill-opacity:1;stroke:none;stroke-width:0.264583px;stroke-linecap:butt;stroke-linejoin:miter;stroke-opacity:1"
         d="m 105.25921,32.775777 c -2.34512,4.75503 -6.351115,7.311931 -10.705292,8.94364 -3.285136,1.231091 -8.521607,0.703871 -8.521607,0.703871 l -2.812068,-0.467712 c 4.392469,4.431179 9.055778,2.916617 9.055778,2.916617 10.964389,-2.814975 13.719599,-11.011609 12.983189,-12.096419 z"
         sodipodi:nodetypes="csccccc" /><path
         id="path1646"
         style="fill:#bf484d;fill-opacity:1;stroke:none;stroke-width:0.264583px;stroke-linecap:butt;stroke-linejoin:miter;stroke-opacity:1"
         d="m 52.019564,153.39374 c -1.766956,0.0852 -3.546958,-0.66411 -5.080827,-0.7089 -3.862928,0.0397 -6.212209,3.68759 -6.441984,6.89363 -0.159056,5.99494 3.508486,9.73812 4.29788,10.70736 0.727441,0.89317 4.781049,5.36635 7.224931,5.41104 m 0,-22.30313 c 1.766956,0.0852 3.546958,-0.66411 5.080827,-0.7089 3.862928,0.0397 6.212209,3.68759 6.441984,6.89363 0.159056,5.99494 -3.508486,9.73812 -4.29788,10.70736 -0.727441,0.89317 -4.781049,5.36635 -7.224931,5.41104"
         sodipodi:nodetypes="cccsc"
         inkscape:path-effect="#path-effect3257"
         inkscape:original-d="m 52.019564,153.39374 c -1.766956,0.0852 -3.546958,-0.66411 -5.080827,-0.7089 -3.862928,0.0397 -6.212209,3.68759 -6.441984,6.89363 -0.159056,5.99494 3.508486,9.73812 4.29788,10.70736 0.727441,0.89317 4.781049,5.36635 7.224931,5.41104"
         class="UnoptimicedTransforms"
         transform="matrix(2.5860019,0,0,2.5860019,-44.014967,-353.19078)" /><path
         id="path8986"
         style="fill:url(#radialGradient10593);fill-opacity:1;stroke:none;stroke-width:0.264583px;stroke-linecap:butt;stroke-linejoin:miter;stroke-opacity:1"
         d="m 52.019564,153.39374 c -1.766956,0.0852 -3.546958,-0.66411 -5.080827,-0.7089 -3.862928,0.0397 -6.212209,3.68759 -6.441984,6.89363 -0.159056,5.99494 3.508486,9.73812 4.29788,10.70736 0.727441,0.89317 4.781049,5.36635 7.224931,5.41104 m 0,-22.30313 c 1.766956,0.0852 3.546958,-0.66411 5.080827,-0.7089 3.862928,0.0397 6.212209,3.68759 6.441984,6.89363 0.159056,5.99494 -3.508486,9.73812 -4.29788,10.70736 -0.727441,0.89317 -4.781049,5.36635 -7.224931,5.41104"
         sodipodi:nodetypes="cccsc"
         inkscape:path-effect="#path-effect8990"
         inkscape:original-d="m 52.019564,153.39374 c -1.766956,0.0852 -3.546958,-0.66411 -5.080827,-0.7089 -3.862928,0.0397 -6.212209,3.68759 -6.441984,6.89363 -0.159056,5.99494 3.508486,9.73812 4.29788,10.70736 0.727441,0.89317 4.781049,5.36635 7.224931,5.41104"
         class="UnoptimicedTransforms"
         transform="matrix(2.5035217,0,0,2.5035217,-39.724376,-339.64825)" /><path
         id="path10486"
         style="fill:url(#linearGradient14490);fill-opacity:1;stroke:none;stroke-width:0.684212px;stroke-linecap:butt;stroke-linejoin:miter;stroke-opacity:1"
         d="m 110.59885,44.694407 c 7.63749,17.369118 0.59567,25.159102 -2.98877,30.298221 -12.578734,14.191016 -32.735855,10.212375 -42.12118,1.730168 2.639795,5.23337 5.854951,8.621772 6.931665,9.943794 1.821163,2.236067 11.96924,13.43474 18.087545,13.54662 6.118304,-0.11203 16.26638,-11.310553 18.08754,-13.54662 1.97627,-2.426501 11.15852,-11.798793 10.76032,-26.807243 -0.40965,-5.715872 -3.51329,-11.988938 -8.75712,-15.16494 z"
         sodipodi:nodetypes="cccscscc" /><path
         id="path12596"
         style="fill:url(#linearGradient12826);fill-opacity:1;stroke:none;stroke-width:0.684212px;stroke-linecap:butt;stroke-linejoin:miter;stroke-opacity:1"
         d="m 119.2357,58.71677 c -2.19039,13.854227 -4.86665,16.271154 -7.28847,20.340636 -6.44819,10.835067 -16.499417,15.876373 -20.189629,16.530679 -5.88616,1.04367 -14.564196,-7.13178 -21.059596,-10.964767 0.747813,0.90969 1.358625,1.596433 1.72256,2.043272 1.821163,2.236067 11.96924,13.43474 18.087545,13.54662 6.118304,-0.11203 16.26638,-11.310553 18.08754,-13.54662 1.97627,-2.426501 11.15852,-11.798793 10.76032,-26.807243 -0.0271,-0.378647 -0.0697,-0.760079 -0.12026,-1.142577 z"
         sodipodi:nodetypes="csscscscc" /><ellipse
         style="mix-blend-mode:normal;fill:#9a1911;fill-opacity:1;fill-rule:evenodd;stroke-width:0.278495;filter:url(#filter20810)"
         id="path19384"
         cx="74.743393"
         cy="170.72688"
         rx="0.75504833"
         ry="0.95882833"
         transform="matrix(2.8713614,0,0,2.5860019,-124.06644,-354.79138)" /><path
         style="fill:url(#radialGradient20124);fill-opacity:1;stroke:none;stroke-width:0.745746px;stroke-linecap:butt;stroke-linejoin:miter;stroke-opacity:1"
         d="m 105.84073,42.714775 c 0,0 -7.369418,1.371172 -10.845325,2.121495 -7.047466,0.05693 -16.788183,0.01553 -16.581181,3.529062 12.073166,23.001486 20.391111,15.302572 31.221786,4.875424 l 0.6878,-5.218712 z"
         id="path20116"
         sodipodi:nodetypes="cccccc" /><ellipse
         style="fill:url(#radialGradient20114);fill-opacity:1;fill-rule:evenodd;stroke-width:1.24776"
         id="path20104"
         cx="97.914711"
         cy="-10.113684"
         rx="18.392593"
         ry="16.010864"
         transform="matrix(0.74792697,0.66378102,-0.78257788,0.6225527,0,0)" /><ellipse
         style="mix-blend-mode:normal;fill:#9a1911;fill-opacity:1;fill-rule:evenodd;stroke-width:0.278495;filter:url(#filter20814)"
         id="ellipse20578"
         cx="78.88282"
         cy="170.72688"
         rx="0.75504833"
         ry="0.95882833"
         transform="matrix(2.1575809,0.97143794,-0.87455215,2.3966049,81.027472,-399.38237)" /><ellipse
         style="mix-blend-mode:normal;fill:#9a1911;fill-opacity:1;fill-rule:evenodd;stroke-width:0.278495;filter:url(#filter20818)"
         id="ellipse20580"
         cx="76.786903"
         cy="173.97556"
         rx="0.75504833"
         ry="0.95882833"
         transform="matrix(2.100057,0.81688439,-0.79104732,2.4475755,71.445676,-394.47202)" /><ellipse
         style="mix-blend-mode:normal;fill:#9a1911;fill-opacity:1;fill-rule:evenodd;stroke-width:0.278495;filter:url(#filter20806)"
         id="ellipse20582"
         cx="70.656357"
         cy="170.83168"
         rx="0.75504833"
         ry="0.95882833"
         transform="matrix(2.285434,-0.65348676,0.5969058,2.5020714,-184.90234,-295.31782)" /><ellipse
         style="mix-blend-mode:normal;fill:#9a1911;fill-opacity:1;fill-rule:evenodd;stroke-width:0.278495;filter:url(#filter20802)"
         id="ellipse20584"
         cx="67.879265"
         cy="167.00664"
         rx="0.75504833"
         ry="0.95882833"
         transform="matrix(2.2991973,-0.56483538,0.51461695,2.5235625,-170.79351,-306.76397)" /><ellipse
         style="mix-blend-mode:normal;fill:#9a1911;fill-opacity:1;fill-rule:evenodd;stroke-width:0.278495;filter:url(#filter20798)"
         id="ellipse20586"
         cx="71.861511"
         cy="167.00664"
         rx="0.75504833"
         ry="0.95882833"
         transform="matrix(2.7479276,-0.56483538,0.61505384,2.5235625,-216.4992,-303.62543)" /><ellipse
         style="mix-blend-mode:normal;fill:#9a1911;fill-opacity:1;fill-rule:evenodd;stroke-width:0.278495;filter:url(#filter20794)"
         id="ellipse20588"
         cx="76.734512"
         cy="167.05904"
         rx="0.75504833"
         ry="0.95882833"
         transform="matrix(2.5790002,0.56748462,-0.58008783,2.5229681,-4.9019719,-387.80665)" /><ellipse
         style="mix-blend-mode:normal;fill:#9a1911;fill-opacity:1;fill-rule:evenodd;stroke-width:0.278495;filter:url(#filter20790)"
         id="ellipse20590"
         cx="80.611954"
         cy="166.90184"
         rx="0.75504833"
         ry="0.95882833"
         transform="matrix(2.3116406,0.44965315,-0.40816488,2.5466091,-10.422589,-384.31588)" /><ellipse
         style="mix-blend-mode:normal;fill:#9a1911;fill-opacity:1;fill-rule:evenodd;stroke-width:0.278495;filter:url(#filter20770)"
         id="ellipse20592"
         cx="66.150139"
         cy="163.39119"
         rx="0.75504833"
         ry="0.95882833"
         transform="matrix(2.3071497,-0.49814046,0.45290752,2.5375702,-159.72394,-314.51881)" /><ellipse
         style="mix-blend-mode:normal;fill:#9a1911;fill-opacity:1;fill-rule:evenodd;stroke-width:0.278495;filter:url(#filter20774)"
         id="ellipse20594"
         cx="70.079979"
         cy="163.23399"
         rx="0.75504833"
         ry="0.95882833"
         transform="matrix(2.5235625,-0.5648354,0.5648354,2.5235625,-190.24049,-304.71907)" /><ellipse
         style="mix-blend-mode:normal;fill:#9a1911;fill-opacity:1;fill-rule:evenodd;stroke-width:0.278495;filter:url(#filter20778)"
         id="ellipse20596"
         cx="74.638596"
         cy="163.39119"
         rx="0.75504833"
         ry="0.95882833"
         transform="matrix(2.8713614,0,0,2.5860019,-123.74013,-354.64318)" /><ellipse
         style="mix-blend-mode:normal;fill:#9a1911;fill-opacity:1;fill-rule:evenodd;stroke-width:0.278495;filter:url(#filter20782)"
         id="ellipse20598"
         cx="78.987625"
         cy="163.33879"
         rx="0.75504833"
         ry="0.95882833"
         transform="matrix(2.5466091,0.44965316,-0.44965316,2.5466091,-25.858562,-383.42944)" /><ellipse
         style="mix-blend-mode:normal;fill:#9a1911;fill-opacity:1;fill-rule:evenodd;stroke-width:0.278495;filter:url(#filter20786)"
         id="ellipse20600"
         cx="82.70787"
         cy="163.28639"
         rx="0.75504833"
         ry="0.95882833"
         transform="matrix(2.2505726,0.48488478,-0.42961016,2.5401364,-3.2957944,-387.40594)" /><ellipse
         style="mix-blend-mode:normal;fill:#9a1911;fill-opacity:1;fill-rule:evenodd;stroke-width:0.278495;filter:url(#filter20766)"
         id="ellipse20602"
         cx="64.682999"
         cy="159.61855"
         rx="0.75504833"
         ry="0.95882833"
         transform="matrix(2.3719826,0,0,2.5860019,-88.775739,-355.08779)" /><ellipse
         style="mix-blend-mode:normal;fill:#9a1911;fill-opacity:1;fill-rule:evenodd;stroke-width:0.278495;filter:url(#filter20762)"
         id="ellipse20604"
         cx="43.566654"
         cy="122.46844"
         rx="0.75504833"
         ry="0.95882833"
         transform="matrix(2.5860019,0,0,2.5860019,-39.543432,-258.88206)" /><ellipse
         style="mix-blend-mode:normal;fill:#9a1911;fill-opacity:1;fill-rule:evenodd;stroke-width:0.278495;filter:url(#filter20758)"
         id="ellipse20606"
         cx="71.861511"
         cy="159.72334"
         rx="0.75504833"
         ry="0.95882833"
         transform="matrix(2.8713614,0,0,2.5860019,-122.65125,-355.08779)" /><ellipse
         style="mix-blend-mode:normal;fill:#9a1911;fill-opacity:1;fill-rule:evenodd;stroke-width:0.278495;filter:url(#filter20754)"
         id="ellipse20608"
         cx="76.577324"
         cy="159.72334"
         rx="0.75504833"
         ry="0.95882833"
         transform="matrix(2.8000214,0,0,2.5860019,-118.60169,-355.08779)" /><ellipse
         style="mix-blend-mode:normal;fill:#9a1911;fill-opacity:1;fill-rule:evenodd;stroke-width:0.278495;filter:url(#filter20750)"
         id="ellipse20610"
         cx="80.66436"
         cy="159.67094"
         rx="0.75504833"
         ry="0.95882833"
         transform="matrix(2.5731703,-0.25729487,0.25729487,2.5731703,-142.46337,-332.28442)" /><ellipse
         style="mix-blend-mode:normal;fill:#9a1911;fill-opacity:1;fill-rule:evenodd;stroke-width:0.278495;filter:url(#filter20746)"
         id="ellipse20612"
         cx="84.070221"
         cy="159.77574"
         rx="0.75504833"
         ry="0.95882833"
         transform="matrix(2.3006427,0,0,2.5860019,-78.154691,-355.08779)" /><ellipse
         style="mix-blend-mode:normal;fill:#9a1911;fill-opacity:1;fill-rule:evenodd;stroke-width:0.278495;filter:url(#filter20742)"
         id="ellipse20614"
         cx="82.760269"
         cy="156.36987"
         rx="0.75504833"
         ry="0.95882833"
         transform="matrix(2.1739486,-0.91628749,0.82372814,2.4182273,-197.32377,-253.8337)" /><ellipse
         style="mix-blend-mode:normal;fill:#9a1911;fill-opacity:1;fill-rule:evenodd;stroke-width:0.278495;filter:url(#filter20738)"
         id="ellipse20616"
         cx="78.987625"
         cy="156.57947"
         rx="0.75504833"
         ry="0.95882833"
         transform="matrix(2.5590956,-0.3720704,0.3720704,2.5590956,-158.54922,-321.48583)" /><ellipse
         style="mix-blend-mode:normal;fill:#9a1911;fill-opacity:1;fill-rule:evenodd;stroke-width:0.278495;filter:url(#filter20734)"
         id="ellipse20618"
         cx="74.37661"
         cy="156.78906"
         rx="0.75504833"
         ry="0.95882833"
         transform="matrix(2.8713614,0,0,2.5860019,-123.36896,-355.08779)" /><ellipse
         style="mix-blend-mode:normal;fill:#9a1911;fill-opacity:1;fill-rule:evenodd;stroke-width:0.278495;filter:url(#filter20730)"
         id="ellipse20620"
         cx="70.132385"
         cy="156.63187"
         rx="0.75504833"
         ry="0.95882833"
         transform="matrix(2.4719043,0.75966794,-0.75966794,2.4719043,24.574244,-390.49379)" /><ellipse
         style="mix-blend-mode:normal;fill:#9a1911;fill-opacity:1;fill-rule:evenodd;stroke-width:0.278495;filter:url(#filter20726)"
         id="ellipse20622"
         cx="66.307335"
         cy="156.36987"
         rx="0.75504833"
         ry="0.95882833"
         transform="matrix(2.1087378,1.1119889,-1.0043601,2.3347135,86.756123,-389.93337)" /><ellipse
         style="mix-blend-mode:normal;fill:#9a1911;fill-opacity:1;fill-rule:evenodd;stroke-width:0.278495;filter:url(#filter20822)"
         id="ellipse20624"
         cx="73.276245"
         cy="174.13275"
         rx="0.75504833"
         ry="0.95882833"
         transform="matrix(2.2154158,-0.8031005,0.79590001,2.4528184,-213.53119,-274.08542)" /><ellipse
         style="mix-blend-mode:normal;fill:#d3c94e;fill-opacity:1;fill-rule:evenodd;stroke-width:0.278495;filter:url(#filter20810)"
         id="ellipse20826"
         cx="74.743393"
         cy="170.72688"
         rx="0.75504833"
         ry="0.95882833"
         transform="matrix(1.8726039,0,0,1.998638,-49.415921,-254.51255)" /><ellipse
         style="mix-blend-mode:normal;fill:#aba242;fill-opacity:1;fill-rule:evenodd;stroke-width:0.278495;filter:url(#filter20818)"
         id="ellipse20828"
         cx="76.786903"
         cy="173.97556"
         rx="0.75504833"
         ry="0.95882833"
         transform="matrix(1.3336025,0.5446918,-0.5192693,1.6755451,83.016599,-239.25677)" /><ellipse
         style="mix-blend-mode:normal;fill:#a9a244;fill-opacity:1;fill-rule:evenodd;stroke-width:0.278495;filter:url(#filter20822)"
         id="ellipse21451"
         cx="73.276245"
         cy="174.13275"
         rx="0.75504833"
         ry="0.95882833"
         transform="matrix(1.5444881,-0.55127431,0.5476554,1.6638045,-121.1406,-155.1451)" /><ellipse
         style="mix-blend-mode:normal;fill:#dace44;fill-opacity:1;fill-rule:evenodd;stroke-width:0.278495;filter:url(#filter20814)"
         id="ellipse21798"
         cx="78.88282"
         cy="170.72688"
         rx="0.75504833"
         ry="0.95882833"
         transform="matrix(1.7315856,0.54110791,-0.53502794,1.7435578,56.665267,-253.94404)" /><ellipse
         style="mix-blend-mode:normal;fill:#d3c840;fill-opacity:1;fill-rule:evenodd;stroke-width:0.278495;filter:url(#filter20806)"
         id="ellipse22283"
         cx="70.656357"
         cy="170.83168"
         rx="0.75504833"
         ry="0.95882833"
         transform="matrix(1.6355219,-0.47672714,0.42716284,1.8252937,-109.98444,-192.19194)" /><ellipse
         style="mix-blend-mode:normal;fill:#cfc33f;fill-opacity:1;fill-rule:evenodd;stroke-width:0.278495;filter:url(#filter20790)"
         id="ellipse22699"
         cx="80.611954"
         cy="166.90184"
         rx="0.75504833"
         ry="0.95882833"
         transform="matrix(1.8417033,0.34099656,-0.32518835,1.9312329,13.611038,-272.84941)" /><ellipse
         style="mix-blend-mode:normal;fill:#d8cd4b;fill-opacity:1;fill-rule:evenodd;stroke-width:0.278495;filter:url(#filter20794)"
         id="ellipse22977"
         cx="76.734512"
         cy="167.05904"
         rx="0.75504833"
         ry="0.95882833"
         transform="matrix(1.9066129,0.38913111,-0.42884949,1.7300298,21.427612,-241.65328)" /><ellipse
         style="mix-blend-mode:normal;fill:#ede049;fill-opacity:1;fill-rule:evenodd;stroke-width:0.278495;filter:url(#filter20798)"
         id="ellipse23255"
         cx="71.861511"
         cy="167.00664"
         rx="0.75504833"
         ry="0.95882833"
         transform="matrix(1.9918412,-0.40942215,0.4458231,1.8292096,-133.90303,-198.83214)" /><ellipse
         style="mix-blend-mode:normal;fill:#fcee4c;fill-opacity:1;fill-rule:evenodd;stroke-width:0.278495;filter:url(#filter20802)"
         id="ellipse23740"
         cx="67.879265"
         cy="167.00664"
         rx="0.75504833"
         ry="0.95882833"
         transform="matrix(1.5762039,-0.38722023,0.35279322,1.7300164,-94.69161,-186.29289)" /><ellipse
         style="mix-blend-mode:normal;fill:#fcef4c;fill-opacity:1;fill-rule:evenodd;stroke-width:0.278495;filter:url(#filter20770)"
         id="ellipse24915"
         cx="66.150139"
         cy="163.39119"
         rx="0.75504833"
         ry="0.95882833"
         transform="matrix(1.6158885,-0.34888909,0.31720872,1.777271,-91.824914,-200.16562)" /><ellipse
         style="mix-blend-mode:normal;fill:#fcef4c;fill-opacity:1;fill-rule:evenodd;stroke-width:0.278495;filter:url(#filter20774)"
         id="ellipse25469"
         cx="70.079979"
         cy="163.23399"
         rx="0.75504833"
         ry="0.95882833"
         transform="matrix(1.850467,-0.41418005,0.41418005,1.850467,-118.47789,-205.40492)" /><ellipse
         style="mix-blend-mode:normal;fill:#f9e949;fill-opacity:1;fill-rule:evenodd;stroke-width:0.278495;filter:url(#filter20778)"
         id="ellipse25816"
         cx="74.638596"
         cy="163.39119"
         rx="0.75504833"
         ry="0.95882833"
         transform="matrix(2.0152835,0,0,2.1674206,-59.843685,-286.25068)" /><ellipse
         style="mix-blend-mode:normal;fill:#efe24a;fill-opacity:1;fill-rule:evenodd;stroke-width:0.278495;filter:url(#filter20782)"
         id="ellipse26439"
         cx="78.987625"
         cy="163.33879"
         rx="0.75504833"
         ry="0.95882833"
         transform="matrix(1.7261074,0.30477769,-0.30477769,1.7261074,15.287137,-237.96631)" /><ellipse
         style="mix-blend-mode:normal;fill:#e4d950;fill-opacity:1;fill-rule:evenodd;stroke-width:0.278495;filter:url(#filter20786)"
         id="ellipse26855"
         cx="82.70787"
         cy="163.28639"
         rx="0.75504833"
         ry="0.95882833"
         transform="matrix(1.4397938,0.31020288,-0.27484119,1.6250409,38.490327,-223.53574)" /><ellipse
         style="mix-blend-mode:normal;fill:#d5ca4c;fill-opacity:1;fill-rule:evenodd;stroke-width:0.278495;filter:url(#filter20746)"
         id="ellipse27466"
         cx="84.070221"
         cy="159.77574"
         rx="0.75504833"
         ry="0.95882833"
         transform="matrix(1.569073,0,0,1.7636924,-16.651466,-223.70265)" /><ellipse
         style="mix-blend-mode:normal;fill:#fcee4c;fill-opacity:1;fill-rule:evenodd;stroke-width:0.278495;filter:url(#filter20750)"
         id="ellipse28296"
         cx="80.66436"
         cy="159.67094"
         rx="0.75504833"
         ry="0.95882833"
         transform="matrix(2.0642577,-0.20640801,0.20640801,2.0642577,-93.287106,-255.13063)" /><ellipse
         style="mix-blend-mode:normal;fill:#fcee4c;fill-opacity:1;fill-rule:evenodd;stroke-width:0.278495;filter:url(#filter20754)"
         id="ellipse28712"
         cx="76.577324"
         cy="159.72334"
         rx="0.75504833"
         ry="0.95882833"
         transform="matrix(1.8786875,0,0,2.1161109,-48.048407,-280.03519)" /><ellipse
         style="mix-blend-mode:normal;fill:#f9e949;fill-opacity:1;fill-rule:evenodd;stroke-width:0.278495;filter:url(#filter20758)"
         id="ellipse28852"
         cx="71.861511"
         cy="159.72334"
         rx="0.75504833"
         ry="0.95882833"
         transform="matrix(1.8726039,0,0,2.2005022,-50.879038,-293.51447)" /><ellipse
         style="mix-blend-mode:normal;fill:#fcef4c;fill-opacity:1;fill-rule:evenodd;stroke-width:0.278495;filter:url(#filter20762)"
         id="ellipse29544"
         cx="67.879272"
         cy="159.67094"
         rx="0.75504833"
         ry="0.95882833"
         transform="matrix(1.998638,0,0,1.998638,-62.546069,-261.30283)" /><ellipse
         style="mix-blend-mode:normal;fill:#fced4c;fill-opacity:1;fill-rule:evenodd;stroke-width:0.278495;filter:url(#filter20766)"
         id="ellipse30167"
         cx="64.682999"
         cy="159.61855"
         rx="0.75504833"
         ry="0.95882833"
         transform="matrix(1.6177278,0,0,1.7636924,-39.988288,-223.83193)" /><ellipse
         style="mix-blend-mode:normal;fill:#dfd349;fill-opacity:1;fill-rule:evenodd;stroke-width:0.278495;filter:url(#filter20742)"
         id="ellipse30439"
         cx="82.760269"
         cy="156.36987"
         rx="0.75504833"
         ry="0.95882833"
         transform="matrix(1.3922567,-0.58681579,0.52753823,1.5486995,-86.315562,-145.13291)" /><ellipse
         style="mix-blend-mode:normal;fill:#fcee4c;fill-opacity:1;fill-rule:evenodd;stroke-width:0.278495;filter:url(#filter20738)"
         id="ellipse30993"
         cx="78.987625"
         cy="156.57947"
         rx="0.75504833"
         ry="0.95882833"
         transform="matrix(1.8246974,-0.26529526,0.26529526,1.8246974,-83.822056,-214.92807)" /><ellipse
         style="mix-blend-mode:normal;fill:#fcee4c;fill-opacity:1;fill-rule:evenodd;stroke-width:0.278495;filter:url(#filter20734)"
         id="ellipse31340"
         cx="74.37661"
         cy="156.78906"
         rx="0.75504833"
         ry="0.95882833"
         transform="matrix(1.8726039,0,0,2.0499478,-49.084772,-271.04036)" /><ellipse
         style="mix-blend-mode:normal;fill:#fcee4c;fill-opacity:1;fill-rule:evenodd;stroke-width:0.278495;filter:url(#filter20730)"
         id="ellipse31618"
         cx="70.132385"
         cy="156.63187"
         rx="0.75504833"
         ry="0.95882833"
         transform="matrix(1.8485155,0.56808752,-0.56808752,1.8485155,38.286388,-279.41524)" /><ellipse
         style="mix-blend-mode:normal;fill:#fcee4c;fill-opacity:1;fill-rule:evenodd;stroke-width:0.278495;filter:url(#filter20726)"
         id="ellipse31827"
         cx="66.307335"
         cy="156.36987"
         rx="0.75504833"
         ry="0.95882833"
         transform="matrix(1.566396,0.82599891,-0.74605089,1.7342536,82.32558,-277.07629)" /></g></g></svg>
